<svg xmlns="http://www.w3.org/2000/svg" width="24" height="24" viewBox="0 0 24 24"><defs><style>.b4f42861-b992-4915-aba4-884c95d374a4{fill:none;}</style></defs><g id="b03a460f-8c32-4de0-8357-f087b694c857" data-name="sunrise"><rect class="b4f42861-b992-4915-aba4-884c95d374a4" width="24" height="24"/><path d="M20.485,4.929,19.071,3.515,16.95,5.636,18.364,7.05ZM7.05,5.636,4.929,3.515,3.515,4.929,5.636,7.05ZM13,1H11V4h2Zm7,10v2h3V11Zm-2,1A6,6,0,1,0,6.812,15H2v2H22V15H17.188A5.95,5.95,0,0,0,18,12Zm-3.38,3H9.38a4,4,0,1,1,5.24,0ZM4,11H1v2H4Z"/><polygon points="14.828 20.828 12 18 9.172 20.828 10.586 22.243 12 20.828 13.414 22.243 14.828 20.828"/></g></svg>