<svg xmlns="http://www.w3.org/2000/svg" width="24" height="24" viewBox="0 0 24 24"><defs><style>.b18a06f7-a787-4f28-af8e-bcc17d7c7993{fill:none;}</style></defs><g id="a8d36dbf-2a8b-46e7-b44b-e10bcd947257" data-name="moonrise"><rect class="b18a06f7-a787-4f28-af8e-bcc17d7c7993" width="24" height="24"/><path d="M13.4,15A9.974,9.974,0,0,1,11.641,2.018,9.992,9.992,0,0,0,2,12a9.857,9.857,0,0,0,.482,3H2v2H22V15ZM4.592,15A7.97,7.97,0,0,1,8.286,4.918,11.886,11.886,0,0,0,10.657,15Z"/><polygon points="14.828 20.828 12 18 9.172 20.828 10.586 22.243 12 20.828 13.414 22.243 14.828 20.828"/></g></svg>