<svg xmlns="http://www.w3.org/2000/svg" width="24" height="24" viewBox="0 0 24 24"><defs><style>.e9fff3c0-36b9-4e9a-877f-7c47605c9282{fill:none;}</style></defs><g id="b1a87ab6-2ff3-47f4-a9ce-734ae5d091ee" data-name="precipitation"><path class="e9fff3c0-36b9-4e9a-877f-7c47605c9282" d="M0,0H24V24H0Z"/><path d="M19.355,8.036a7.5,7.5,0,0,0-14-2A6,6,0,0,0,6,18H19a4.988,4.988,0,0,0,.355-9.964ZM19,16H6A4,4,0,0,1,6,8h.712A5.5,5.5,0,0,1,17.5,9.5c0,.169-.01.335-.025.5H19a3,3,0,0,1,0,6Z"/><rect x="8" y="19" width="2" height="3" rx="1"/><rect x="11" y="19" width="2" height="3" rx="1"/><rect x="14" y="19" width="2" height="3" rx="1"/></g></svg>