<svg xmlns="http://www.w3.org/2000/svg" width="24" height="24" viewBox="0 0 24 24"><defs><style>.aeed27ed-9251-4d63-b01e-d0cf2eac647e{fill:none;}</style></defs><g id="b93e57e9-5060-439b-852a-fd6a0b385e7c" data-name="precipitation-alt"><rect class="aeed27ed-9251-4d63-b01e-d0cf2eac647e" width="24" height="24"/><path d="M14,6.994l-1-1V3.5a.5.5,0,0,1,1,0h2a2.5,2.5,0,0,0-5,0V5.994l-1,1-4-1L11,21c.175.524.448,1,1,1s.825-.476,1-1L18,5.994Zm-.613,2.215,1.1-.274.466-.117L13,14.673V8.823ZM9.049,8.818l.466.117,1.1.274L11,8.823v5.85Z"/></g></svg>