<svg xmlns="http://www.w3.org/2000/svg" width="24" height="24" viewBox="0 0 24 24"><defs><style>.be0be526-421f-42a8-a73d-8d1d986e4a0c{fill:none;}</style></defs><g id="ff68cb84-e551-46c7-96e9-5432ba539947" data-name="moonset"><rect class="be0be526-421f-42a8-a73d-8d1d986e4a0c" width="24" height="24"/><path d="M13.4,15A9.974,9.974,0,0,1,11.641,2.018,9.992,9.992,0,0,0,2,12a9.857,9.857,0,0,0,.482,3H2v2H22V15ZM4.592,15A7.97,7.97,0,0,1,8.286,4.918,11.886,11.886,0,0,0,10.657,15Z"/><polygon points="13.414 18 12 19.414 10.586 18 9.172 19.414 12 22.243 14.828 19.414 13.414 18"/></g></svg>