<svg xmlns="http://www.w3.org/2000/svg" width="24" height="24" viewBox="0 0 24 24"><defs><style>.b95df8aa-cca4-4684-ae96-e597d706c39b{fill:none;}</style></defs><g id="a990cda9-0ca4-491a-9e30-888e7ba375cc" data-name="pressure"><rect class="b95df8aa-cca4-4684-ae96-e597d706c39b" width="24" height="24"/><path d="M12,2A10,10,0,1,0,22,12,10,10,0,0,0,12,2Zm0,18a8,8,0,1,1,8-8A8,8,0,0,1,12,20Z"/><path d="M12,16a11.934,11.934,0,0,0-7.477,2.624,9.968,9.968,0,0,0,14.954,0A11.934,11.934,0,0,0,12,16Z"/><path d="M15.5,5.938a1,1,0,0,0-1.366.366L12,10.008a2,2,0,1,0,1.732,1l2.139-3.7A1,1,0,0,0,15.5,5.938Z"/><circle cx="18" cy="12" r="1"/><circle cx="6" cy="12" r="1"/><circle cx="9" cy="6.804" r="1"/></g></svg>