<svg xmlns="http://www.w3.org/2000/svg" width="24" height="24" viewBox="0 0 24 24"><defs><style>.eed74552-78f8-47fd-85a8-1d9652dc2818{fill:none;}</style></defs><g id="b8793193-be85-48f8-a7dc-48a14a9eb915" data-name="moonset"><rect class="eed74552-78f8-47fd-85a8-1d9652dc2818" width="24" height="24"/><path d="M13.4,15A9.974,9.974,0,0,1,11.641,2.018,9.992,9.992,0,0,0,2,12a9.857,9.857,0,0,0,.482,3H2v2H22V15ZM4.592,15A7.97,7.97,0,0,1,8.286,4.918,11.886,11.886,0,0,0,10.657,15Z"/><polygon points="13.414 18 12 19.414 10.586 18 9.172 19.414 12 22.243 14.828 19.414 13.414 18"/></g></svg>