<svg xmlns="http://www.w3.org/2000/svg" width="24" height="24" viewBox="0 0 24 24"><defs><style>.e74d4d45-1e4a-4220-9c0d-76a4d6ec7a7a{fill:none;}</style></defs><g id="a8ef3b0d-7572-4ae0-ba1a-cc21e5a97cf8" data-name="precipitation-alt"><rect class="e74d4d45-1e4a-4220-9c0d-76a4d6ec7a7a" width="24" height="24"/><path d="M14,6.994l-1-1V3.5a.5.5,0,0,1,1,0h2a2.5,2.5,0,0,0-5,0V5.994l-1,1-4-1L11,21c.175.524.448,1,1,1s.825-.476,1-1L18,5.994Zm-.613,2.215,1.1-.274.466-.117L13,14.673V8.823ZM9.049,8.818l.466.117,1.1.274L11,8.823v5.85Z"/></g></svg>