<svg xmlns="http://www.w3.org/2000/svg" width="24" height="24" viewBox="0 0 24 24"><defs><style>.a9f8080c-d768-4d49-9236-6e59d48ac3e5{fill:none;}</style></defs><g id="aca3f369-eaa7-4f97-b3c7-02a34c0a8933" data-name="sunset"><rect class="a9f8080c-d768-4d49-9236-6e59d48ac3e5" width="24" height="24"/><path d="M20.485,4.929,19.071,3.515,16.95,5.636,18.364,7.05ZM13,1H11V4h2ZM7.05,5.636,4.929,3.515,3.515,4.929,5.636,7.05ZM4,11H1v2H4Zm16,0v2h3V11Zm-2,1A6,6,0,1,0,6.812,15H2v2H22V15H17.188A5.95,5.95,0,0,0,18,12Zm-3.38,3H9.38a4,4,0,1,1,5.24,0Z"/><polygon points="13.414 18 12 19.414 10.586 18 9.172 19.414 10.586 20.828 12 22.243 13.414 20.828 14.828 19.414 13.414 18"/></g></svg>