<svg xmlns="http://www.w3.org/2000/svg" width="24" height="24" viewBox="0 0 24 24"><defs><style>.bf2d2a1a-2c49-411e-af03-7f43295100d2{fill:none;}</style></defs><g id="a2159faa-b3ff-47b3-b143-070e574a4f29" data-name="uv-index"><rect class="bf2d2a1a-2c49-411e-af03-7f43295100d2" width="24" height="24"/><rect x="11" y="20" width="2" height="3"/><rect x="20" y="11" width="3" height="2"/><rect x="11" y="1" width="2" height="3"/><rect x="1" y="11" width="3" height="2"/><rect x="4.282" y="17.218" width="2" height="3" transform="translate(14.782 1.747) rotate(45)"/><rect x="17.218" y="17.718" width="3" height="2" transform="translate(18.718 -7.753) rotate(45)"/><rect x="17.718" y="3.782" width="2" height="3" transform="translate(9.218 -11.688) rotate(45)"/><rect x="3.782" y="4.282" width="3" height="2" transform="translate(5.282 -2.188) rotate(45)"/><path d="M12,6a6,6,0,1,0,6,6A6,6,0,0,0,12,6Zm0,10a4,4,0,1,1,4-4A4,4,0,0,1,12,16Z"/></g></svg>