<svg xmlns="http://www.w3.org/2000/svg" width="24" height="24" viewBox="0 0 24 24"><defs><style>.e3535f88-63da-4154-a108-823feb60b2e1{fill:none;}</style></defs><g id="e6a954c6-a526-4fc3-a40d-d316595d1921" data-name="moonrise"><rect class="e3535f88-63da-4154-a108-823feb60b2e1" width="24" height="24"/><path d="M13.4,15A9.974,9.974,0,0,1,11.641,2.018,9.992,9.992,0,0,0,2,12a9.857,9.857,0,0,0,.482,3H2v2H22V15ZM4.592,15A7.97,7.97,0,0,1,8.286,4.918,11.886,11.886,0,0,0,10.657,15Z"/><polygon points="14.828 20.828 12 18 9.172 20.828 10.586 22.243 12 20.828 13.414 22.243 14.828 20.828"/></g></svg>