<svg xmlns="http://www.w3.org/2000/svg" width="24" height="24" viewBox="0 0 24 24"><defs><style>.b7741447-4c8a-4b6b-a176-aa5a9d159ca0{fill:none;}</style></defs><g id="f8cc77ab-f4d5-41f3-ad19-8ee612ca67c4" data-name="moonrise"><rect class="b7741447-4c8a-4b6b-a176-aa5a9d159ca0" width="24" height="24"/><path d="M21.531,15a9.749,9.749,0,0,0,.419-2A11,11,0,0,1,11,2.05,10,10,0,0,0,2,12a9.857,9.857,0,0,0,.482,3H2v2H22V15ZM4.592,15A7.969,7.969,0,0,1,9.245,4.5,13.009,13.009,0,0,0,19.5,14.755c-.032.085-.081.161-.115.245Z"/><polygon points="14.828 20.828 12 18 9.172 20.828 10.586 22.243 12 20.828 13.414 22.243 14.828 20.828"/></g></svg>