<svg xmlns="http://www.w3.org/2000/svg" width="24" height="24" viewBox="0 0 24 24"><defs><style>.b3c3be96-278d-4b43-a375-4a2a9f85402f{fill:none;}</style></defs><g id="a24172bb-feb3-4806-880a-d01166524fa7" data-name="moonset"><rect class="b3c3be96-278d-4b43-a375-4a2a9f85402f" width="24" height="24"/><path d="M21.531,15a9.749,9.749,0,0,0,.419-2A11,11,0,0,1,11,2.05,10,10,0,0,0,2,12a9.857,9.857,0,0,0,.482,3H2v2H22V15ZM4.592,15A7.969,7.969,0,0,1,9.245,4.5,13.009,13.009,0,0,0,19.5,14.755c-.032.085-.081.161-.115.245Z"/><polygon points="13.414 18 12 19.414 10.586 18 9.172 19.414 12 22.243 14.828 19.414 13.414 18"/></g></svg>