<svg xmlns="http://www.w3.org/2000/svg" width="24" height="24" viewBox="0 0 24 24"><defs><style>.f5b71341-dc00-40d9-b52b-c1612b09dd3d{fill:none;}</style></defs><g id="a35c91c5-7053-4838-8538-dd1df60154f2" data-name="cloudy-day"><rect class="f5b71341-dc00-40d9-b52b-c1612b09dd3d" width="24" height="24"/><path d="M14,2H12V5h2Zm7,10v2h3V12Zm.485-6.071L20.071,4.515,17.95,6.636,19.364,8.05ZM8.05,6.636,5.929,4.515,4.515,5.929,6.636,8.05Zm9.9,12.728,2.121,2.121,1.414-1.414L19.364,17.95Zm-.273-2.611a6,6,0,1,0-9.963-6.592A5.628,5.628,0,0,0,4,13.05,4.488,4.488,0,0,0,4.5,22h9.75A3.75,3.75,0,0,0,18,18.25,3.685,3.685,0,0,0,17.677,16.753ZM14.25,20H4.5a2.5,2.5,0,0,1,0-5h.938a3.62,3.62,0,0,1,7.187.625,3.565,3.565,0,0,1-.119.875H14.25a1.75,1.75,0,0,1,0,3.5Zm2.1-4.829a3.738,3.738,0,0,0-1.836-.644,5.622,5.622,0,0,0-4.311-4.383,3.994,3.994,0,0,1,6.147,5.027Z"/></g></svg>