<svg xmlns="http://www.w3.org/2000/svg" width="24" height="24" viewBox="0 0 24 24"><defs><style>.b6de7fd7-d981-4a4e-bdfc-4873776b753c{fill:none;}</style></defs><g id="f88760b7-d63b-4bac-ae11-4fe31f18d962" data-name="rain-day"><rect class="b6de7fd7-d981-4a4e-bdfc-4873776b753c" width="24" height="24"/><path d="M8.05,4.636,5.929,2.515,4.515,3.929,6.636,6.05ZM14,0H12V3h2Zm7.485,3.929L20.071,2.515,17.95,4.636,19.364,6.05ZM17.677,14.753A6,6,0,1,0,7.714,8.161,5.628,5.628,0,0,0,4,11.05,4.488,4.488,0,0,0,4.5,20h9.75A3.75,3.75,0,0,0,18,16.25,3.685,3.685,0,0,0,17.677,14.753ZM14.25,18H4.5a2.5,2.5,0,0,1,0-5h.938a3.62,3.62,0,0,1,7.187.625,3.565,3.565,0,0,1-.119.875H14.25a1.75,1.75,0,0,1,0,3.5Zm2.1-4.829a3.738,3.738,0,0,0-1.836-.644,5.622,5.622,0,0,0-4.311-4.383,3.994,3.994,0,0,1,6.147,5.027ZM21,10v2h3V10Zm-3.05,7.364,2.121,2.121,1.414-1.414L19.364,15.95Z"/><rect x="5" y="21" width="2" height="3" rx="1"/><rect x="8" y="21" width="2" height="3" rx="1"/><rect x="11" y="21" width="2" height="3" rx="1"/></g></svg>