<svg xmlns="http://www.w3.org/2000/svg" width="24" height="24" viewBox="0 0 24 24"><defs><style>.ad4098dc-0219-45c4-b3ac-ff17684b3950{fill:none;}</style></defs><g id="a1dfbb4a-7457-4d19-840b-395110c3b2b4" data-name="partly-cloudy-day"><rect class="ad4098dc-0219-45c4-b3ac-ff17684b3950" width="24" height="24"/><path d="M7.05,5.636,4.929,3.515,3.515,4.929,5.636,7.05ZM4,11H1v2H4ZM20.485,4.929,19.071,3.515,16.95,5.636,18.364,7.05ZM13,1H11V4h2Zm5,11A6,6,0,1,0,6.47,14.331a3.786,3.786,0,0,0-1.785,1.7A2.992,2.992,0,0,0,5,22h6.5A2.5,2.5,0,0,0,14,19.5a2.463,2.463,0,0,0-.643-1.66A6,6,0,0,0,18,12Zm-6.5,8H5a1,1,0,0,1,0-2H6.275a1.708,1.708,0,0,1-.025-.25A1.75,1.75,0,1,1,9.222,19H11.5a.5.5,0,0,1,0,1Zm.5-4a4.023,4.023,0,0,1-.734-.074,3.739,3.739,0,0,0-2.683-1.874A3.989,3.989,0,1,1,12,16Zm8-5v2h3V11Zm-3.05,7.364,2.121,2.121,1.414-1.414L18.364,16.95Z"/></g></svg>