<svg xmlns="http://www.w3.org/2000/svg" width="24" height="24" viewBox="0 0 24 24"><defs><style>.a0a4f94a-c7f7-45af-8487-13e642ca646e{fill:none;}</style></defs><g id="a50c59f4-4da3-4060-9f41-fc9b3e8c9205" data-name="sleet-night"><rect class="a0a4f94a-c7f7-45af-8487-13e642ca646e" width="24" height="24"/><path d="M12,.05A9.931,9.931,0,0,0,3.088,11.258,4.482,4.482,0,0,0,4.5,20h9.75a3.707,3.707,0,0,0,1.817-.489A10,10,0,0,0,22.95,11,11,11,0,0,1,12,.05ZM14.25,18H4.5a2.5,2.5,0,0,1,0-5h.938a3.62,3.62,0,0,1,7.187.625,3.565,3.565,0,0,1-.119.875H14.25a1.75,1.75,0,0,1,0,3.5ZM18,16.214a3.737,3.737,0,0,0-3.481-3.687A5.608,5.608,0,0,0,5.027,9.663,7.987,7.987,0,0,1,10.245,2.5,13.009,13.009,0,0,0,20.5,12.755,8.023,8.023,0,0,1,18,16.214Z"/><rect x="5" y="21" width="2" height="2" rx="1"/><rect x="8" y="21" width="2" height="3" rx="1"/><rect x="11" y="21" width="2" height="2" rx="1"/></g></svg>