<svg xmlns="http://www.w3.org/2000/svg" width="24" height="24" viewBox="0 0 24 24"><defs><style>.bb2959ac-f4b7-4814-ad30-563f3d130c40{fill:none;}</style></defs><g id="b211f77c-7c55-45c7-b0fb-18fb71a03022" data-name="fog-day"><rect class="bb2959ac-f4b7-4814-ad30-563f3d130c40" width="24" height="24"/><rect x="10" y="16" width="11" height="2" rx="1"/><rect x="3" y="16" width="5" height="2" rx="1"/><rect x="5" y="20" width="14" height="2" rx="1"/><path d="M13,1H11V4h2Zm6.071,2.515L16.95,5.636,18.364,7.05l2.121-2.121ZM20,11v2h3V11ZM4.929,3.515,3.515,4.929,5.636,7.05,7.05,5.636ZM12,6a5.986,5.986,0,0,0-5.651,8H8.555A3.955,3.955,0,0,1,8,12a4,4,0,0,1,8,0,3.955,3.955,0,0,1-.555,2h2.206A5.986,5.986,0,0,0,12,6ZM1,13H4V11H1Z"/></g></svg>