<svg xmlns="http://www.w3.org/2000/svg" width="24" height="24" viewBox="0 0 24 24"><defs><style>.aae458c1-2ec3-4c14-b029-ccc4f513c8e3{fill:none;}</style></defs><g id="b3e0aec3-34a1-412c-b804-0518c0555ef6" data-name="storm"><path class="aae458c1-2ec3-4c14-b029-ccc4f513c8e3" d="M0,0H24V24H0Z"/><rect x="11" y="19" width="2" height="3" rx="1"/><rect x="14" y="19" width="2" height="3" rx="1"/><path d="M19.355,8.036a7.5,7.5,0,0,0-14-2,6,6,0,0,0,.326,11.948L5,19H7v4l3.333-5H19a4.988,4.988,0,0,0,.355-9.964ZM19,16H6A4,4,0,0,1,6,8h.712A5.5,5.5,0,0,1,17.5,9.5c0,.169-.01.335-.025.5H19a3,3,0,0,1,0,6Z"/></g></svg>