<svg xmlns="http://www.w3.org/2000/svg" width="24" height="24" viewBox="0 0 24 24"><defs><style>.e4a429ca-86da-4212-991c-28c04c55893e{fill:none;}</style></defs><g id="bde5ab71-6820-424b-ae0f-9170bc648f09" data-name="rain"><path class="e4a429ca-86da-4212-991c-28c04c55893e" d="M0,0H24V24H0Z"/><rect x="7" y="15" width="2" height="6" rx="1"/><rect x="11" y="15" width="2" height="6" rx="1"/><rect x="15" y="15" width="2" height="6" rx="1"/><path d="M19.355,9.036a7.5,7.5,0,0,0-14-2A6,6,0,0,0,6,19V17A4,4,0,0,1,6,9h.712A5.5,5.5,0,0,1,17.5,10.5c0,.169-.01.335-.025.5H19a3,3,0,0,1,0,6H18v2h1a4.988,4.988,0,0,0,.355-9.964Z"/></g></svg>