<svg xmlns="http://www.w3.org/2000/svg" width="24" height="24" viewBox="0 0 24 24"><defs><style>.e89341ad-bc84-451f-82ef-0e29d3ec1c01{fill:none;}</style></defs><g id="b35d50d3-f2e4-441f-a8d2-a1c3b40bc553" data-name="sleet"><path class="e89341ad-bc84-451f-82ef-0e29d3ec1c01" d="M0,0H24V24H0Z"/><rect x="7" y="18" width="2" height="3" rx="1"/><circle cx="8" cy="16" r="1"/><rect x="11" y="15" width="2" height="6" rx="1"/><circle cx="16" cy="20" r="1"/><rect x="15" y="15" width="2" height="3" rx="1"/><path d="M19.355,9.036a7.5,7.5,0,0,0-14-2A6,6,0,0,0,6,19V17A4,4,0,0,1,6,9h.712A5.5,5.5,0,0,1,17.5,10.5c0,.169-.01.335-.025.5H19a3,3,0,0,1,0,6H18v2h1a4.988,4.988,0,0,0,.355-9.964Z"/></g></svg>