<svg xmlns="http://www.w3.org/2000/svg" width="24" height="24" viewBox="0 0 24 24"><defs><style>.a61515cc-7d76-482a-bdfb-b95d891d4bc4{fill:none;}</style></defs><g id="ad0d715a-771f-47e5-bae6-f75c00d6b113" data-name="storm"><path class="a61515cc-7d76-482a-bdfb-b95d891d4bc4" d="M0,0H24V24H0Z"/><path d="M19.355,9.036a7.5,7.5,0,0,0-14-2A6,6,0,0,0,4.259,18.741L4,19H6v3l3-3h1V17H6A4,4,0,0,1,6,9h.712A5.5,5.5,0,0,1,17.5,10.5c0,.169-.01.335-.025.5H19a3,3,0,0,1,0,6H18v2h1a4.988,4.988,0,0,0,.355-9.964Z"/><rect x="15" y="15" width="2" height="3" rx="1"/><circle cx="16" cy="20" r="1"/><rect x="11" y="15" width="2" height="6" rx="1"/></g></svg>