<svg id="e5a2464b-69ca-4272-bcb9-b1817e0d1ccf" data-name="clear-day" xmlns="http://www.w3.org/2000/svg" width="24" height="24" viewBox="0 0 24 24"><defs><style>.a0b39b3f-e814-475d-9f8b-257b7dbe4312{fill:none;}</style></defs><rect class="a0b39b3f-e814-475d-9f8b-257b7dbe4312" width="24" height="24"/><rect x="11" y="20" width="2" height="3"/><rect x="20" y="11" width="3" height="2"/><rect x="11" y="1" width="2" height="3"/><rect x="1" y="11" width="3" height="2"/><rect x="4.282" y="17.218" width="2" height="3" transform="translate(14.782 1.747) rotate(45)"/><rect x="17.218" y="17.718" width="3" height="2" transform="translate(18.718 -7.753) rotate(45)"/><rect x="17.718" y="3.782" width="2" height="3" transform="translate(9.218 -11.688) rotate(45)"/><rect x="3.782" y="4.282" width="3" height="2" transform="translate(5.282 -2.188) rotate(45)"/><path d="M12,6a6,6,0,1,0,6,6A6,6,0,0,0,12,6Zm0,10a4,4,0,1,1,4-4A4,4,0,0,1,12,16Z"/></svg>