<svg xmlns="http://www.w3.org/2000/svg" width="24" height="24" viewBox="0 0 24 24"><defs><style>.fd53c7bb-c9d8-4637-b549-256e3f8c1aea{fill:none;}</style></defs><g id="adf5e3f8-b28c-449a-a518-237e607147ce" data-name="storm"><path class="fd53c7bb-c9d8-4637-b549-256e3f8c1aea" d="M0,0H24V24H0Z"/><rect x="11" y="19" width="2" height="3" rx="1"/><rect x="14" y="19" width="2" height="3" rx="1"/><path d="M19.355,8.036a7.5,7.5,0,0,0-14-2,6,6,0,0,0,.326,11.948L5,19H7v4l3.333-5H19a4.988,4.988,0,0,0,.355-9.964ZM19,16H6A4,4,0,0,1,6,8h.712A5.5,5.5,0,0,1,17.5,9.5c0,.169-.01.335-.025.5H19a3,3,0,0,1,0,6Z"/></g></svg>