<svg xmlns="http://www.w3.org/2000/svg" width="24" height="24" viewBox="0 0 24 24"><defs><style>.e1129320-d9f9-45b2-96af-1503c675bd81{fill:none;}</style></defs><g id="a9085019-7b02-4bcf-8bd9-8cae5820def3" data-name="snow-night"><rect class="e1129320-d9f9-45b2-96af-1503c675bd81" width="24" height="24"/><path d="M22,15.5a9.944,9.944,0,0,1-4.493-1.075A3.734,3.734,0,0,0,14.963,12.6c-.218-.216-.425-.443-.622-.678a5.6,5.6,0,0,0-1.468-2.35A9.963,9.963,0,0,1,13.641.018,9.992,9.992,0,0,0,4,10c0,.329.018.653.049.973-.014.027-.033.05-.046.077A4.488,4.488,0,0,0,4.5,20h9.75a3.662,3.662,0,0,0,.435-.044,9.981,9.981,0,0,0,7.674-4.474C22.239,15.486,22.121,15.5,22,15.5ZM10.286,2.918a11.828,11.828,0,0,0,.019,5.254,5.412,5.412,0,0,0-4.214.645A8,8,0,0,1,10.286,2.918ZM14.25,18H4.5a2.5,2.5,0,0,1,0-5h.938a3.62,3.62,0,0,1,7.187.625,3.565,3.565,0,0,1-.119.875H14.25a1.75,1.75,0,0,1,0,3.5Zm3.68-1.054c.01-.054.009-.111.017-.166.059.021.115.047.175.067C18.06,16.884,17.992,16.911,17.93,16.946Z"/><rect x="5" y="21" width="2" height="2" rx="1"/><rect x="8" y="22" width="2" height="2" rx="1"/><rect x="11" y="21" width="2" height="2" rx="1"/></g></svg>