<svg xmlns="http://www.w3.org/2000/svg" width="24" height="24" viewBox="0 0 24 24"><defs><style>.a9b3ca60-aab8-4086-8fb5-66a1918d85ff{fill:none;}</style></defs><g id="bb71daa9-f7aa-4588-9563-81103b2aaf21" data-name="cloudy-night"><rect class="a9b3ca60-aab8-4086-8fb5-66a1918d85ff" width="24" height="24"/><path d="M22,17.5a9.944,9.944,0,0,1-4.493-1.075A3.734,3.734,0,0,0,14.963,14.6c-.218-.216-.425-.443-.622-.678a5.6,5.6,0,0,0-1.468-2.35,9.963,9.963,0,0,1,.768-9.556A9.992,9.992,0,0,0,4,12c0,.329.018.653.049.973-.014.027-.033.05-.046.077A4.488,4.488,0,0,0,4.5,22h9.75a3.662,3.662,0,0,0,.435-.044,9.981,9.981,0,0,0,7.674-4.474C22.239,17.486,22.121,17.5,22,17.5ZM10.286,4.918a11.828,11.828,0,0,0,.019,5.254,5.412,5.412,0,0,0-4.214.645A8,8,0,0,1,10.286,4.918ZM14.25,20H4.5a2.5,2.5,0,0,1,0-5h.938a3.62,3.62,0,0,1,7.187.625,3.565,3.565,0,0,1-.119.875H14.25a1.75,1.75,0,0,1,0,3.5Zm3.68-1.054c.01-.054.009-.111.017-.166.059.021.115.047.175.067C18.06,18.884,17.992,18.911,17.93,18.946Z"/></g></svg>