<svg xmlns="http://www.w3.org/2000/svg" width="24" height="24" viewBox="0 0 24 24"><defs><style>.a88f3f73-8df9-4021-a521-365f7c6dac1e{fill:none;}</style></defs><g id="bbaed117-14bb-4668-b843-493f71f0f5f2" data-name="partly-cloudy-night"><rect class="a88f3f73-8df9-4021-a521-365f7c6dac1e" width="24" height="24"/><path d="M20,17.5A9.995,9.995,0,0,1,11.641,2.018,9.984,9.984,0,0,0,3.152,16.652,2.965,2.965,0,0,0,2,19a3,3,0,0,0,3,3h6.5c.057,0,.111-.013.167-.017.112,0,.221.017.333.017a9.99,9.99,0,0,0,8.359-4.518C20.239,17.486,20.121,17.5,20,17.5ZM11.5,20H5a1,1,0,0,1,0-2H6.275a1.708,1.708,0,0,1-.025-.25A1.75,1.75,0,1,1,9.222,19H11.5a.5.5,0,0,1,0,1Zm2.476-.262A2.31,2.31,0,0,0,14,19.5a2.493,2.493,0,0,0-2.324-2.482A3.73,3.73,0,0,0,4.9,15.677,7.985,7.985,0,0,1,8.286,4.918a11.962,11.962,0,0,0,7.836,13.929A8.023,8.023,0,0,1,13.976,19.738Z"/></g></svg>