<svg xmlns="http://www.w3.org/2000/svg" width="24" height="24" viewBox="0 0 24 24"><defs><style>.eade7688-a54f-47aa-b077-552edf74434f{fill:none;}</style></defs><g id="bd3e2959-dda1-4433-bdfb-a39cbf212a88" data-name="unknown"><rect class="eade7688-a54f-47aa-b077-552edf74434f" width="24" height="24"/><path d="M12,2A10,10,0,1,0,22,12,10,10,0,0,0,12,2Zm0,18a8,8,0,1,1,8-8A8,8,0,0,1,12,20Z"/><path d="M11,18h2V16H11ZM12,6a4.02,4.02,0,0,0-4,4h2a2,2,0,0,1,4,0c0,2-3,2-3,5h2c0-2,3-2,3-5A4.02,4.02,0,0,0,12,6Z"/></g></svg>