<svg xmlns="http://www.w3.org/2000/svg" width="24" height="24" viewBox="0 0 24 24"><defs><style>.ae5976fb-0678-415c-a3a6-71bf89353100{fill:none;}</style></defs><g id="b12766f7-e7dc-4566-8382-a967b153ece0" data-name="snow"><path class="ae5976fb-0678-415c-a3a6-71bf89353100" d="M0,0H24V24H0Z"/><circle cx="8" cy="16" r="1"/><circle cx="12" cy="16" r="1"/><circle cx="16" cy="16" r="1"/><circle cx="10" cy="20" r="1"/><circle cx="14" cy="20" r="1"/><path d="M19.355,9.036a7.5,7.5,0,0,0-14-2A6,6,0,0,0,6,19V17A4,4,0,0,1,6,9h.712A5.5,5.5,0,0,1,17.5,10.5c0,.169-.01.335-.025.5H19a3,3,0,0,1,0,6H18v2h1a4.988,4.988,0,0,0,.355-9.964Z"/></g></svg>