<svg xmlns="http://www.w3.org/2000/svg" width="24" height="24" viewBox="0 0 24 24"><defs><style>.f9f3f08d-b1b8-4e63-a5d2-1ef3b05e04ce{fill:none;}</style></defs><g id="f6822d96-7bcd-4f94-b15d-2b74e0fe38ca" data-name="cloudy-day"><rect class="f9f3f08d-b1b8-4e63-a5d2-1ef3b05e04ce" width="24" height="24"/><path d="M7.05,5.636,4.929,3.515,3.515,4.929,5.636,7.05ZM13,1H11V4h2Zm7.485,3.929L19.071,3.515,16.95,5.636,18.364,7.05ZM20,11v2h3V11ZM4,11H1v2H4Zm13.158,4.055A5.995,5.995,0,1,0,6.017,11.672,5.641,5.641,0,0,0,5,13.05,4.488,4.488,0,0,0,5.5,22h9.75a3.736,3.736,0,0,0,3.311-2.025l.51.51,1.414-1.414-1.56-1.56A3.71,3.71,0,0,0,17.158,15.055ZM12,8a3.984,3.984,0,0,1,3.392,6.1,5.6,5.6,0,0,0-6.957-3.878A3.985,3.985,0,0,1,12,8Zm3.25,12H5.5a2.5,2.5,0,0,1,0-5h.938a3.62,3.62,0,0,1,7.187.625,3.565,3.565,0,0,1-.119.875H15.25a1.75,1.75,0,0,1,0,3.5Z"/></g></svg>