<svg xmlns="http://www.w3.org/2000/svg" width="24" height="24" viewBox="0 0 24 24"><defs><style>.f1e5c967-e803-4ead-b631-feb2048234c0{fill:none;}</style></defs><g id="f324e83e-514b-4a06-b9fa-60025af2554d" data-name="snow-day"><rect class="f1e5c967-e803-4ead-b631-feb2048234c0" width="24" height="24"/><path d="M14,0H12V3h2Zm7.485,3.929L20.071,2.515,17.95,4.636,19.364,6.05ZM8.05,4.636,5.929,2.515,4.515,3.929,6.636,6.05ZM21,10v2h3V10Zm-3.323,4.753A6,6,0,1,0,7.714,8.161,5.628,5.628,0,0,0,4,11.05,4.488,4.488,0,0,0,4.5,20h9.75A3.75,3.75,0,0,0,18,16.25,3.685,3.685,0,0,0,17.677,14.753ZM14.25,18H4.5a2.5,2.5,0,0,1,0-5h.938a3.62,3.62,0,0,1,7.187.625,3.565,3.565,0,0,1-.119.875H14.25a1.75,1.75,0,0,1,0,3.5Zm2.1-4.829a3.738,3.738,0,0,0-1.836-.644,5.622,5.622,0,0,0-4.311-4.383,3.994,3.994,0,0,1,6.147,5.027Zm1.6,4.193,2.121,2.121,1.414-1.414L19.364,15.95Z"/><rect x="5" y="21" width="2" height="2" rx="1"/><rect x="8" y="22" width="2" height="2" rx="1"/><rect x="11" y="21" width="2" height="2" rx="1"/></g></svg>