<svg xmlns="http://www.w3.org/2000/svg" width="24" height="24" viewBox="0 0 24 24"><defs><style>.faf567f8-57ef-4f98-a88a-676d9650b516{fill:none;}</style></defs><g id="b82f2a8d-67ed-459d-86dc-bbda1ab49043" data-name="cloudy-night"><rect class="faf567f8-57ef-4f98-a88a-676d9650b516" width="24" height="24"/><path d="M20,17.5a10.194,10.194,0,0,1-1.1-.063,3.741,3.741,0,0,0-3.387-2.91,5.612,5.612,0,0,0-5.181-4.5,9.9,9.9,0,0,1,1.306-8.012A9.952,9.952,0,0,0,2.3,14.375,4.424,4.424,0,0,0,1,17.5,4.5,4.5,0,0,0,5.5,22h9.75a3.74,3.74,0,0,0,3.587-2.713,10.119,10.119,0,0,0,1.522-1.8C20.239,17.486,20.121,17.5,20,17.5ZM8.286,4.918a11.868,11.868,0,0,0,.038,5.344A5.636,5.636,0,0,0,5,13.05a4.515,4.515,0,0,0-.9.2A7.915,7.915,0,0,1,8.286,4.918ZM15.25,20H5.5a2.5,2.5,0,0,1,0-5h.938a3.62,3.62,0,0,1,7.187.625,3.565,3.565,0,0,1-.119.875H15.25a1.75,1.75,0,0,1,0,3.5Z"/></g></svg>