<svg xmlns="http://www.w3.org/2000/svg" width="24" height="24" viewBox="0 0 24 24"><defs><style>.f97358b9-ee28-4d88-a7f0-2fea42566447{fill:none;}</style></defs><g id="e10c8e74-d7e1-4cf5-b854-c1f4c903d116" data-name="cloudy-night"><rect class="f97358b9-ee28-4d88-a7f0-2fea42566447" width="24" height="24"/><path d="M12,2.05A9.931,9.931,0,0,0,3.088,13.258,4.482,4.482,0,0,0,4.5,22h9.75a3.707,3.707,0,0,0,1.817-.489A10,10,0,0,0,22.95,13,11,11,0,0,1,12,2.05ZM14.25,20H4.5a2.5,2.5,0,0,1,0-5h.938a3.62,3.62,0,0,1,7.187.625,3.565,3.565,0,0,1-.119.875H14.25a1.75,1.75,0,0,1,0,3.5ZM18,18.214a3.737,3.737,0,0,0-3.481-3.687,5.608,5.608,0,0,0-9.489-2.864A7.987,7.987,0,0,1,10.245,4.5,13.009,13.009,0,0,0,20.5,14.755,8.023,8.023,0,0,1,18,18.214Z"/></g></svg>