<svg xmlns="http://www.w3.org/2000/svg" width="24" height="24" viewBox="0 0 24 24"><defs><style>.b85670dc-2f86-4d77-a036-ed68f5d81870{fill:none;}</style></defs><g id="ea8c24db-559c-4c39-9bdf-ed7704975649" data-name="unknown"><rect class="b85670dc-2f86-4d77-a036-ed68f5d81870" width="24" height="24"/><path d="M12,2A10,10,0,1,0,22,12,10,10,0,0,0,12,2Zm0,18a8,8,0,1,1,8-8A8,8,0,0,1,12,20Z"/><path d="M11,18h2V16H11ZM12,6a4.02,4.02,0,0,0-4,4h2a2,2,0,0,1,4,0c0,2-3,2-3,5h2c0-2,3-2,3-5A4.02,4.02,0,0,0,12,6Z"/></g></svg>