<svg xmlns="http://www.w3.org/2000/svg" width="24" height="24" viewBox="0 0 24 24"><defs><style>.a72b023e-6386-472e-9066-994623d50194{fill:none;}</style></defs><g id="e743e5fc-b013-40d6-9b6c-0b9928153b97" data-name="snow-day"><rect class="a72b023e-6386-472e-9066-994623d50194" width="24" height="24"/><path d="M13,1H11V4h2Zm7.485,3.929L19.071,3.515,16.95,5.636,18.364,7.05ZM17.158,15.055A5.995,5.995,0,1,0,6.017,11.672,5.641,5.641,0,0,0,5,13.05,4.488,4.488,0,0,0,5.5,22H6V20H5.5a2.5,2.5,0,0,1,0-5h.938a3.62,3.62,0,0,1,7.187.625,3.565,3.565,0,0,1-.119.875H15.25a1.75,1.75,0,0,1,0,3.5H14v2h1.25a3.736,3.736,0,0,0,3.311-2.025l.51.51,1.414-1.414-1.56-1.56A3.71,3.71,0,0,0,17.158,15.055ZM15.392,14.1a5.6,5.6,0,0,0-6.957-3.878A3.988,3.988,0,1,1,15.392,14.1ZM7.05,5.636,4.929,3.515,3.515,4.929,5.636,7.05ZM4,11H1v2H4Zm16,0v2h3V11Z"/><circle cx="8" cy="20" r="1"/><circle cx="12" cy="20" r="1"/><circle cx="10" cy="22" r="1"/></g></svg>