<svg xmlns="http://www.w3.org/2000/svg" width="24" height="24" viewBox="0 0 24 24"><defs><style>.e60f8e12-c825-4cfd-ad9c-a3d986b0d200{fill:none;}</style></defs><g id="bd6b1a9e-0268-4aa7-9d74-c57a28fb243c" data-name="unknown"><rect class="e60f8e12-c825-4cfd-ad9c-a3d986b0d200" width="24" height="24"/><path d="M12,2A10,10,0,1,0,22,12,10,10,0,0,0,12,2Zm0,18a8,8,0,1,1,8-8A8,8,0,0,1,12,20Z"/><path d="M11,15h2c0-2,3-2,3-5H14C14,12,11,12,11,15Z"/><rect x="11" y="16" width="2" height="2"/><path d="M12,6a4.02,4.02,0,0,0-4,4h2a2,2,0,0,1,4,0h2A4.02,4.02,0,0,0,12,6Z"/></g></svg>