<svg xmlns="http://www.w3.org/2000/svg" xmlns:xlink="http://www.w3.org/1999/xlink" width="192" height="192" viewBox="0 0 192 192"><defs><style>.a8dbfe1a-655b-4727-89e6-e39571d31ec2{fill:none;}.b6920f7f-e53c-4166-9f9f-a00604e7468b{fill:#eee;}.bf73c3f5-68f8-4298-ba8f-dd49ee6ba5ef{opacity:0.1;}.baa46d6d-9e1d-4a98-9d69-7fa677e4e379{fill:#212121;}.f41513cd-dd08-434d-8643-6eccbb679b39{opacity:0.4;}.b9b03957-da29-476e-8350-7cb48c90a9d0{fill:#fff;}.a64b1144-9959-4c11-b8e4-d400f5f9791e{clip-path:url(#b5aae732-a374-4ac3-b45a-59a9fa73cf06);}.a3b7110e-3589-48b6-8525-de440a2b66f8{fill:url(#bec06d1b-db8b-49ee-88dd-067e3a980c61);}.af3cc8c1-371b-4394-a915-b8ef3d5cc6f9{clip-path:url(#a98f12f7-a5e7-43e2-b170-4083a3f33f21);}.bee6e703-6c94-4e27-9887-1f4873671be6{fill:url(#f7179d39-e096-4039-90ae-baf118ded8aa);}.a7c40354-aabf-4e6d-b7f2-65a0136f1e93{clip-path:url(#a84ce545-c1b5-4865-939f-91a06a3b9042);}.b936108b-03d0-4a1d-a55a-909610660dfd{fill:url(#beed4a27-b251-415d-9bd5-b0750a7661b0);}.e965c7ef-17d3-43b0-87a2-e6c250d31671{clip-path:url(#b0aaa523-2d2a-44f2-840f-9c3dc1793de6);}.aceff841-82ec-4901-b585-321163a96ed3{fill:url(#b4776419-69d0-4ca9-8085-07647335dc8e);}</style><clipPath id="b5aae732-a374-4ac3-b45a-59a9fa73cf06"><path class="a8dbfe1a-655b-4727-89e6-e39571d31ec2" d="M154.817,80.11A60,60,0,0,0,42.788,64.286,48,48,0,0,0,0,112H0a48,48,0,0,0,48,48H152a40,40,0,0,0,40-40h0A39.995,39.995,0,0,0,154.817,80.11Z"/></clipPath><radialGradient id="bec06d1b-db8b-49ee-88dd-067e3a980c61" cx="0" cy="0" r="192" gradientUnits="userSpaceOnUse"><stop offset="0" stop-color="#fff" stop-opacity="0.1"/><stop offset="0.143" stop-color="#c3c3c3" stop-opacity="0.077"/><stop offset="0.609" stop-color="#323232" stop-opacity="0.02"/><stop offset="1" stop-opacity="0"/></radialGradient><clipPath id="a98f12f7-a5e7-43e2-b170-4083a3f33f21"><path class="a8dbfe1a-655b-4727-89e6-e39571d31ec2" d="M472,96a80,80,0,1,0-159.375,9.849A36,36,0,0,0,288,140h0a36,36,0,0,0,36,36h78a29.842,29.842,0,0,0,14.927-3.982A80.017,80.017,0,0,0,472,96Z"/></clipPath><radialGradient id="f7179d39-e096-4039-90ae-baf118ded8aa" cx="288" xlink:href="#bec06d1b-db8b-49ee-88dd-067e3a980c61"/><clipPath id="a84ce545-c1b5-4865-939f-91a06a3b9042"><path class="a8dbfe1a-655b-4727-89e6-e39571d31ec2" d="M96,304A79.995,79.995,0,0,0,25.155,421.155,23.943,23.943,0,0,0,16,440h0a24,24,0,0,0,24,24H92c.451,0,.892-.038,1.335-.067.887.029,1.771.067,2.665.067a80,80,0,0,0,0-160Z"/></clipPath><radialGradient id="beed4a27-b251-415d-9bd5-b0750a7661b0" cy="288" xlink:href="#bec06d1b-db8b-49ee-88dd-067e3a980c61"/><clipPath id="b0aaa523-2d2a-44f2-840f-9c3dc1793de6"><path class="a8dbfe1a-655b-4727-89e6-e39571d31ec2" d="M376.005,304.4a80,80,0,0,0-62.85,116.756A23.943,23.943,0,0,0,304,440h0a24,24,0,0,0,24,24h52c.451,0,.892-.038,1.335-.067.887.029,1.771.067,2.665.067a80.007,80.007,0,0,0,79.6-72A88,88,0,0,1,376.005,304.4Z"/></clipPath><radialGradient id="b4776419-69d0-4ca9-8085-07647335dc8e" cx="288" cy="288" xlink:href="#bec06d1b-db8b-49ee-88dd-067e3a980c61"/></defs><g id="bd6186bc-1f75-4a12-a1c1-0ecaf4b61251" data-name="cloudy"><rect class="a8dbfe1a-655b-4727-89e6-e39571d31ec2" width="192" height="192"/><path class="b6920f7f-e53c-4166-9f9f-a00604e7468b" d="M154.817,80.11A60,60,0,0,0,42.788,64.286,48,48,0,0,0,0,112H0a48,48,0,0,0,48,48H152a40,40,0,0,0,40-40h0A39.995,39.995,0,0,0,154.817,80.11Z"/><g class="bf73c3f5-68f8-4298-ba8f-dd49ee6ba5ef"><path class="baa46d6d-9e1d-4a98-9d69-7fa677e4e379" d="M152,159H48A47.994,47.994,0,0,1,.012,111.483c0,.173-.012.344-.012.517H0a48,48,0,0,0,48,48H152a40,40,0,0,0,40-40h0c0-.171-.01-.34-.012-.511A40,40,0,0,1,152,159Z"/></g><g class="f41513cd-dd08-434d-8643-6eccbb679b39"><path class="b9b03957-da29-476e-8350-7cb48c90a9d0" d="M154.817,80.11A60,60,0,0,0,42.788,64.286,48,48,0,0,0,0,112H0c0,.162.011.321.012.483a48,48,0,0,1,42.776-47.2A60,60,0,0,1,154.817,81.11a39.989,39.989,0,0,1,37.171,39.379c0-.163.012-.325.012-.489h0A39.995,39.995,0,0,0,154.817,80.11Z"/></g><g class="a64b1144-9959-4c11-b8e4-d400f5f9791e"><circle class="a3b7110e-3589-48b6-8525-de440a2b66f8" r="192"/></g></g><g id="acc26c51-025c-4c84-8b7f-3b8711c600d3" data-name="cloudy-day"><g class="af3cc8c1-371b-4394-a915-b8ef3d5cc6f9"><circle class="bee6e703-6c94-4e27-9887-1f4873671be6" cx="288" r="192"/></g></g><g id="b4d57aae-4fd6-41a2-97d7-18fcfe5706e1" data-name="partly-cloudy-day"><g class="a7c40354-aabf-4e6d-b7f2-65a0136f1e93"><circle class="b936108b-03d0-4a1d-a55a-909610660dfd" cy="288" r="192"/></g></g><g id="a8240e2e-8240-4e16-8598-e71943357b22" data-name="partly-cloudy-night"><g class="e965c7ef-17d3-43b0-87a2-e6c250d31671"><circle class="aceff841-82ec-4901-b585-321163a96ed3" cx="288" cy="288" r="192"/></g></g></svg>