<svg xmlns="http://www.w3.org/2000/svg" xmlns:xlink="http://www.w3.org/1999/xlink" width="192" height="192" viewBox="0 0 192 192"><defs><style>.f192bc82-90b7-4b6e-9596-196024f16150{fill:none;}.bd959392-487c-4aff-9ce9-0908058a8683{fill:#7e57c2;}.e323642a-daef-4587-8cbe-1793badfa30c{opacity:0.2;}.fffb363b-8602-4453-9d3f-c6f08d04a09b{fill:#1a237e;}.fa419bde-767f-401e-8248-e3497b9d3cc9{fill:#fff;}.ad002b1e-686f-4ddf-beef-aa5420e31a9d{clip-path:url(#a022f413-1509-4f48-8492-8cf648924053);}.b0496938-1bdd-4fc2-945b-c0c0998111ad{fill:url(#a9ca75b2-09ba-4eae-b9c7-479078ed5729);}.e02eb6fb-946a-4a6d-a676-6401a3406e79{clip-path:url(#a51a7b7c-6bb7-4bae-8580-16d7462d72a1);}.b6e045dd-7755-4944-9bc0-4eb5596670ef{fill:url(#a29f9574-5842-463f-a636-8a1f779c9685);}.e1b722dc-5fda-4058-b350-122d6f71d0d3{clip-path:url(#f23f48cd-6a71-4cb1-a6b8-92e46f3b2000);}.a21ace01-f4a2-41a1-acf0-0d27511766f6{fill:url(#a3aff260-b7b4-4740-a2a4-f6fc0d1fa1f4);}.ac83bb4f-278a-4e2b-bb3c-c6be13be6fc2{clip-path:url(#b06e2c6a-d818-42ce-b09a-b80385322e94);}.aff5225a-4885-4bea-8674-612a9a1cced0{fill:url(#b493da7c-b718-4233-8bd6-f0c4c277ed7c);}</style><clipPath id="a022f413-1509-4f48-8492-8cf648924053"><path class="f192bc82-90b7-4b6e-9596-196024f16150" d="M88.005,16.4A80,80,0,1,0,175.6,104,88,88,0,0,1,88.005,16.4Z"/></clipPath><radialGradient id="a9ca75b2-09ba-4eae-b9c7-479078ed5729" cx="0" cy="0" r="192" gradientUnits="userSpaceOnUse"><stop offset="0" stop-color="#fff" stop-opacity="0.1"/><stop offset="0.143" stop-color="#c3c3c3" stop-opacity="0.077"/><stop offset="0.609" stop-color="#323232" stop-opacity="0.02"/><stop offset="1" stop-opacity="0"/></radialGradient><clipPath id="a51a7b7c-6bb7-4bae-8580-16d7462d72a1"><path class="f192bc82-90b7-4b6e-9596-196024f16150" d="M442.817,80.11A60,60,0,0,0,330.788,64.286,48,48,0,0,0,288,112h0a48,48,0,0,0,48,48H440a40,40,0,0,0,40-40h0A39.995,39.995,0,0,0,442.817,80.11Z"/></clipPath><radialGradient id="a29f9574-5842-463f-a636-8a1f779c9685" cx="288" xlink:href="#a9ca75b2-09ba-4eae-b9c7-479078ed5729"/><clipPath id="f23f48cd-6a71-4cb1-a6b8-92e46f3b2000"><path class="f192bc82-90b7-4b6e-9596-196024f16150" d="M175.6,392a88,88,0,0,1-87.6-87.6A79.988,79.988,0,0,0,24.817,420.5,7.986,7.986,0,0,0,32,432a80.479,80.479,0,0,0,16,16,8,8,0,0,0,0,16h96a8,8,0,0,0,0-16h-.008a80.428,80.428,0,0,0,16-16H160a7.986,7.986,0,0,0,7.191-11.488A79.483,79.483,0,0,0,175.6,392Z"/></clipPath><radialGradient id="a3aff260-b7b4-4740-a2a4-f6fc0d1fa1f4" cy="288" xlink:href="#a9ca75b2-09ba-4eae-b9c7-479078ed5729"/><clipPath id="b06e2c6a-d818-42ce-b09a-b80385322e94"><path class="f192bc82-90b7-4b6e-9596-196024f16150" d="M384,304a79.995,79.995,0,0,0-70.845,117.155A23.943,23.943,0,0,0,304,440h0a24,24,0,0,0,24,24h52c.451,0,.892-.038,1.335-.067.887.029,1.771.067,2.665.067a80,80,0,0,0,0-160Z"/></clipPath><radialGradient id="b493da7c-b718-4233-8bd6-f0c4c277ed7c" cx="288" cy="288" xlink:href="#a9ca75b2-09ba-4eae-b9c7-479078ed5729"/></defs><g id="a974c2b4-bc4f-4a7d-9857-fcef5d355685" data-name="clear-night"><rect class="f192bc82-90b7-4b6e-9596-196024f16150" width="192" height="192"/><path class="bd959392-487c-4aff-9ce9-0908058a8683" d="M88.005,16.4A80,80,0,1,0,175.6,104,88,88,0,0,1,88.005,16.4Z"/><g class="e323642a-daef-4587-8cbe-1793badfa30c"><path class="fffb363b-8602-4453-9d3f-c6f08d04a09b" d="M96,175A79.994,79.994,0,0,1,16.012,95.484c0,.173-.012.343-.012.516a80,80,0,0,0,159.6,8l-.123,0A80,80,0,0,1,96,175Z"/></g><g class="e323642a-daef-4587-8cbe-1793badfa30c"><path class="fa419bde-767f-401e-8248-e3497b9d3cc9" d="M88.005,17.4a87.994,87.994,0,0,0,87.473,87.594c.037-.334.09-.663.123-1a88,88,0,0,1-87.6-87.6A80.007,80.007,0,0,0,16,96c0,.162.011.322.012.484A80,80,0,0,1,88.005,17.4Z"/></g><g class="ad002b1e-686f-4ddf-beef-aa5420e31a9d"><circle class="b0496938-1bdd-4fc2-945b-c0c0998111ad" r="192"/></g></g><g id="f278bced-58d5-498b-9c32-cb071e54b899" data-name="cloudy"><g class="e02eb6fb-946a-4a6d-a676-6401a3406e79"><circle class="b6e045dd-7755-4944-9bc0-4eb5596670ef" cx="288" r="192"/></g></g><g id="a59221cf-194d-438d-879a-7d871db4b671" data-name="fog-night"><g class="e1b722dc-5fda-4058-b350-122d6f71d0d3"><circle class="a21ace01-f4a2-41a1-acf0-0d27511766f6" cy="288" r="192"/></g></g><g id="ee1f0604-4c66-4433-a323-a9463aa07e5f" data-name="partly-cloudy-day"><g class="ac83bb4f-278a-4e2b-bb3c-c6be13be6fc2"><circle class="aff5225a-4885-4bea-8674-612a9a1cced0" cx="288" cy="288" r="192"/></g></g></svg>