<svg xmlns="http://www.w3.org/2000/svg" xmlns:xlink="http://www.w3.org/1999/xlink" width="192" height="192" viewBox="0 0 192 192"><defs><style>.b6a84e7e-c8d6-4b32-9c1f-f4ec3775464a{fill:none;}.ab4ab074-7dc6-47b9-b306-a7f99fd9aca6{fill:#fdd835;}.f7658526-e6c0-4f3b-bd08-857e6b90397e{opacity:0.2;}.bd8a9820-80d3-4209-8e8b-c995c8167dbe{fill:#bf360c;}.be7c23fd-ad3b-459e-b33a-66f3d9818d09{fill:#fff;}.b45bf3d0-3e61-40b1-8fdd-16dd3accc07c{clip-path:url(#ab5291fb-84b0-4900-a4c3-4dc8f743e78d);}.b343e481-5f9b-4355-9657-ff53f66793ad{fill:url(#bb8f3f99-04b5-4caf-8d38-9436392c8235);}.acb6a1aa-9c20-40a5-baa2-f62f291b586b{clip-path:url(#e520bd6f-3551-4bf5-b9cf-1a3ff0de2ccb);}.aab7faa2-f565-4a58-9cfd-5bb7f78c889b{fill:url(#a17815f7-20f2-45ab-ab67-83341144b19f);}.f9fbc226-eb86-4af6-99e1-a8bb21407879{clip-path:url(#afd0c062-6e0d-41f4-9808-f78ae6973eeb);}.f2e3762f-a3ce-4fdd-aaae-05d9e0ceaffb{fill:url(#b24c4921-a8bd-4155-bb2a-0b91060a305d);}.bec002a8-efab-440f-8052-3a1dd21488c3{clip-path:url(#e3ed6aac-90c1-46fd-a425-ac9004574001);}.a7da7288-8977-4b3c-9bee-bfc20bf25f05{fill:url(#aaf5da5c-9eab-46a2-88a1-68702b1c2011);}</style><clipPath id="ab5291fb-84b0-4900-a4c3-4dc8f743e78d"><circle class="b6a84e7e-c8d6-4b32-9c1f-f4ec3775464a" cx="96" cy="96" r="80"/></clipPath><radialGradient id="bb8f3f99-04b5-4caf-8d38-9436392c8235" cx="0" cy="0" r="192" gradientUnits="userSpaceOnUse"><stop offset="0" stop-color="#fff" stop-opacity="0.1"/><stop offset="0.143" stop-color="#c3c3c3" stop-opacity="0.077"/><stop offset="0.609" stop-color="#323232" stop-opacity="0.02"/><stop offset="1" stop-opacity="0"/></radialGradient><clipPath id="e520bd6f-3551-4bf5-b9cf-1a3ff0de2ccb"><path class="b6a84e7e-c8d6-4b32-9c1f-f4ec3775464a" d="M376.005,16.4A80,80,0,1,0,463.6,104,88,88,0,0,1,376.005,16.4Z"/></clipPath><radialGradient id="a17815f7-20f2-45ab-ab67-83341144b19f" cx="288" xlink:href="#bb8f3f99-04b5-4caf-8d38-9436392c8235"/><clipPath id="afd0c062-6e0d-41f4-9808-f78ae6973eeb"><path class="b6a84e7e-c8d6-4b32-9c1f-f4ec3775464a" d="M176,384A80,80,0,1,0,24.817,420.5,7.986,7.986,0,0,0,32,432a80.479,80.479,0,0,0,16,16,8,8,0,0,0,0,16h96a8,8,0,0,0,0-16,80.479,80.479,0,0,0,16-16,7.986,7.986,0,0,0,7.182-11.5A79.623,79.623,0,0,0,176,384Z"/></clipPath><radialGradient id="b24c4921-a8bd-4155-bb2a-0b91060a305d" cy="288" xlink:href="#bb8f3f99-04b5-4caf-8d38-9436392c8235"/><clipPath id="e3ed6aac-90c1-46fd-a425-ac9004574001"><path class="b6a84e7e-c8d6-4b32-9c1f-f4ec3775464a" d="M463.6,392a88,88,0,0,1-87.6-87.6,79.988,79.988,0,0,0-63.188,116.1A7.986,7.986,0,0,0,320,432a80.479,80.479,0,0,0,16,16,8,8,0,0,0,0,16h96a8,8,0,0,0,0-16h-.008a80.428,80.428,0,0,0,16-16H448a7.986,7.986,0,0,0,7.191-11.488A79.483,79.483,0,0,0,463.6,392Z"/></clipPath><radialGradient id="aaf5da5c-9eab-46a2-88a1-68702b1c2011" cx="288" cy="288" xlink:href="#bb8f3f99-04b5-4caf-8d38-9436392c8235"/></defs><g id="aff73447-4597-4535-9007-45f56b08e26c" data-name="clear-day"><rect class="b6a84e7e-c8d6-4b32-9c1f-f4ec3775464a" width="192" height="192"/><circle class="ab4ab074-7dc6-47b9-b306-a7f99fd9aca6" cx="96" cy="96" r="80"/><g class="f7658526-e6c0-4f3b-bd08-857e6b90397e"><path class="bd8a9820-80d3-4209-8e8b-c995c8167dbe" d="M96,175A79.993,79.993,0,0,1,16.013,95.5c0,.167-.013.332-.013.5a80,80,0,0,0,160,0c0-.168-.012-.333-.013-.5A79.993,79.993,0,0,1,96,175Z"/></g><g class="f7658526-e6c0-4f3b-bd08-857e6b90397e"><path class="be7c23fd-ad3b-459e-b33a-66f3d9818d09" d="M96,17a79.993,79.993,0,0,1,79.987,79.5c0-.167.013-.332.013-.5A80,80,0,0,0,16,96c0,.168.012.333.013.5A79.993,79.993,0,0,1,96,17Z"/></g><g class="b45bf3d0-3e61-40b1-8fdd-16dd3accc07c"><circle class="b343e481-5f9b-4355-9657-ff53f66793ad" r="192"/></g></g><g id="ad63a520-3ec4-4578-baa0-f8441bb62bd7" data-name="clear-night"><g class="acb6a1aa-9c20-40a5-baa2-f62f291b586b"><circle class="aab7faa2-f565-4a58-9cfd-5bb7f78c889b" cx="288" r="192"/></g></g><g id="ab093548-1a02-4bba-b845-8b9dfbe154da" data-name="fog-day"><g class="f9fbc226-eb86-4af6-99e1-a8bb21407879"><circle class="f2e3762f-a3ce-4fdd-aaae-05d9e0ceaffb" cy="288" r="192"/></g></g><g id="b1ecdc08-6f11-4858-a1a6-55e1fd5a9f1e" data-name="fog-night"><g class="bec002a8-efab-440f-8052-3a1dd21488c3"><circle class="a7da7288-8977-4b3c-9bee-bfc20bf25f05" cx="288" cy="288" r="192"/></g></g></svg>