<svg xmlns="http://www.w3.org/2000/svg" xmlns:xlink="http://www.w3.org/1999/xlink" width="192" height="192" viewBox="0 0 192 192"><defs><style>.a19f80b4-890e-4ef2-b12a-3f558e29b49c,.b382118d-d4cd-42c7-8770-be5d796b658d,.f32df2b7-864f-4550-a395-0bbe079a434f,.f915fb23-dd2d-479d-80ab-877643857b0f,.f9edc158-8dc6-44fe-b179-c8b9b07b116e{fill:none;}.f9edc158-8dc6-44fe-b179-c8b9b07b116e{clip-path:url(#b9e6aeb8-9b2e-46f8-83d7-69b043f920cd);}.b382118d-d4cd-42c7-8770-be5d796b658d{clip-path:url(#a27c66ef-b6bc-407f-a45e-91520c3968dd);}.f32df2b7-864f-4550-a395-0bbe079a434f{clip-path:url(#fc31cee3-f283-4f02-b108-11550f1dd746);}.a19f80b4-890e-4ef2-b12a-3f558e29b49c{clip-path:url(#a99e8846-b5c6-447e-9a31-3a775eed4fad);}.b3b4696c-aa57-4e89-9036-686dcfed172b{fill:#eee;}.fc4d951d-a1eb-492d-8870-cbee587f5e2b{opacity:0.1;}.af272b6e-2aad-4e91-be1d-053de12416c3{fill:#212121;}.a5a0b9b0-9d43-46fc-b1db-a061285e4f08{opacity:0.4;}.ff02ccb6-9210-4cf1-85e9-38e18de6a959{fill:#fff;}.e6e371e1-84a8-44f0-812d-ff6408c27952{clip-path:url(#b522c5cc-8308-4a42-adcf-4ace349ab0f9);}.ab439c57-868e-4326-ad29-78b4dc597059{fill:url(#ad65957b-6b4a-4c05-aece-90c7de2668ff);}.a03d5aad-ce2c-466e-bb8c-40602fc8b9c7{clip-path:url(#eee510df-8921-45d6-9b1b-7bb7e1653562);}.bb1063a0-5290-4d3a-9310-d534ed881270{fill:url(#eb895b57-39b3-4db8-83e3-d5b8f948c8bb);}</style><clipPath id="b9e6aeb8-9b2e-46f8-83d7-69b043f920cd"><rect class="f915fb23-dd2d-479d-80ab-877643857b0f" x="16" y="40" width="96" height="16" rx="8"/></clipPath><clipPath id="a27c66ef-b6bc-407f-a45e-91520c3968dd"><rect class="f9edc158-8dc6-44fe-b179-c8b9b07b116e" x="96" y="72" width="80" height="16" rx="8"/></clipPath><clipPath id="fc31cee3-f283-4f02-b108-11550f1dd746"><rect class="b382118d-d4cd-42c7-8770-be5d796b658d" x="40" y="72" width="40" height="16" rx="8"/></clipPath><clipPath id="a99e8846-b5c6-447e-9a31-3a775eed4fad"><rect class="f32df2b7-864f-4550-a395-0bbe079a434f" x="24" y="104" width="112" height="16" rx="8"/></clipPath><clipPath id="b522c5cc-8308-4a42-adcf-4ace349ab0f9"><rect class="a19f80b4-890e-4ef2-b12a-3f558e29b49c" x="56" y="136" width="104" height="16" rx="8"/></clipPath><radialGradient id="ad65957b-6b4a-4c05-aece-90c7de2668ff" cx="0" cy="0" r="192" gradientUnits="userSpaceOnUse"><stop offset="0" stop-color="#fff" stop-opacity="0.1"/><stop offset="0.143" stop-color="#c3c3c3" stop-opacity="0.077"/><stop offset="0.609" stop-color="#323232" stop-opacity="0.02"/><stop offset="1" stop-opacity="0"/></radialGradient><clipPath id="eee510df-8921-45d6-9b1b-7bb7e1653562"><path class="f915fb23-dd2d-479d-80ab-877643857b0f" d="M104,288a79.876,79.876,0,0,0-79.375,89.849A36,36,0,0,0,0,412H0a36,36,0,0,0,36,36h78a29.842,29.842,0,0,0,14.927-3.982A80,80,0,0,0,104,288ZM72,456a8,8,0,0,0-8,8v8a8,8,0,0,0,16,0v-8A8,8,0,0,0,72,456Zm-24,0a8,8,0,0,0-8,8v8a8,8,0,0,0,16,0v-8A8,8,0,0,0,48,456Zm48,0a8,8,0,0,0-8,8v8a8,8,0,0,0,16,0v-8A8,8,0,0,0,96,456Z"/></clipPath><radialGradient id="eb895b57-39b3-4db8-83e3-d5b8f948c8bb" cy="288" xlink:href="#ad65957b-6b4a-4c05-aece-90c7de2668ff"/></defs><g id="a8e2a002-1d68-4c5b-9922-797b3a36e000" data-name="fog"><rect class="f915fb23-dd2d-479d-80ab-877643857b0f" width="192" height="192"/><rect class="b3b4696c-aa57-4e89-9036-686dcfed172b" x="16" y="40" width="96" height="16" rx="8"/><rect class="b3b4696c-aa57-4e89-9036-686dcfed172b" x="96" y="72" width="80" height="16" rx="8"/><rect class="b3b4696c-aa57-4e89-9036-686dcfed172b" x="40" y="72" width="40" height="16" rx="8"/><rect class="b3b4696c-aa57-4e89-9036-686dcfed172b" x="24" y="104" width="112" height="16" rx="8"/><rect class="b3b4696c-aa57-4e89-9036-686dcfed172b" x="56" y="136" width="104" height="16" rx="8"/><g class="fc4d951d-a1eb-492d-8870-cbee587f5e2b"><path class="af272b6e-2aad-4e91-be1d-053de12416c3" d="M72,87H48a8,8,0,0,1-7.975-7.5c-.01.166-.025.331-.025.5a8,8,0,0,0,8,8H72a8,8,0,0,0,8-8c0-.169-.015-.334-.025-.5A8,8,0,0,1,72,87Zm103.975-7.5A8,8,0,0,1,168,87H104a8,8,0,0,1-7.975-7.5c-.01.166-.025.331-.025.5a8,8,0,0,0,8,8h64a8,8,0,0,0,8-8C176,79.831,175.985,79.666,175.975,79.5ZM104,56a8,8,0,0,0,8-8c0-.169-.015-.334-.025-.5A8,8,0,0,1,104,55H24a8,8,0,0,1-7.975-7.5c-.01.166-.025.331-.025.5a8,8,0,0,0,8,8Zm32,56c0-.169-.015-.334-.025-.5A8,8,0,0,1,128,119H32a8,8,0,0,1-7.975-7.5c-.01.166-.025.331-.025.5a8,8,0,0,0,8,8h96A8,8,0,0,0,136,112Zm16,39H64a8,8,0,0,1-7.975-7.5c-.01.166-.025.331-.025.5a8,8,0,0,0,8,8h88a8,8,0,0,0,8-8c0-.169-.015-.334-.025-.5A8,8,0,0,1,152,151Z"/></g><g class="a5a0b9b0-9d43-46fc-b1db-a061285e4f08"><path class="ff02ccb6-9210-4cf1-85e9-38e18de6a959" d="M168,72H104a8,8,0,0,0-8,8c0,.169.015.334.025.5A8,8,0,0,1,104,73h64a8,8,0,0,1,7.975,7.5c.01-.166.025-.331.025-.5A8,8,0,0,0,168,72Zm-32.025,40.5c.01-.166.025-.331.025-.5a8,8,0,0,0-8-8H32a8,8,0,0,0-8,8c0,.169.015.334.025.5A8,8,0,0,1,32,105h96A8,8,0,0,1,135.975,112.5ZM104,41a8,8,0,0,1,7.975,7.5c.01-.166.025-.331.025-.5a8,8,0,0,0-8-8H24a8,8,0,0,0-8,8c0,.169.015.334.025.5A8,8,0,0,1,24,41Zm48,95H64a8,8,0,0,0-8,8c0,.169.015.334.025.5A8,8,0,0,1,64,137h88a8,8,0,0,1,7.975,7.5c.01-.166.025-.331.025-.5A8,8,0,0,0,152,136ZM48,72a8,8,0,0,0-8,8c0,.169.015.334.025.5A8,8,0,0,1,48,73H72a8,8,0,0,1,7.975,7.5c.01-.166.025-.331.025-.5a8,8,0,0,0-8-8Z"/></g><g class="e6e371e1-84a8-44f0-812d-ff6408c27952"><circle class="ab439c57-868e-4326-ad29-78b4dc597059" r="192"/></g></g><g id="ebb151b9-d2cb-443d-8240-cd3d258a91d4" data-name="rain-day"><g class="a03d5aad-ce2c-466e-bb8c-40602fc8b9c7"><circle class="bb1063a0-5290-4d3a-9310-d534ed881270" cy="288" r="192"/></g></g></svg>