<svg xmlns="http://www.w3.org/2000/svg" xmlns:xlink="http://www.w3.org/1999/xlink" width="192" height="192" viewBox="0 0 192 192"><defs><style>.b4b5e9a7-0ef1-4f25-8e2f-9489cdc6b279{fill:none;}.b1edd275-d68f-4437-8524-edd637dc645b{fill:#eee;}.a33f6b66-337c-4506-a69d-3759e48123d5{opacity:0.1;}.b8ecc891-e9cd-42a8-9821-ed3818510d8f{fill:#212121;}.fba8273e-931d-41ca-ad9a-1b9aee5ffe6d{opacity:0.4;}.bfbaf499-e355-4741-aebd-f63ae36baec0{fill:#fff;}.fb5d4dcc-cbd6-4469-b451-8e719b308d42{clip-path:url(#f7f54bc1-7838-4563-a086-3830c811051e);}.ac226c90-706d-40be-9aa2-6fa752418537{fill:url(#a639f2b4-82bb-48de-9ba4-e345e39608e8);}.e869bea5-6fa2-4354-b5b8-2748884034d2{clip-path:url(#b8958b04-0d66-4011-8efb-33d0135f6501);}.b13a28d8-23cf-4236-8f7c-65947a7459bb{fill:url(#a692ade5-0f93-4633-a149-0b5390d8fd88);}.adf43add-38e8-427c-9c86-b91519498e88{clip-path:url(#edf5db5a-9db2-4d0c-830b-63abfd9483ae);}.eb86f3d0-484a-4b2b-b4c4-4a8fb95eda2b{fill:url(#fccad896-0ed0-4887-9040-f9e09f04c6b7);}.eef62434-29c7-4cee-a71e-3f8c02dbb14d{clip-path:url(#f15764d4-0787-4aac-946d-84699f45a8b1);}.f0b3d0d2-d8b4-4eb9-acf3-ecd0374bb918{fill:url(#b7779703-5342-42a9-9c93-cd53a8685d6c);}</style><clipPath id="f7f54bc1-7838-4563-a086-3830c811051e"><path class="b4b5e9a7-0ef1-4f25-8e2f-9489cdc6b279" d="M154.817,80.11A60,60,0,0,0,42.788,64.286,48,48,0,0,0,0,112H0a48,48,0,0,0,48,48H152a40,40,0,0,0,40-40h0A39.995,39.995,0,0,0,154.817,80.11Z"/></clipPath><radialGradient id="a639f2b4-82bb-48de-9ba4-e345e39608e8" cx="0" cy="0" r="192" gradientUnits="userSpaceOnUse"><stop offset="0" stop-color="#fff" stop-opacity="0.1"/><stop offset="0.143" stop-color="#c3c3c3" stop-opacity="0.077"/><stop offset="0.609" stop-color="#323232" stop-opacity="0.02"/><stop offset="1" stop-opacity="0"/></radialGradient><clipPath id="b8958b04-0d66-4011-8efb-33d0135f6501"><path class="b4b5e9a7-0ef1-4f25-8e2f-9489cdc6b279" d="M472,96a80,80,0,1,0-159.375,9.849A36,36,0,0,0,288,140h0a36,36,0,0,0,36,36h78a29.842,29.842,0,0,0,14.927-3.982A80.017,80.017,0,0,0,472,96Z"/></clipPath><radialGradient id="a692ade5-0f93-4633-a149-0b5390d8fd88" cx="288" xlink:href="#a639f2b4-82bb-48de-9ba4-e345e39608e8"/><clipPath id="edf5db5a-9db2-4d0c-830b-63abfd9483ae"><path class="b4b5e9a7-0ef1-4f25-8e2f-9489cdc6b279" d="M96,304A79.995,79.995,0,0,0,25.155,421.155,23.943,23.943,0,0,0,16,440h0a24,24,0,0,0,24,24H92c.451,0,.892-.038,1.335-.067.887.029,1.771.067,2.665.067a80,80,0,0,0,0-160Z"/></clipPath><radialGradient id="fccad896-0ed0-4887-9040-f9e09f04c6b7" cy="288" xlink:href="#a639f2b4-82bb-48de-9ba4-e345e39608e8"/><clipPath id="f15764d4-0787-4aac-946d-84699f45a8b1"><path class="b4b5e9a7-0ef1-4f25-8e2f-9489cdc6b279" d="M376.005,304.4a80,80,0,0,0-62.85,116.756A23.943,23.943,0,0,0,304,440h0a24,24,0,0,0,24,24h52c.451,0,.892-.038,1.335-.067.887.029,1.771.067,2.665.067a80.007,80.007,0,0,0,79.6-72A88,88,0,0,1,376.005,304.4Z"/></clipPath><radialGradient id="b7779703-5342-42a9-9c93-cd53a8685d6c" cx="288" cy="288" xlink:href="#a639f2b4-82bb-48de-9ba4-e345e39608e8"/></defs><g id="a44ef1c8-6c1c-428b-9543-cac75832728a" data-name="cloudy"><rect class="b4b5e9a7-0ef1-4f25-8e2f-9489cdc6b279" width="192" height="192"/><path class="b1edd275-d68f-4437-8524-edd637dc645b" d="M154.817,80.11A60,60,0,0,0,42.788,64.286,48,48,0,0,0,0,112H0a48,48,0,0,0,48,48H152a40,40,0,0,0,40-40h0A39.995,39.995,0,0,0,154.817,80.11Z"/><g class="a33f6b66-337c-4506-a69d-3759e48123d5"><path class="b8ecc891-e9cd-42a8-9821-ed3818510d8f" d="M152,159H48A47.994,47.994,0,0,1,.012,111.483c0,.173-.012.344-.012.517H0a48,48,0,0,0,48,48H152a40,40,0,0,0,40-40h0c0-.171-.01-.34-.012-.511A40,40,0,0,1,152,159Z"/></g><g class="fba8273e-931d-41ca-ad9a-1b9aee5ffe6d"><path class="bfbaf499-e355-4741-aebd-f63ae36baec0" d="M154.817,80.11A60,60,0,0,0,42.788,64.286,48,48,0,0,0,0,112H0c0,.162.011.321.012.483a48,48,0,0,1,42.776-47.2A60,60,0,0,1,154.817,81.11a39.989,39.989,0,0,1,37.171,39.379c0-.163.012-.325.012-.489h0A39.995,39.995,0,0,0,154.817,80.11Z"/></g><g class="fb5d4dcc-cbd6-4469-b451-8e719b308d42"><circle class="ac226c90-706d-40be-9aa2-6fa752418537" r="192"/></g></g><g id="fb30a90e-1356-4206-843b-cf67552aff40" data-name="cloudy-day"><g class="e869bea5-6fa2-4354-b5b8-2748884034d2"><circle class="b13a28d8-23cf-4236-8f7c-65947a7459bb" cx="288" r="192"/></g></g><g id="f0b5d0c5-3efe-4889-aae5-d371c02ea186" data-name="partly-cloudy-day"><g class="adf43add-38e8-427c-9c86-b91519498e88"><circle class="eb86f3d0-484a-4b2b-b4c4-4a8fb95eda2b" cy="288" r="192"/></g></g><g id="a76ba5c1-8c85-44e2-8a69-74626a4e2bb7" data-name="partly-cloudy-night"><g class="eef62434-29c7-4cee-a71e-3f8c02dbb14d"><circle class="f0b3d0d2-d8b4-4eb9-acf3-ecd0374bb918" cx="288" cy="288" r="192"/></g></g></svg>