<svg xmlns="http://www.w3.org/2000/svg" xmlns:xlink="http://www.w3.org/1999/xlink" width="192" height="192" viewBox="0 0 192 192"><defs><style>.aad16de5-c1eb-48ea-9553-862ae404c0c3,.f2a8a0a5-f22d-40ba-a0d6-687870ba9b7c{fill:none;}.aad16de5-c1eb-48ea-9553-862ae404c0c3{clip-path:url(#aeece3a4-bbbe-482d-9abd-5bf61d0feca1);}.e2b980c0-4573-4141-8b3b-e1a2bec7ee46{fill:#eee;}.afd7cf5a-484e-4007-b251-6bf4f6a4f9b6{opacity:0.1;}.e808b14c-73d7-4744-9a44-2de341e37074{fill:#212121;}.ec039f93-c4f6-4acb-8d6f-5dcb704e7c58{opacity:0.4;}.e140c994-0933-48cc-8887-f014a5258504{fill:#fff;}.ee63a03c-6c52-4b6b-bae4-6b9f5b62f739{fill:#fafafa;}.b90ff2c1-e555-4d1e-b212-608054fa1a16{clip-path:url(#b244a058-c04c-49b8-90a3-c53ba000b23c);}.a77a2069-9730-4ae4-b2c8-cf72dfd5ce84{fill:url(#e7aba0e7-aca2-4b0f-a181-8b5d1cc0b4ca);}.be774dec-3b3d-4a4a-b0f9-169267c04658{clip-path:url(#bdeeb8e5-998d-454a-9071-0fb6d87b8c72);}.fa55ed47-69e8-4668-afe7-1d25edfcb9d8{fill:url(#e0231ab8-d388-4a6e-8059-14fa9732d9a8);}.bba48cfe-3ce2-4004-a2e3-4e639d2bc26e{clip-path:url(#edbb061a-a9e1-423c-9792-08e35031f4be);}.b8f43c3a-3724-47c1-b031-587264e5d8a3{fill:url(#f60f9bc3-c22c-41e6-901a-ed349a12dfd7);}.aed455a1-fb98-4936-bc16-31c4ec56d208{clip-path:url(#b2586301-0722-4db9-98c9-2df765cdfe62);}.f17e3c13-c4ae-4a93-95ec-92f03bf35984{fill:url(#a95c2603-433d-493e-be0e-c982988109ca);}</style><clipPath id="aeece3a4-bbbe-482d-9abd-5bf61d0feca1"><path class="f2a8a0a5-f22d-40ba-a0d6-687870ba9b7c" d="M392,400H312v16h80a8,8,0,1,1-8,8H368a24,24,0,1,0,24-24Z"/></clipPath><clipPath id="b244a058-c04c-49b8-90a3-c53ba000b23c"><path class="f2a8a0a5-f22d-40ba-a0d6-687870ba9b7c" d="M154.817,64.11A60,60,0,0,0,42.788,48.286,48,48,0,0,0,0,96H0a48,48,0,0,0,48,48H152a40,40,0,0,0,40-40h0A39.994,39.994,0,0,0,154.817,64.11ZM72,152a8,8,0,1,0,8,8A8,8,0,0,0,72,152Zm24,8a8,8,0,1,0,8,8A8,8,0,0,0,96,160Zm24-8a8,8,0,1,0,8,8A8,8,0,0,0,120,152Z"/></clipPath><radialGradient id="e7aba0e7-aca2-4b0f-a181-8b5d1cc0b4ca" cx="8" cy="0" r="192" gradientUnits="userSpaceOnUse"><stop offset="0" stop-color="#fff" stop-opacity="0.1"/><stop offset="0.143" stop-color="#c3c3c3" stop-opacity="0.077"/><stop offset="0.609" stop-color="#323232" stop-opacity="0.02"/><stop offset="1" stop-opacity="0"/></radialGradient><clipPath id="bdeeb8e5-998d-454a-9071-0fb6d87b8c72"><path class="f2a8a0a5-f22d-40ba-a0d6-687870ba9b7c" d="M392,0a79.876,79.876,0,0,0-79.375,89.849A36,36,0,0,0,288,124h0a36,36,0,0,0,36,36h78a29.842,29.842,0,0,0,14.927-3.982A80,80,0,0,0,392,0ZM360,176a8,8,0,1,0,8,8A8,8,0,0,0,360,176Zm-24-8a8,8,0,1,0,8,8A8,8,0,0,0,336,168Zm48,0a8,8,0,1,0,8,8A8,8,0,0,0,384,168Z"/></clipPath><radialGradient id="e0231ab8-d388-4a6e-8059-14fa9732d9a8" cx="288" xlink:href="#e7aba0e7-aca2-4b0f-a181-8b5d1cc0b4ca"/><clipPath id="edbb061a-a9e1-423c-9792-08e35031f4be"><circle class="f2a8a0a5-f22d-40ba-a0d6-687870ba9b7c" cx="96" cy="384" r="80"/></clipPath><radialGradient id="f60f9bc3-c22c-41e6-901a-ed349a12dfd7" cx="0" cy="288" xlink:href="#e7aba0e7-aca2-4b0f-a181-8b5d1cc0b4ca"/><clipPath id="b2586301-0722-4db9-98c9-2df765cdfe62"><path class="aad16de5-c1eb-48ea-9553-862ae404c0c3" d="M424,320v16a16,16,0,0,1,0,32H312v16H424a32,32,0,0,0,0-64Z"/></clipPath><radialGradient id="a95c2603-433d-493e-be0e-c982988109ca" cx="288" cy="288" xlink:href="#e7aba0e7-aca2-4b0f-a181-8b5d1cc0b4ca"/></defs><g id="eb3a9c98-03c4-44d1-9e48-fa900772594b" data-name="snow"><rect class="f2a8a0a5-f22d-40ba-a0d6-687870ba9b7c" width="192" height="192"/><path class="e2b980c0-4573-4141-8b3b-e1a2bec7ee46" d="M154.817,64.11A60,60,0,0,0,42.788,48.286,48,48,0,0,0,0,96H0a48,48,0,0,0,48,48H152a40,40,0,0,0,40-40h0A39.994,39.994,0,0,0,154.817,64.11Z"/><g class="afd7cf5a-484e-4007-b251-6bf4f6a4f9b6"><path class="e808b14c-73d7-4744-9a44-2de341e37074" d="M152,143H48A47.994,47.994,0,0,1,.012,95.483C.01,95.656,0,95.827,0,96H0a48,48,0,0,0,48,48H152a40,40,0,0,0,40-40h0c0-.171-.01-.34-.012-.511A40,40,0,0,1,152,143Z"/></g><g class="ec039f93-c4f6-4acb-8d6f-5dcb704e7c58"><path class="e140c994-0933-48cc-8887-f014a5258504" d="M154.817,64.11A60,60,0,0,0,42.788,48.286,48,48,0,0,0,0,96H0c0,.162.011.321.012.483a48,48,0,0,1,42.776-47.2A60,60,0,0,1,154.817,65.11a39.989,39.989,0,0,1,37.171,39.379c0-.163.012-.325.012-.489h0A39.994,39.994,0,0,0,154.817,64.11Z"/></g><rect class="ee63a03c-6c52-4b6b-bae4-6b9f5b62f739" x="88" y="160" width="16" height="16" rx="8"/><rect class="ee63a03c-6c52-4b6b-bae4-6b9f5b62f739" x="64" y="152" width="16" height="16" rx="8"/><rect class="ee63a03c-6c52-4b6b-bae4-6b9f5b62f739" x="112" y="152" width="16" height="16" rx="8"/><g class="afd7cf5a-484e-4007-b251-6bf4f6a4f9b6"><path class="e808b14c-73d7-4744-9a44-2de341e37074" d="M72,167a8,8,0,0,1-7.975-7.5c-.01.166-.025.331-.025.5a8,8,0,0,0,16,0c0-.169-.015-.334-.025-.5A8,8,0,0,1,72,167Zm55.975-7.5a7.99,7.99,0,0,1-15.95,0c-.01.166-.025.331-.025.5a8,8,0,0,0,16,0C128,159.831,127.985,159.666,127.975,159.5ZM96,175a8,8,0,0,1-7.975-7.5c-.01.166-.025.331-.025.5a8,8,0,0,0,16,0c0-.169-.015-.334-.025-.5A8,8,0,0,1,96,175Z"/></g><g class="ec039f93-c4f6-4acb-8d6f-5dcb704e7c58"><path class="e140c994-0933-48cc-8887-f014a5258504" d="M72,152a8,8,0,0,0-8,8c0,.169.015.334.025.5a7.99,7.99,0,0,1,15.95,0c.01-.166.025-.331.025-.5A8,8,0,0,0,72,152Zm48,0a8,8,0,0,0-8,8c0,.169.015.334.025.5a7.99,7.99,0,0,1,15.95,0c.01-.166.025-.331.025-.5A8,8,0,0,0,120,152Zm-24,8a8,8,0,0,0-8,8c0,.169.015.334.025.5a7.99,7.99,0,0,1,15.95,0c.01-.166.025-.331.025-.5A8,8,0,0,0,96,160Z"/></g><g class="b90ff2c1-e555-4d1e-b212-608054fa1a16"><circle class="a77a2069-9730-4ae4-b2c8-cf72dfd5ce84" cx="8" r="192"/></g></g><g id="f6275a4d-b33e-46b1-880d-4242ff41c3e1" data-name="snow-day"><g class="be774dec-3b3d-4a4a-b0f9-169267c04658"><circle class="fa55ed47-69e8-4668-afe7-1d25edfcb9d8" cx="288" r="192"/></g></g><g id="a6d95199-73b0-431f-ac3a-5341aaec13bb" data-name="unknown"><g class="bba48cfe-3ce2-4004-a2e3-4e639d2bc26e"><circle class="b8f43c3a-3724-47c1-b031-587264e5d8a3" cy="288" r="192"/></g></g><g id="a9054b1a-810f-4230-8797-8c00dc717324" data-name="windy"><g class="aed455a1-fb98-4936-bc16-31c4ec56d208"><circle class="f17e3c13-c4ae-4a93-95ec-92f03bf35984" cx="288" cy="288" r="192"/></g></g></svg>