<svg xmlns="http://www.w3.org/2000/svg" xmlns:xlink="http://www.w3.org/1999/xlink" width="192" height="192" viewBox="0 0 192 192"><defs><style>.e0f4367f-7b4b-402a-af9f-008e2b8b89c0{fill:none;}.b596ba6e-48f7-4a0e-b98f-0de1269cc298{fill:#eee;}.a13a0bc2-421e-41ea-ac99-f4cb27fb4793{opacity:0.1;}.a7afda8f-8362-4ef2-aaae-0dbfe2664305{fill:#212121;}.a958b915-2b84-4492-8351-4b33d4537e25{opacity:0.4;}.a89658d6-5a88-4bd1-81aa-f804c5865b85{fill:#fff;}.a5d99b6b-85f4-4389-8a10-1a75c7fbb857{clip-path:url(#a1b55b6b-8688-46d7-94a7-66810a7c06e5);}.b5b3a292-8e14-4a8a-a29c-abb98f76f118{fill:url(#f6488f8f-07c2-466b-94a6-5171be4fad4b);}.b2ff76f3-8ec2-4f3c-b7c8-66b2b61b21f7{clip-path:url(#b21e5318-6761-400d-abe7-0ed7fcc7921a);}.e999b1f9-0294-44b3-822e-351f17bca024{fill:url(#a400bf09-c94f-44f7-964d-b6afab3dac4c);}.aed3d9c8-9c9d-4675-a811-cfcb7d79a6d0{clip-path:url(#a5d80d34-d508-4097-a36f-3b67eff7bdc2);}.a997ae98-9d4c-42bd-8bc5-62f973225a3e{fill:url(#fd3830bd-8c0f-4d1b-90be-eeed30e6f192);}.a6f61ccc-be93-4df9-8ea4-f95ea286ff5c{clip-path:url(#bc7ba3d3-3712-4845-90b6-33922ce2894c);}.a62d3528-b393-425d-b29c-3c3f80d5e748{fill:url(#fa4a2eaa-4036-41db-96af-6bcebb7912d8);}</style><clipPath id="a1b55b6b-8688-46d7-94a7-66810a7c06e5"><path class="e0f4367f-7b4b-402a-af9f-008e2b8b89c0" d="M154.817,80.11A60,60,0,0,0,42.788,64.286,48,48,0,0,0,0,112H0a48,48,0,0,0,48,48H152a40,40,0,0,0,40-40h0A39.995,39.995,0,0,0,154.817,80.11Z"/></clipPath><radialGradient id="f6488f8f-07c2-466b-94a6-5171be4fad4b" cx="0" cy="0" r="192" gradientUnits="userSpaceOnUse"><stop offset="0" stop-color="#fff" stop-opacity="0.1"/><stop offset="0.143" stop-color="#c3c3c3" stop-opacity="0.077"/><stop offset="0.609" stop-color="#323232" stop-opacity="0.02"/><stop offset="1" stop-opacity="0"/></radialGradient><clipPath id="b21e5318-6761-400d-abe7-0ed7fcc7921a"><path class="e0f4367f-7b4b-402a-af9f-008e2b8b89c0" d="M472,96a80,80,0,1,0-159.375,9.849A36,36,0,0,0,288,140h0a36,36,0,0,0,36,36h78a29.842,29.842,0,0,0,14.927-3.982A80.017,80.017,0,0,0,472,96Z"/></clipPath><radialGradient id="a400bf09-c94f-44f7-964d-b6afab3dac4c" cx="288" xlink:href="#f6488f8f-07c2-466b-94a6-5171be4fad4b"/><clipPath id="a5d80d34-d508-4097-a36f-3b67eff7bdc2"><path class="e0f4367f-7b4b-402a-af9f-008e2b8b89c0" d="M96,304A79.995,79.995,0,0,0,25.155,421.155,23.943,23.943,0,0,0,16,440h0a24,24,0,0,0,24,24H92c.451,0,.892-.038,1.335-.067.887.029,1.771.067,2.665.067a80,80,0,0,0,0-160Z"/></clipPath><radialGradient id="fd3830bd-8c0f-4d1b-90be-eeed30e6f192" cy="288" xlink:href="#f6488f8f-07c2-466b-94a6-5171be4fad4b"/><clipPath id="bc7ba3d3-3712-4845-90b6-33922ce2894c"><path class="e0f4367f-7b4b-402a-af9f-008e2b8b89c0" d="M376.005,304.4a80,80,0,0,0-62.85,116.756A23.943,23.943,0,0,0,304,440h0a24,24,0,0,0,24,24h52c.451,0,.892-.038,1.335-.067.887.029,1.771.067,2.665.067a80.007,80.007,0,0,0,79.6-72A88,88,0,0,1,376.005,304.4Z"/></clipPath><radialGradient id="fa4a2eaa-4036-41db-96af-6bcebb7912d8" cx="288" cy="288" xlink:href="#f6488f8f-07c2-466b-94a6-5171be4fad4b"/></defs><g id="a00b782e-fae1-401f-803d-4e6fbc58e9be" data-name="cloudy"><rect class="e0f4367f-7b4b-402a-af9f-008e2b8b89c0" width="192" height="192"/><path class="b596ba6e-48f7-4a0e-b98f-0de1269cc298" d="M154.817,80.11A60,60,0,0,0,42.788,64.286,48,48,0,0,0,0,112H0a48,48,0,0,0,48,48H152a40,40,0,0,0,40-40h0A39.995,39.995,0,0,0,154.817,80.11Z"/><g class="a13a0bc2-421e-41ea-ac99-f4cb27fb4793"><path class="a7afda8f-8362-4ef2-aaae-0dbfe2664305" d="M152,159H48A47.994,47.994,0,0,1,.012,111.483c0,.173-.012.344-.012.517H0a48,48,0,0,0,48,48H152a40,40,0,0,0,40-40h0c0-.171-.01-.34-.012-.511A40,40,0,0,1,152,159Z"/></g><g class="a958b915-2b84-4492-8351-4b33d4537e25"><path class="a89658d6-5a88-4bd1-81aa-f804c5865b85" d="M154.817,80.11A60,60,0,0,0,42.788,64.286,48,48,0,0,0,0,112H0c0,.162.011.321.012.483a48,48,0,0,1,42.776-47.2A60,60,0,0,1,154.817,81.11a39.989,39.989,0,0,1,37.171,39.379c0-.163.012-.325.012-.489h0A39.995,39.995,0,0,0,154.817,80.11Z"/></g><g class="a5d99b6b-85f4-4389-8a10-1a75c7fbb857"><circle class="b5b3a292-8e14-4a8a-a29c-abb98f76f118" r="192"/></g></g><g id="a56c2d90-efac-4d31-93a3-69fc66dd7e90" data-name="cloudy-day"><g class="b2ff76f3-8ec2-4f3c-b7c8-66b2b61b21f7"><circle class="e999b1f9-0294-44b3-822e-351f17bca024" cx="288" r="192"/></g></g><g id="f734b484-83f4-4912-b041-9e80c52bbadd" data-name="partly-cloudy-day"><g class="aed3d9c8-9c9d-4675-a811-cfcb7d79a6d0"><circle class="a997ae98-9d4c-42bd-8bc5-62f973225a3e" cy="288" r="192"/></g></g><g id="bf0b2dc8-99f5-4cf7-8cb3-6a1ab8dd9199" data-name="partly-cloudy-night"><g class="a6f61ccc-be93-4df9-8ea4-f95ea286ff5c"><circle class="a62d3528-b393-425d-b29c-3c3f80d5e748" cx="288" cy="288" r="192"/></g></g></svg>