<svg xmlns="http://www.w3.org/2000/svg" xmlns:xlink="http://www.w3.org/1999/xlink" width="192" height="192" viewBox="0 0 192 192"><defs><style>.f6b2cb41-f848-4db7-bd92-f82905dd0f78{fill:none;}.e39b39c0-f4bc-404a-a20e-335d282b9c80{fill:#7e57c2;}.e79c5639-4ac4-4d97-aa64-2726f9363530{opacity:0.2;}.e943e9c7-4928-4d2a-8234-62742879414d{fill:#1a237e;}.b3cd8cb6-eab2-456e-8caf-160414911e64{fill:#fff;}.b20b4415-67ee-4690-939f-ba98e5a2916f{clip-path:url(#f02d6110-ce07-45fc-a186-fefab7f8cd08);}.aec5ed8b-0e81-466c-a57e-dbcaecda8956{fill:url(#bbf6236f-86c3-4371-a2c2-fe7bbfc549dd);}.af35e009-e6df-424b-bdeb-24fe8f8b3a03{clip-path:url(#b1ef385d-01fb-4780-bef3-5a6d25634487);}.b9307b98-33f5-47ad-a34a-8880decd3918{fill:url(#af85d0ee-1d8d-4d43-bdd4-690f80983b43);}.afd4a5a5-43bd-40a6-a768-92ba9a0f8f8e{clip-path:url(#b8607d10-1a2b-4cac-8c08-de325a3004db);}.b7f8d555-581e-4cfb-8b8a-9b53e23ce195{fill:url(#bf93c4a8-c556-45c9-a17f-a509aa7c21c3);}.ab6ee526-7b7c-427e-9a67-e8fd2478e680{clip-path:url(#b9fa95f0-388d-491f-a14e-a8f606a84998);}.fd1fbae4-f971-4922-aae3-a91041395ffd{fill:url(#ada3335f-31d5-4bea-8979-d2819052e670);}</style><clipPath id="f02d6110-ce07-45fc-a186-fefab7f8cd08"><path class="f6b2cb41-f848-4db7-bd92-f82905dd0f78" d="M88.005,16.4A80,80,0,1,0,175.6,104,88,88,0,0,1,88.005,16.4Z"/></clipPath><radialGradient id="bbf6236f-86c3-4371-a2c2-fe7bbfc549dd" cx="0" cy="0" r="192" gradientUnits="userSpaceOnUse"><stop offset="0" stop-color="#fff" stop-opacity="0.1"/><stop offset="0.143" stop-color="#c3c3c3" stop-opacity="0.077"/><stop offset="0.609" stop-color="#323232" stop-opacity="0.02"/><stop offset="1" stop-opacity="0"/></radialGradient><clipPath id="b1ef385d-01fb-4780-bef3-5a6d25634487"><path class="f6b2cb41-f848-4db7-bd92-f82905dd0f78" d="M442.817,80.11A60,60,0,0,0,330.788,64.286,48,48,0,0,0,288,112h0a48,48,0,0,0,48,48H440a40,40,0,0,0,40-40h0A39.995,39.995,0,0,0,442.817,80.11Z"/></clipPath><radialGradient id="af85d0ee-1d8d-4d43-bdd4-690f80983b43" cx="288" xlink:href="#bbf6236f-86c3-4371-a2c2-fe7bbfc549dd"/><clipPath id="b8607d10-1a2b-4cac-8c08-de325a3004db"><path class="f6b2cb41-f848-4db7-bd92-f82905dd0f78" d="M175.6,392a88,88,0,0,1-87.6-87.6A79.988,79.988,0,0,0,24.817,420.5,7.986,7.986,0,0,0,32,432a80.479,80.479,0,0,0,16,16,8,8,0,0,0,0,16h96a8,8,0,0,0,0-16h-.008a80.428,80.428,0,0,0,16-16H160a7.986,7.986,0,0,0,7.191-11.488A79.483,79.483,0,0,0,175.6,392Z"/></clipPath><radialGradient id="bf93c4a8-c556-45c9-a17f-a509aa7c21c3" cy="288" xlink:href="#bbf6236f-86c3-4371-a2c2-fe7bbfc549dd"/><clipPath id="b9fa95f0-388d-491f-a14e-a8f606a84998"><path class="f6b2cb41-f848-4db7-bd92-f82905dd0f78" d="M384,304a79.995,79.995,0,0,0-70.845,117.155A23.943,23.943,0,0,0,304,440h0a24,24,0,0,0,24,24h52c.451,0,.892-.038,1.335-.067.887.029,1.771.067,2.665.067a80,80,0,0,0,0-160Z"/></clipPath><radialGradient id="ada3335f-31d5-4bea-8979-d2819052e670" cx="288" cy="288" xlink:href="#bbf6236f-86c3-4371-a2c2-fe7bbfc549dd"/></defs><g id="fc6f2825-9513-4d76-86fd-ac1fd96fbc4a" data-name="clear-night"><rect class="f6b2cb41-f848-4db7-bd92-f82905dd0f78" width="192" height="192"/><path class="e39b39c0-f4bc-404a-a20e-335d282b9c80" d="M88.005,16.4A80,80,0,1,0,175.6,104,88,88,0,0,1,88.005,16.4Z"/><g class="e79c5639-4ac4-4d97-aa64-2726f9363530"><path class="e943e9c7-4928-4d2a-8234-62742879414d" d="M96,175A79.994,79.994,0,0,1,16.012,95.484c0,.173-.012.343-.012.516a80,80,0,0,0,159.6,8l-.123,0A80,80,0,0,1,96,175Z"/></g><g class="e79c5639-4ac4-4d97-aa64-2726f9363530"><path class="b3cd8cb6-eab2-456e-8caf-160414911e64" d="M88.005,17.4a87.994,87.994,0,0,0,87.473,87.594c.037-.334.09-.663.123-1a88,88,0,0,1-87.6-87.6A80.007,80.007,0,0,0,16,96c0,.162.011.322.012.484A80,80,0,0,1,88.005,17.4Z"/></g><g class="b20b4415-67ee-4690-939f-ba98e5a2916f"><circle class="aec5ed8b-0e81-466c-a57e-dbcaecda8956" r="192"/></g></g><g id="bcd01e33-301a-4d98-8fd6-3623b3133734" data-name="cloudy"><g class="af35e009-e6df-424b-bdeb-24fe8f8b3a03"><circle class="b9307b98-33f5-47ad-a34a-8880decd3918" cx="288" r="192"/></g></g><g id="b87131c8-ff60-4206-b5b2-01f19b220085" data-name="fog-night"><g class="afd4a5a5-43bd-40a6-a768-92ba9a0f8f8e"><circle class="b7f8d555-581e-4cfb-8b8a-9b53e23ce195" cy="288" r="192"/></g></g><g id="f17fa663-2414-4fe6-8848-3569a9da31c3" data-name="partly-cloudy-day"><g class="ab6ee526-7b7c-427e-9a67-e8fd2478e680"><circle class="fd1fbae4-f971-4922-aae3-a91041395ffd" cx="288" cy="288" r="192"/></g></g></svg>