<svg xmlns="http://www.w3.org/2000/svg" xmlns:xlink="http://www.w3.org/1999/xlink" width="192" height="192" viewBox="0 0 192 192"><defs><style>.bd44770d-2e1e-4877-ae5b-5a3f70f1d017,.f3f57957-312e-4d23-9685-28fda9ad27d2{fill:none;}.f3f57957-312e-4d23-9685-28fda9ad27d2{clip-path:url(#f880f200-cd74-4589-863e-cc9870f49ab2);}.ab98fb6f-4f8e-4f93-9bc0-c231f03fd950{fill:#eee;}.b270b690-fc8f-43b5-9e01-32a67d1933a0{opacity:0.1;}.b82ccb65-f2c5-4af6-810d-9de7ad1ee83f{fill:#212121;}.a1da9e41-de10-45b4-9032-86987b447e8f{opacity:0.4;}.be72bb16-7608-4a4b-a016-d4aa1c7cee6d{fill:#fff;}.bf9ab962-5a79-4f93-b8cf-2276f60c9591{clip-path:url(#f00c37da-d65e-446c-8b22-e290c418d5d2);}.b1468ef7-3904-4b4b-a1d3-bc88664a76bf{fill:url(#b9edba8d-2bae-439b-a3de-b640dcd0d1aa);}</style><clipPath id="f880f200-cd74-4589-863e-cc9870f49ab2"><path class="bd44770d-2e1e-4877-ae5b-5a3f70f1d017" d="M104,112H24v16h80a8,8,0,1,1-8,8H80a24,24,0,1,0,24-24Z"/></clipPath><clipPath id="f00c37da-d65e-446c-8b22-e290c418d5d2"><path class="f3f57957-312e-4d23-9685-28fda9ad27d2" d="M136,32V48a16,16,0,0,1,0,32H24V96H136a32,32,0,0,0,0-64Z"/></clipPath><radialGradient id="b9edba8d-2bae-439b-a3de-b640dcd0d1aa" cx="0" cy="0" r="192" gradientUnits="userSpaceOnUse"><stop offset="0" stop-color="#fff" stop-opacity="0.1"/><stop offset="0.143" stop-color="#c3c3c3" stop-opacity="0.077"/><stop offset="0.609" stop-color="#323232" stop-opacity="0.02"/><stop offset="1" stop-opacity="0"/></radialGradient></defs><g id="b7b2c076-b677-49f2-bb77-3882748ab1ea" data-name="windy"><rect class="bd44770d-2e1e-4877-ae5b-5a3f70f1d017" width="192" height="192"/><path class="ab98fb6f-4f8e-4f93-9bc0-c231f03fd950" d="M104,112H24v16h80a8,8,0,1,1-8,8H80a24,24,0,1,0,24-24Z"/><path class="ab98fb6f-4f8e-4f93-9bc0-c231f03fd950" d="M136,32V48a16,16,0,0,1,0,32H24V96H136a32,32,0,0,0,0-64Z"/><g class="b270b690-fc8f-43b5-9e01-32a67d1933a0"><path class="b82ccb65-f2c5-4af6-810d-9de7ad1ee83f" d="M111.975,135.5c.01-.166.025-.331.025-.5a8,8,0,0,0-8-8H24v1h80A8,8,0,0,1,111.975,135.5Zm40-72c0-.168.025-.331.025-.5a16,16,0,0,0-16-16v1A15.989,15.989,0,0,1,151.975,63.5ZM104,159a24.119,24.119,0,0,1-23.974-23H80a24,24,0,0,0,48,0c0-.168-.009-.333-.013-.5A24.114,24.114,0,0,1,104,159Zm63.987-95.5A32.151,32.151,0,0,1,136,95H24v1H136a32.152,32.152,0,0,0,32-32C168,63.832,167.99,63.667,167.987,63.5Z"/></g><g class="a1da9e41-de10-45b4-9032-86987b447e8f"><path class="be72bb16-7608-4a4b-a016-d4aa1c7cee6d" d="M136,80H24v1H136a16,16,0,0,0,16-16c0-.169-.02-.332-.025-.5A15.989,15.989,0,0,1,136,80Zm0-48v1a32.151,32.151,0,0,1,31.987,31.5c0-.167.013-.332.013-.5A32.152,32.152,0,0,0,136,32Zm-32,80H24v1h80a24.114,24.114,0,0,1,23.987,23.5c0-.167.013-.332.013-.5A24.115,24.115,0,0,0,104,112Zm0,32a8,8,0,0,1-8-8H80c0,.335.012.668.026,1H96a8,8,0,0,0,16,0c0-.169-.015-.334-.025-.5A8,8,0,0,1,104,144Z"/></g><g class="bf9ab962-5a79-4f93-b8cf-2276f60c9591"><circle class="b1468ef7-3904-4b4b-a1d3-bc88664a76bf" r="192"/></g></g></svg>