<svg xmlns="http://www.w3.org/2000/svg" xmlns:xlink="http://www.w3.org/1999/xlink" width="192" height="192" viewBox="0 0 192 192"><defs><style>.ab578531-cd19-46df-8496-b2fea4d34b4a,.fd111520-b5ca-4f6a-a9a7-21efabd321a3{fill:none;}.fd111520-b5ca-4f6a-a9a7-21efabd321a3{clip-path:url(#a7b9e55c-7091-48ce-8d83-b7f88e984cad);}.e3d5583b-5079-4218-a2fc-4045563033e9{fill:#009688;}.af41dfb2-3ba4-4555-9f25-79c9644f7aaf{opacity:0.2;}.f5ce3031-c0e3-43d7-82b4-8ace220dde0f{fill:#263238;}.a9c32adb-5606-49d8-b427-e8b2a06555f5{fill:#fff;}.ecfc0e5c-33c8-4c7d-a98d-9c31c1427a15{clip-path:url(#b8c0db1d-5df7-4055-a7f8-356f8d83b335);}.ade98e7a-936a-4a61-a79f-5bdc297434f3{fill:url(#a7f89619-0612-4be5-b007-15ad88026424);}.b3d41189-b162-4715-a011-4f8e31cdf4b8{clip-path:url(#a5a2658e-75e3-403f-a351-9f3b71a4c4cb);}.bd5854da-b101-46ec-ab44-15947b7bbe79{fill:url(#f7075f9c-f22b-43cf-adc6-c7a8560bf4f9);}</style><clipPath id="a7b9e55c-7091-48ce-8d83-b7f88e984cad"><path class="ab578531-cd19-46df-8496-b2fea4d34b4a" d="M392,112H312v16h80a8,8,0,1,1-8,8H368a24,24,0,1,0,24-24Z"/></clipPath><clipPath id="b8c0db1d-5df7-4055-a7f8-356f8d83b335"><circle class="ab578531-cd19-46df-8496-b2fea4d34b4a" cx="96" cy="96" r="80"/></clipPath><radialGradient id="a7f89619-0612-4be5-b007-15ad88026424" cx="0" cy="0" r="192" gradientUnits="userSpaceOnUse"><stop offset="0" stop-color="#fff" stop-opacity="0.1"/><stop offset="0.143" stop-color="#c3c3c3" stop-opacity="0.077"/><stop offset="0.609" stop-color="#323232" stop-opacity="0.02"/><stop offset="1" stop-opacity="0"/></radialGradient><clipPath id="a5a2658e-75e3-403f-a351-9f3b71a4c4cb"><path class="fd111520-b5ca-4f6a-a9a7-21efabd321a3" d="M424,32V48a16,16,0,0,1,0,32H312V96H424a32,32,0,0,0,0-64Z"/></clipPath><radialGradient id="f7075f9c-f22b-43cf-adc6-c7a8560bf4f9" cx="288" xlink:href="#a7f89619-0612-4be5-b007-15ad88026424"/></defs><g id="aacd3a17-2433-4d48-b409-29dea9dcfc78" data-name="unknown"><rect class="ab578531-cd19-46df-8496-b2fea4d34b4a" width="192" height="192"/><circle class="e3d5583b-5079-4218-a2fc-4045563033e9" cx="96" cy="96" r="80"/><g class="af41dfb2-3ba4-4555-9f25-79c9644f7aaf"><path class="f5ce3031-c0e3-43d7-82b4-8ace220dde0f" d="M96,175A79.993,79.993,0,0,1,16.013,95.5c0,.167-.013.332-.013.5a80,80,0,0,0,160,0c0-.168-.012-.333-.013-.5A79.993,79.993,0,0,1,96,175Z"/></g><g class="af41dfb2-3ba4-4555-9f25-79c9644f7aaf"><path class="a9c32adb-5606-49d8-b427-e8b2a06555f5" d="M96,17a79.993,79.993,0,0,1,79.987,79.5c0-.167.013-.332.013-.5A80,80,0,0,0,16,96c0,.168.012.333.013.5A79.993,79.993,0,0,1,96,17Z"/></g><path class="a9c32adb-5606-49d8-b427-e8b2a06555f5" d="M88,144h16V128H88Zm8-96A32.152,32.152,0,0,0,64,80H80a16,16,0,0,1,32,0c0,16-24,16-24,40h16c0-16,24-16,24-40A32.152,32.152,0,0,0,96,48Z"/><g class="ecfc0e5c-33c8-4c7d-a98d-9c31c1427a15"><circle class="ade98e7a-936a-4a61-a79f-5bdc297434f3" r="192"/></g></g><g id="a6b3cd7d-5a11-4eba-a50b-e64dac0f5204" data-name="windy"><g class="b3d41189-b162-4715-a011-4f8e31cdf4b8"><circle class="bd5854da-b101-46ec-ab44-15947b7bbe79" cx="288" r="192"/></g></g></svg>