<svg xmlns="http://www.w3.org/2000/svg" xmlns:xlink="http://www.w3.org/1999/xlink" width="192" height="192" viewBox="0 0 192 192"><defs><style>.a0f1e348-9eba-4d9d-808d-4438871dd3ed,.b19ce53c-c941-4dd8-b285-7cb0af6e14ad,.b44c55f3-efc6-4e82-9464-c5dba0070a01,.e922b1de-5773-4abc-a1bb-e2b7f7f6685f,.faa2a1dc-87f1-4ef7-8d61-5d94a004ad3c{fill:none;}.e922b1de-5773-4abc-a1bb-e2b7f7f6685f{clip-path:url(#b1e9fb25-8abc-4e08-8156-410ddc7ad159);}.b44c55f3-efc6-4e82-9464-c5dba0070a01{clip-path:url(#b3d12682-9a83-4cd3-9ed7-6517c914e9bf);}.faa2a1dc-87f1-4ef7-8d61-5d94a004ad3c{clip-path:url(#af6b08b0-cd3e-4ca4-9506-a4cb4855b721);}.a0f1e348-9eba-4d9d-808d-4438871dd3ed{clip-path:url(#bd1eb0e1-8fb3-422c-9bdc-7020100b1d88);}.b792bf17-b126-47a6-9c17-d9308d06300c{fill:#eee;}.aaf701ed-c3ae-454f-a326-cd19927a3a88{opacity:0.1;}.b4ffb728-c546-41e3-adfd-6297739b8c59{fill:#212121;}.baf41afb-2895-4ebd-bfb1-6bdd599df180{opacity:0.4;}.a1ca2f09-56ef-437f-b37d-7a2501b31818{fill:#fff;}.b2bbf467-6b49-4564-a93c-6300ef912888{clip-path:url(#a24df48a-6d10-4f9f-9152-5dcc0ba380c5);}.a9744df3-4664-494f-a57d-0f04fb8ac189{fill:url(#afb529fc-88b2-4960-a7e8-750863fbaa16);}.e741bb8a-4c2a-45f4-95d4-46b936b2f982{clip-path:url(#f5e30d94-fda0-469f-a034-cab8651fe9af);}.ae58c32d-48ff-40eb-9e43-2b5d8008a4ff{fill:url(#a51c903b-bf45-466b-8418-0ed2c7f4bdd4);}</style><clipPath id="b1e9fb25-8abc-4e08-8156-410ddc7ad159"><rect class="b19ce53c-c941-4dd8-b285-7cb0af6e14ad" x="16" y="40" width="96" height="16" rx="8"/></clipPath><clipPath id="b3d12682-9a83-4cd3-9ed7-6517c914e9bf"><rect class="e922b1de-5773-4abc-a1bb-e2b7f7f6685f" x="96" y="72" width="80" height="16" rx="8"/></clipPath><clipPath id="af6b08b0-cd3e-4ca4-9506-a4cb4855b721"><rect class="b44c55f3-efc6-4e82-9464-c5dba0070a01" x="40" y="72" width="40" height="16" rx="8"/></clipPath><clipPath id="bd1eb0e1-8fb3-422c-9bdc-7020100b1d88"><rect class="faa2a1dc-87f1-4ef7-8d61-5d94a004ad3c" x="24" y="104" width="112" height="16" rx="8"/></clipPath><clipPath id="a24df48a-6d10-4f9f-9152-5dcc0ba380c5"><rect class="a0f1e348-9eba-4d9d-808d-4438871dd3ed" x="56" y="136" width="104" height="16" rx="8"/></clipPath><radialGradient id="afb529fc-88b2-4960-a7e8-750863fbaa16" cx="0" cy="0" r="192" gradientUnits="userSpaceOnUse"><stop offset="0" stop-color="#fff" stop-opacity="0.1"/><stop offset="0.143" stop-color="#c3c3c3" stop-opacity="0.077"/><stop offset="0.609" stop-color="#323232" stop-opacity="0.02"/><stop offset="1" stop-opacity="0"/></radialGradient><clipPath id="f5e30d94-fda0-469f-a034-cab8651fe9af"><path class="b19ce53c-c941-4dd8-b285-7cb0af6e14ad" d="M104,288a79.876,79.876,0,0,0-79.375,89.849A36,36,0,0,0,0,412H0a36,36,0,0,0,36,36h78a29.842,29.842,0,0,0,14.927-3.982A80,80,0,0,0,104,288ZM72,456a8,8,0,0,0-8,8v8a8,8,0,0,0,16,0v-8A8,8,0,0,0,72,456Zm-24,0a8,8,0,0,0-8,8v8a8,8,0,0,0,16,0v-8A8,8,0,0,0,48,456Zm48,0a8,8,0,0,0-8,8v8a8,8,0,0,0,16,0v-8A8,8,0,0,0,96,456Z"/></clipPath><radialGradient id="a51c903b-bf45-466b-8418-0ed2c7f4bdd4" cy="288" xlink:href="#afb529fc-88b2-4960-a7e8-750863fbaa16"/></defs><g id="ae247f51-a3cf-4cb5-9894-4bf6964be8e8" data-name="fog"><rect class="b19ce53c-c941-4dd8-b285-7cb0af6e14ad" width="192" height="192"/><rect class="b792bf17-b126-47a6-9c17-d9308d06300c" x="16" y="40" width="96" height="16" rx="8"/><rect class="b792bf17-b126-47a6-9c17-d9308d06300c" x="96" y="72" width="80" height="16" rx="8"/><rect class="b792bf17-b126-47a6-9c17-d9308d06300c" x="40" y="72" width="40" height="16" rx="8"/><rect class="b792bf17-b126-47a6-9c17-d9308d06300c" x="24" y="104" width="112" height="16" rx="8"/><rect class="b792bf17-b126-47a6-9c17-d9308d06300c" x="56" y="136" width="104" height="16" rx="8"/><g class="aaf701ed-c3ae-454f-a326-cd19927a3a88"><path class="b4ffb728-c546-41e3-adfd-6297739b8c59" d="M72,87H48a8,8,0,0,1-7.975-7.5c-.01.166-.025.331-.025.5a8,8,0,0,0,8,8H72a8,8,0,0,0,8-8c0-.169-.015-.334-.025-.5A8,8,0,0,1,72,87Zm103.975-7.5A8,8,0,0,1,168,87H104a8,8,0,0,1-7.975-7.5c-.01.166-.025.331-.025.5a8,8,0,0,0,8,8h64a8,8,0,0,0,8-8C176,79.831,175.985,79.666,175.975,79.5ZM104,56a8,8,0,0,0,8-8c0-.169-.015-.334-.025-.5A8,8,0,0,1,104,55H24a8,8,0,0,1-7.975-7.5c-.01.166-.025.331-.025.5a8,8,0,0,0,8,8Zm32,56c0-.169-.015-.334-.025-.5A8,8,0,0,1,128,119H32a8,8,0,0,1-7.975-7.5c-.01.166-.025.331-.025.5a8,8,0,0,0,8,8h96A8,8,0,0,0,136,112Zm16,39H64a8,8,0,0,1-7.975-7.5c-.01.166-.025.331-.025.5a8,8,0,0,0,8,8h88a8,8,0,0,0,8-8c0-.169-.015-.334-.025-.5A8,8,0,0,1,152,151Z"/></g><g class="baf41afb-2895-4ebd-bfb1-6bdd599df180"><path class="a1ca2f09-56ef-437f-b37d-7a2501b31818" d="M168,72H104a8,8,0,0,0-8,8c0,.169.015.334.025.5A8,8,0,0,1,104,73h64a8,8,0,0,1,7.975,7.5c.01-.166.025-.331.025-.5A8,8,0,0,0,168,72Zm-32.025,40.5c.01-.166.025-.331.025-.5a8,8,0,0,0-8-8H32a8,8,0,0,0-8,8c0,.169.015.334.025.5A8,8,0,0,1,32,105h96A8,8,0,0,1,135.975,112.5ZM104,41a8,8,0,0,1,7.975,7.5c.01-.166.025-.331.025-.5a8,8,0,0,0-8-8H24a8,8,0,0,0-8,8c0,.169.015.334.025.5A8,8,0,0,1,24,41Zm48,95H64a8,8,0,0,0-8,8c0,.169.015.334.025.5A8,8,0,0,1,64,137h88a8,8,0,0,1,7.975,7.5c.01-.166.025-.331.025-.5A8,8,0,0,0,152,136ZM48,72a8,8,0,0,0-8,8c0,.169.015.334.025.5A8,8,0,0,1,48,73H72a8,8,0,0,1,7.975,7.5c.01-.166.025-.331.025-.5a8,8,0,0,0-8-8Z"/></g><g class="b2bbf467-6b49-4564-a93c-6300ef912888"><circle class="a9744df3-4664-494f-a57d-0f04fb8ac189" r="192"/></g></g><g id="b795ee73-dcf3-4b00-922d-6aee4b0fede6" data-name="rain-day"><g class="e741bb8a-4c2a-45f4-95d4-46b936b2f982"><circle class="ae58c32d-48ff-40eb-9e43-2b5d8008a4ff" cy="288" r="192"/></g></g></svg>