<svg xmlns="http://www.w3.org/2000/svg" xmlns:xlink="http://www.w3.org/1999/xlink" width="192" height="192" viewBox="0 0 192 192"><defs><style>.e5697a8e-9894-47d1-9881-c3080174830c{fill:none;}.ba3d0085-f9ef-4874-8c63-08fe9649dcf3{fill:#eee;}.ada9e92f-8e15-4c0d-9d1d-9c533ee9be31{opacity:0.1;}.b78b9ce0-ae91-4046-aafb-dcd8c0489b5c{fill:#212121;}.af3d1e86-34e5-488e-8660-1ee2804ca3b2{opacity:0.4;}.beed7cd6-6dce-4ca7-8383-07d20fcfc9b5{fill:#fff;}.ae207c0d-7b50-4ecf-b575-b663fcdf7526{fill:#fafafa;}.a3148f78-bb01-41cc-8f3d-f57820dadd6e{fill:#29b6f6;}.a968bcc5-26ca-45c0-b791-6c8ccef51747{opacity:0.2;}.f7634538-3c69-4d35-80ec-42d6d83945ab{fill:#263238;}.b0af56b0-f5c0-4e8c-8c22-2e6bedaac2cd{clip-path:url(#ae500cf8-8438-4220-a47b-11101892945e);}.a4c45614-4665-4c3f-ac0d-9b09a20680a2{fill:url(#bc2fdbf3-aba6-4f36-bef0-a1d422c63be3);}.b5302204-eb85-4c16-861f-64eff7bb1ad9{clip-path:url(#bd3956f0-e38b-463c-b173-39896a42a220);}.a68a4ac4-2261-4cf2-a28f-b8ae593c39be{fill:url(#a38e5bcb-2646-4176-929f-43e90d55bfac);}.b2254a48-ae71-4075-8a40-80c4801710d7{clip-path:url(#b6ae445d-02d7-4b51-859f-f4f5b11f16b8);}.fda4b534-39c5-40e4-aae1-d8f94188b2d0{fill:url(#a9b5c0ad-a30c-4593-a28d-a65a8403c26e);}.b308acf7-912b-43be-a752-e4da2143d695{clip-path:url(#a5260bd2-15e6-49db-81ec-abc04bf44891);}.bcfb11ca-faff-43dd-9f35-3ace584a9f89{fill:url(#b7e38f84-8b31-4174-ac2e-a2d4b4a970e2);}</style><clipPath id="ae500cf8-8438-4220-a47b-11101892945e"><path class="e5697a8e-9894-47d1-9881-c3080174830c" d="M120,152a8,8,0,1,0,8,8A8,8,0,0,0,120,152Zm-48,0a8,8,0,1,0,8,8A8,8,0,0,0,72,152Zm24,0a8,8,0,0,0-8,8v8a8,8,0,0,0,16,0v-8A8,8,0,0,0,96,152Zm58.817-87.89A60,60,0,0,0,42.788,48.286,48,48,0,0,0,0,96H0a48,48,0,0,0,48,48H152a40,40,0,0,0,40-40h0A39.995,39.995,0,0,0,154.817,64.11Z"/></clipPath><radialGradient id="bc2fdbf3-aba6-4f36-bef0-a1d422c63be3" cx="8" cy="0" r="192" gradientUnits="userSpaceOnUse"><stop offset="0" stop-color="#fff" stop-opacity="0.1"/><stop offset="0.143" stop-color="#c3c3c3" stop-opacity="0.077"/><stop offset="0.609" stop-color="#323232" stop-opacity="0.02"/><stop offset="1" stop-opacity="0"/></radialGradient><clipPath id="bd3956f0-e38b-463c-b173-39896a42a220"><path class="e5697a8e-9894-47d1-9881-c3080174830c" d="M392,0a79.876,79.876,0,0,0-79.375,89.849A36,36,0,0,0,288,124h0a36,36,0,0,0,36,36h78a29.842,29.842,0,0,0,14.927-3.982A80,80,0,0,0,392,0ZM336,168a8,8,0,1,0,8,8A8,8,0,0,0,336,168Zm48,0a8,8,0,1,0,8,8A8,8,0,0,0,384,168Zm-24,0a8,8,0,0,0-8,8v8a8,8,0,0,0,16,0v-8A8,8,0,0,0,360,168Z"/></clipPath><radialGradient id="a38e5bcb-2646-4176-929f-43e90d55bfac" cx="288" xlink:href="#bc2fdbf3-aba6-4f36-bef0-a1d422c63be3"/><clipPath id="b6ae445d-02d7-4b51-859f-f4f5b11f16b8"><path class="e5697a8e-9894-47d1-9881-c3080174830c" d="M154.817,352.11A60,60,0,0,0,42.788,336.286,48,48,0,0,0,0,384H0a48,48,0,0,0,45.382,47.926L40,440H56v32l26.667-40H152a40,40,0,0,0,40-40h0A39.995,39.995,0,0,0,154.817,352.11ZM120,440a8,8,0,0,0-8,8v8a8,8,0,0,0,16,0v-8A8,8,0,0,0,120,440Zm-24,0a8,8,0,0,0-8,8v8a8,8,0,0,0,16,0v-8A8,8,0,0,0,96,440Z"/></clipPath><radialGradient id="a9b5c0ad-a30c-4593-a28d-a65a8403c26e" cy="288" xlink:href="#bc2fdbf3-aba6-4f36-bef0-a1d422c63be3"/><clipPath id="a5260bd2-15e6-49db-81ec-abc04bf44891"><path class="e5697a8e-9894-47d1-9881-c3080174830c" d="M392,288a79.876,79.876,0,0,0-79.375,89.849A36,36,0,0,0,288,412h0a36.006,36.006,0,0,0,30.335,35.553L312,456h16v24l24-32h50a29.842,29.842,0,0,0,14.927-3.982A80,80,0,0,0,392,288ZM360,456a8,8,0,0,0-8,8v8a8,8,0,0,0,16,0v-8A8,8,0,0,0,360,456Zm24,0a8,8,0,0,0-8,8v8a8,8,0,0,0,16,0v-8A8,8,0,0,0,384,456Z"/></clipPath><radialGradient id="b7e38f84-8b31-4174-ac2e-a2d4b4a970e2" cx="288" cy="288" xlink:href="#bc2fdbf3-aba6-4f36-bef0-a1d422c63be3"/></defs><g id="ec4fcb79-55c6-45e0-8032-67f2772dcb7a" data-name="sleet"><rect class="e5697a8e-9894-47d1-9881-c3080174830c" width="192" height="192"/><path class="ba3d0085-f9ef-4874-8c63-08fe9649dcf3" d="M154.817,64.11A60,60,0,0,0,42.788,48.286,48,48,0,0,0,0,96H0a48,48,0,0,0,48,48H152a40,40,0,0,0,40-40h0A39.995,39.995,0,0,0,154.817,64.11Z"/><g class="ada9e92f-8e15-4c0d-9d1d-9c533ee9be31"><path class="b78b9ce0-ae91-4046-aafb-dcd8c0489b5c" d="M152,143H48A47.994,47.994,0,0,1,.012,95.483C.01,95.656,0,95.827,0,96H0a48,48,0,0,0,48,48H152a40,40,0,0,0,40-40h0c0-.171-.01-.34-.012-.511A40,40,0,0,1,152,143Z"/></g><g class="af3d1e86-34e5-488e-8660-1ee2804ca3b2"><path class="beed7cd6-6dce-4ca7-8383-07d20fcfc9b5" d="M154.817,64.11A60,60,0,0,0,42.788,48.286,48,48,0,0,0,0,96H0c0,.162.011.321.012.483a48,48,0,0,1,42.776-47.2A60,60,0,0,1,154.817,65.11a39.989,39.989,0,0,1,37.171,39.379c0-.163.012-.325.012-.489h0A39.995,39.995,0,0,0,154.817,64.11Z"/></g><rect class="ae207c0d-7b50-4ecf-b575-b663fcdf7526" x="64" y="152" width="16" height="16" rx="8"/><g class="ada9e92f-8e15-4c0d-9d1d-9c533ee9be31"><path class="b78b9ce0-ae91-4046-aafb-dcd8c0489b5c" d="M72,167a8,8,0,0,1-7.975-7.5c-.01.166-.025.331-.025.5a8,8,0,0,0,16,0c0-.169-.015-.334-.025-.5A8,8,0,0,1,72,167Z"/></g><g class="af3d1e86-34e5-488e-8660-1ee2804ca3b2"><path class="beed7cd6-6dce-4ca7-8383-07d20fcfc9b5" d="M72,153a8,8,0,0,1,7.975,7.5c.01-.166.025-.331.025-.5a8,8,0,0,0-16,0c0,.169.015.334.025.5A8,8,0,0,1,72,153Z"/></g><rect class="a3148f78-bb01-41cc-8f3d-f57820dadd6e" x="88" y="152" width="16" height="24" rx="8"/><g class="a968bcc5-26ca-45c0-b791-6c8ccef51747"><path class="f7634538-3c69-4d35-80ec-42d6d83945ab" d="M96,175a8,8,0,0,1-8-8v1a8,8,0,0,0,16,0v-1A8,8,0,0,1,96,175Z"/></g><g class="a968bcc5-26ca-45c0-b791-6c8ccef51747"><path class="beed7cd6-6dce-4ca7-8383-07d20fcfc9b5" d="M96,152a8,8,0,0,0-8,8v1a8,8,0,0,1,16,0v-1A8,8,0,0,0,96,152Z"/></g><rect class="ae207c0d-7b50-4ecf-b575-b663fcdf7526" x="112" y="152" width="16" height="16" rx="8"/><g class="ada9e92f-8e15-4c0d-9d1d-9c533ee9be31"><path class="b78b9ce0-ae91-4046-aafb-dcd8c0489b5c" d="M120,167a8,8,0,0,1-7.975-7.5c-.01.166-.025.331-.025.5a8,8,0,0,0,16,0c0-.169-.015-.334-.025-.5A8,8,0,0,1,120,167Z"/></g><g class="af3d1e86-34e5-488e-8660-1ee2804ca3b2"><path class="beed7cd6-6dce-4ca7-8383-07d20fcfc9b5" d="M120,153a8,8,0,0,1,7.975,7.5c.01-.166.025-.331.025-.5a8,8,0,0,0-16,0c0,.169.015.334.025.5A8,8,0,0,1,120,153Z"/></g><g class="b0af56b0-f5c0-4e8c-8c22-2e6bedaac2cd"><circle class="a4c45614-4665-4c3f-ac0d-9b09a20680a2" cx="8" r="192"/></g></g><g id="bf6d7472-0cde-4cf6-a249-d46907717a1a" data-name="sleet-day"><g class="b5302204-eb85-4c16-861f-64eff7bb1ad9"><circle class="a68a4ac4-2261-4cf2-a28f-b8ae593c39be" cx="288" r="192"/></g></g><g id="bffa570a-a4d9-4069-a895-0f0f87f5e0de" data-name="storm"><g class="b2254a48-ae71-4075-8a40-80c4801710d7"><circle class="fda4b534-39c5-40e4-aae1-d8f94188b2d0" cx="8" cy="288" r="192"/></g></g><g id="b5b49d3b-1c35-4d60-b3a2-f72965591abc" data-name="storm-day"><g class="b308acf7-912b-43be-a752-e4da2143d695"><circle class="bcfb11ca-faff-43dd-9f35-3ace584a9f89" cx="288" cy="288" r="192"/></g></g></svg>