<svg xmlns="http://www.w3.org/2000/svg" xmlns:xlink="http://www.w3.org/1999/xlink" width="192" height="192" viewBox="0 0 192 192"><defs><style>.aa952753-7ea6-4b31-827a-d8f3d4ee5529,.afbf0b81-93f9-4459-bc15-c0f0157b8c7a,.b2affd3a-9642-4d54-b6fd-7ebb06b5cca6,.ba172573-d2d9-461a-aeac-6b2ad145143f,.bfb11d8f-891f-4d86-8702-57830681ca1f{fill:none;}.ba172573-d2d9-461a-aeac-6b2ad145143f{clip-path:url(#bb4f06cd-bdd7-40dd-8cf5-2b674e4385dd);}.bfb11d8f-891f-4d86-8702-57830681ca1f{clip-path:url(#b81c77ee-196f-4dd1-bd33-76b9e52bd729);}.afbf0b81-93f9-4459-bc15-c0f0157b8c7a{clip-path:url(#b9d55126-2097-461a-9ca3-57947294d47f);}.aa952753-7ea6-4b31-827a-d8f3d4ee5529{clip-path:url(#a3f5e866-eac0-4931-b2d1-490aef8861f9);}.f94ac11c-4a20-47b3-bae9-a9885119ebb5{fill:#eee;}.e258ac51-6123-4864-af5d-b2533943c91e{opacity:0.1;}.a645ed8a-62e2-48fe-8c7a-eb60c97ebf3d{fill:#212121;}.bed059df-3534-459f-a2cc-07cfb49126ab{opacity:0.4;}.bfbdeedc-13b9-4442-b34e-7d90bfe309ae{fill:#fff;}.e787ee5e-0667-41a9-8c41-1929c5bc7b26{clip-path:url(#be3c40f9-9746-4573-a554-7aa077f55da3);}.f067c6bf-4c4a-4d34-89fc-6faa8af165cc{fill:url(#eab522f5-f326-4368-9f9e-fd098ec7833e);}.bcb7b329-3469-4158-bbb7-72979ac5f557{clip-path:url(#b93ef33c-09c3-41ec-88ef-4bdf9593963c);}.bcefa6ea-293b-4e17-98ca-828e2241e8d3{fill:url(#aff752aa-e8eb-4625-bcb6-6ea9a01c4b64);}</style><clipPath id="bb4f06cd-bdd7-40dd-8cf5-2b674e4385dd"><rect class="b2affd3a-9642-4d54-b6fd-7ebb06b5cca6" x="16" y="40" width="96" height="16" rx="8"/></clipPath><clipPath id="b81c77ee-196f-4dd1-bd33-76b9e52bd729"><rect class="ba172573-d2d9-461a-aeac-6b2ad145143f" x="96" y="72" width="80" height="16" rx="8"/></clipPath><clipPath id="b9d55126-2097-461a-9ca3-57947294d47f"><rect class="bfb11d8f-891f-4d86-8702-57830681ca1f" x="40" y="72" width="40" height="16" rx="8"/></clipPath><clipPath id="a3f5e866-eac0-4931-b2d1-490aef8861f9"><rect class="afbf0b81-93f9-4459-bc15-c0f0157b8c7a" x="24" y="104" width="112" height="16" rx="8"/></clipPath><clipPath id="be3c40f9-9746-4573-a554-7aa077f55da3"><rect class="aa952753-7ea6-4b31-827a-d8f3d4ee5529" x="56" y="136" width="104" height="16" rx="8"/></clipPath><radialGradient id="eab522f5-f326-4368-9f9e-fd098ec7833e" cx="0" cy="0" r="192" gradientUnits="userSpaceOnUse"><stop offset="0" stop-color="#fff" stop-opacity="0.1"/><stop offset="0.143" stop-color="#c3c3c3" stop-opacity="0.077"/><stop offset="0.609" stop-color="#323232" stop-opacity="0.02"/><stop offset="1" stop-opacity="0"/></radialGradient><clipPath id="b93ef33c-09c3-41ec-88ef-4bdf9593963c"><path class="b2affd3a-9642-4d54-b6fd-7ebb06b5cca6" d="M104,288a79.876,79.876,0,0,0-79.375,89.849A36,36,0,0,0,0,412H0a36,36,0,0,0,36,36h78a29.842,29.842,0,0,0,14.927-3.982A80,80,0,0,0,104,288ZM72,456a8,8,0,0,0-8,8v8a8,8,0,0,0,16,0v-8A8,8,0,0,0,72,456Zm-24,0a8,8,0,0,0-8,8v8a8,8,0,0,0,16,0v-8A8,8,0,0,0,48,456Zm48,0a8,8,0,0,0-8,8v8a8,8,0,0,0,16,0v-8A8,8,0,0,0,96,456Z"/></clipPath><radialGradient id="aff752aa-e8eb-4625-bcb6-6ea9a01c4b64" cy="288" xlink:href="#eab522f5-f326-4368-9f9e-fd098ec7833e"/></defs><g id="ba64b51e-afd0-4f05-bd9d-6dfc6494cb75" data-name="fog"><rect class="b2affd3a-9642-4d54-b6fd-7ebb06b5cca6" width="192" height="192"/><rect class="f94ac11c-4a20-47b3-bae9-a9885119ebb5" x="16" y="40" width="96" height="16" rx="8"/><rect class="f94ac11c-4a20-47b3-bae9-a9885119ebb5" x="96" y="72" width="80" height="16" rx="8"/><rect class="f94ac11c-4a20-47b3-bae9-a9885119ebb5" x="40" y="72" width="40" height="16" rx="8"/><rect class="f94ac11c-4a20-47b3-bae9-a9885119ebb5" x="24" y="104" width="112" height="16" rx="8"/><rect class="f94ac11c-4a20-47b3-bae9-a9885119ebb5" x="56" y="136" width="104" height="16" rx="8"/><g class="e258ac51-6123-4864-af5d-b2533943c91e"><path class="a645ed8a-62e2-48fe-8c7a-eb60c97ebf3d" d="M72,87H48a8,8,0,0,1-7.975-7.5c-.01.166-.025.331-.025.5a8,8,0,0,0,8,8H72a8,8,0,0,0,8-8c0-.169-.015-.334-.025-.5A8,8,0,0,1,72,87Zm103.975-7.5A8,8,0,0,1,168,87H104a8,8,0,0,1-7.975-7.5c-.01.166-.025.331-.025.5a8,8,0,0,0,8,8h64a8,8,0,0,0,8-8C176,79.831,175.985,79.666,175.975,79.5ZM104,56a8,8,0,0,0,8-8c0-.169-.015-.334-.025-.5A8,8,0,0,1,104,55H24a8,8,0,0,1-7.975-7.5c-.01.166-.025.331-.025.5a8,8,0,0,0,8,8Zm32,56c0-.169-.015-.334-.025-.5A8,8,0,0,1,128,119H32a8,8,0,0,1-7.975-7.5c-.01.166-.025.331-.025.5a8,8,0,0,0,8,8h96A8,8,0,0,0,136,112Zm16,39H64a8,8,0,0,1-7.975-7.5c-.01.166-.025.331-.025.5a8,8,0,0,0,8,8h88a8,8,0,0,0,8-8c0-.169-.015-.334-.025-.5A8,8,0,0,1,152,151Z"/></g><g class="bed059df-3534-459f-a2cc-07cfb49126ab"><path class="bfbdeedc-13b9-4442-b34e-7d90bfe309ae" d="M168,72H104a8,8,0,0,0-8,8c0,.169.015.334.025.5A8,8,0,0,1,104,73h64a8,8,0,0,1,7.975,7.5c.01-.166.025-.331.025-.5A8,8,0,0,0,168,72Zm-32.025,40.5c.01-.166.025-.331.025-.5a8,8,0,0,0-8-8H32a8,8,0,0,0-8,8c0,.169.015.334.025.5A8,8,0,0,1,32,105h96A8,8,0,0,1,135.975,112.5ZM104,41a8,8,0,0,1,7.975,7.5c.01-.166.025-.331.025-.5a8,8,0,0,0-8-8H24a8,8,0,0,0-8,8c0,.169.015.334.025.5A8,8,0,0,1,24,41Zm48,95H64a8,8,0,0,0-8,8c0,.169.015.334.025.5A8,8,0,0,1,64,137h88a8,8,0,0,1,7.975,7.5c.01-.166.025-.331.025-.5A8,8,0,0,0,152,136ZM48,72a8,8,0,0,0-8,8c0,.169.015.334.025.5A8,8,0,0,1,48,73H72a8,8,0,0,1,7.975,7.5c.01-.166.025-.331.025-.5a8,8,0,0,0-8-8Z"/></g><g class="e787ee5e-0667-41a9-8c41-1929c5bc7b26"><circle class="f067c6bf-4c4a-4d34-89fc-6faa8af165cc" r="192"/></g></g><g id="f76e05f2-af10-48fa-9ff3-25483113ac55" data-name="rain-day"><g class="bcb7b329-3469-4158-bbb7-72979ac5f557"><circle class="bcefa6ea-293b-4e17-98ca-828e2241e8d3" cy="288" r="192"/></g></g></svg>