<svg xmlns="http://www.w3.org/2000/svg" xmlns:xlink="http://www.w3.org/1999/xlink" width="192" height="192" viewBox="0 0 192 192"><defs><style>.b9af8d5b-3670-4c13-a9e2-b72e82fdb776{fill:none;}.b38b6936-0419-407d-b80d-fd6d8770fbc6{fill:#fdd835;}.f0f65698-dae5-4511-8e85-959fbe4ce237{opacity:0.2;}.aa4f6c76-ee71-442e-8920-624d6a84aabb{fill:#bf360c;}.b72fddd0-4bcd-4175-a270-08aad73f92ce{fill:#fff;}.b10525b6-3992-4644-8ad2-655007363700{clip-path:url(#a37436af-a347-4047-bb75-a84f8356c987);}.b86fa650-0b22-4189-857f-ab2ff4b2a66c{fill:url(#bc9b8c08-4a74-4222-9446-585dfdf0fc66);}.a38a504a-5d42-4b06-b006-f9d7ee1d6d8c{clip-path:url(#b1d813ff-46ff-45f7-ac02-a5148ab9b478);}.a2d8ef05-3469-4c89-acf9-4a30d029f14a{fill:url(#ecf47d70-8797-498e-9eb0-0c39f07eef46);}.f4b766a1-e839-45b1-893c-cf2395cf979d{clip-path:url(#b8975cf9-a72d-45af-90ee-986bc97bb22f);}.b9677911-0871-4d93-8811-067ac00a8c71{fill:url(#af0f8246-3a27-4810-8dea-0c00a2fcded9);}.fac89291-8d2f-4031-a4a8-00acc3a413a6{clip-path:url(#b7532983-33d1-4a90-a524-9219e506cddb);}.e8670946-4b1b-45f9-a8aa-a341f692e671{fill:url(#f11f4297-14c3-4448-aff2-6542425f8f2b);}</style><clipPath id="a37436af-a347-4047-bb75-a84f8356c987"><circle class="b9af8d5b-3670-4c13-a9e2-b72e82fdb776" cx="96" cy="96" r="80"/></clipPath><radialGradient id="bc9b8c08-4a74-4222-9446-585dfdf0fc66" cx="0" cy="0" r="192" gradientUnits="userSpaceOnUse"><stop offset="0" stop-color="#fff" stop-opacity="0.1"/><stop offset="0.143" stop-color="#c3c3c3" stop-opacity="0.077"/><stop offset="0.609" stop-color="#323232" stop-opacity="0.02"/><stop offset="1" stop-opacity="0"/></radialGradient><clipPath id="b1d813ff-46ff-45f7-ac02-a5148ab9b478"><path class="b9af8d5b-3670-4c13-a9e2-b72e82fdb776" d="M376.005,16.4A80,80,0,1,0,463.6,104,88,88,0,0,1,376.005,16.4Z"/></clipPath><radialGradient id="ecf47d70-8797-498e-9eb0-0c39f07eef46" cx="288" xlink:href="#bc9b8c08-4a74-4222-9446-585dfdf0fc66"/><clipPath id="b8975cf9-a72d-45af-90ee-986bc97bb22f"><path class="b9af8d5b-3670-4c13-a9e2-b72e82fdb776" d="M176,384A80,80,0,1,0,24.817,420.5,7.986,7.986,0,0,0,32,432a80.479,80.479,0,0,0,16,16,8,8,0,0,0,0,16h96a8,8,0,0,0,0-16,80.479,80.479,0,0,0,16-16,7.986,7.986,0,0,0,7.182-11.5A79.623,79.623,0,0,0,176,384Z"/></clipPath><radialGradient id="af0f8246-3a27-4810-8dea-0c00a2fcded9" cy="288" xlink:href="#bc9b8c08-4a74-4222-9446-585dfdf0fc66"/><clipPath id="b7532983-33d1-4a90-a524-9219e506cddb"><path class="b9af8d5b-3670-4c13-a9e2-b72e82fdb776" d="M463.6,392a88,88,0,0,1-87.6-87.6,79.988,79.988,0,0,0-63.188,116.1A7.986,7.986,0,0,0,320,432a80.479,80.479,0,0,0,16,16,8,8,0,0,0,0,16h96a8,8,0,0,0,0-16h-.008a80.428,80.428,0,0,0,16-16H448a7.986,7.986,0,0,0,7.191-11.488A79.483,79.483,0,0,0,463.6,392Z"/></clipPath><radialGradient id="f11f4297-14c3-4448-aff2-6542425f8f2b" cx="288" cy="288" xlink:href="#bc9b8c08-4a74-4222-9446-585dfdf0fc66"/></defs><g id="ffbe0cfb-16ba-4ba4-a7cc-a974d8dc93a2" data-name="clear-day"><rect class="b9af8d5b-3670-4c13-a9e2-b72e82fdb776" width="192" height="192"/><circle class="b38b6936-0419-407d-b80d-fd6d8770fbc6" cx="96" cy="96" r="80"/><g class="f0f65698-dae5-4511-8e85-959fbe4ce237"><path class="aa4f6c76-ee71-442e-8920-624d6a84aabb" d="M96,175A79.993,79.993,0,0,1,16.013,95.5c0,.167-.013.332-.013.5a80,80,0,0,0,160,0c0-.168-.012-.333-.013-.5A79.993,79.993,0,0,1,96,175Z"/></g><g class="f0f65698-dae5-4511-8e85-959fbe4ce237"><path class="b72fddd0-4bcd-4175-a270-08aad73f92ce" d="M96,17a79.993,79.993,0,0,1,79.987,79.5c0-.167.013-.332.013-.5A80,80,0,0,0,16,96c0,.168.012.333.013.5A79.993,79.993,0,0,1,96,17Z"/></g><g class="b10525b6-3992-4644-8ad2-655007363700"><circle class="b86fa650-0b22-4189-857f-ab2ff4b2a66c" r="192"/></g></g><g id="b8393d6b-dcec-4adb-b383-958a91723884" data-name="clear-night"><g class="a38a504a-5d42-4b06-b006-f9d7ee1d6d8c"><circle class="a2d8ef05-3469-4c89-acf9-4a30d029f14a" cx="288" r="192"/></g></g><g id="a65d604a-912f-489c-ac56-5f3f0dc8268f" data-name="fog-day"><g class="f4b766a1-e839-45b1-893c-cf2395cf979d"><circle class="b9677911-0871-4d93-8811-067ac00a8c71" cy="288" r="192"/></g></g><g id="b8e3c7df-3088-4669-b8d2-7e9814228c31" data-name="fog-night"><g class="fac89291-8d2f-4031-a4a8-00acc3a413a6"><circle class="e8670946-4b1b-45f9-a8aa-a341f692e671" cx="288" cy="288" r="192"/></g></g></svg>