<svg xmlns="http://www.w3.org/2000/svg" xmlns:xlink="http://www.w3.org/1999/xlink" width="192" height="192" viewBox="0 0 192 192"><defs><style>.a8d7f06e-08cb-49bd-a86a-a591bbc2e454,.bc727458-e69d-415c-bbbc-1eeec67163d3{fill:none;}.bc727458-e69d-415c-bbbc-1eeec67163d3{clip-path:url(#eeb65b1e-d016-429b-a359-0ce5fa5e5023);}.e31c6b36-24e5-448b-94f3-952e31cc9b76{fill:#eee;}.f3f13fc4-03a5-4a74-b5f3-558e836ace8d{opacity:0.1;}.adee1ee1-9d81-4c6a-99f0-5bd7e73fc276{fill:#212121;}.b14ae175-7365-4a6e-aa7b-a4053d76797e{opacity:0.4;}.fa6617aa-9b62-4d78-bbd6-d935ab3532ea{fill:#fff;}.ff89f66f-9344-4cbc-b989-a2bce421a99d{clip-path:url(#f216be92-5dad-42bb-9aac-baab20a9434a);}.ef398445-9ad6-4332-8da3-dc0da2e8f99e{fill:url(#f1d74bd3-7839-4fa3-aca9-d679db99b296);}</style><clipPath id="eeb65b1e-d016-429b-a359-0ce5fa5e5023"><path class="a8d7f06e-08cb-49bd-a86a-a591bbc2e454" d="M104,112H24v16h80a8,8,0,1,1-8,8H80a24,24,0,1,0,24-24Z"/></clipPath><clipPath id="f216be92-5dad-42bb-9aac-baab20a9434a"><path class="bc727458-e69d-415c-bbbc-1eeec67163d3" d="M136,32V48a16,16,0,0,1,0,32H24V96H136a32,32,0,0,0,0-64Z"/></clipPath><radialGradient id="f1d74bd3-7839-4fa3-aca9-d679db99b296" cx="0" cy="0" r="192" gradientUnits="userSpaceOnUse"><stop offset="0" stop-color="#fff" stop-opacity="0.1"/><stop offset="0.143" stop-color="#c3c3c3" stop-opacity="0.077"/><stop offset="0.609" stop-color="#323232" stop-opacity="0.02"/><stop offset="1" stop-opacity="0"/></radialGradient></defs><g id="f3b5aae3-e832-496b-94a9-8d944f7c47c8" data-name="windy"><rect class="a8d7f06e-08cb-49bd-a86a-a591bbc2e454" width="192" height="192"/><path class="e31c6b36-24e5-448b-94f3-952e31cc9b76" d="M104,112H24v16h80a8,8,0,1,1-8,8H80a24,24,0,1,0,24-24Z"/><path class="e31c6b36-24e5-448b-94f3-952e31cc9b76" d="M136,32V48a16,16,0,0,1,0,32H24V96H136a32,32,0,0,0,0-64Z"/><g class="f3f13fc4-03a5-4a74-b5f3-558e836ace8d"><path class="adee1ee1-9d81-4c6a-99f0-5bd7e73fc276" d="M111.975,135.5c.01-.166.025-.331.025-.5a8,8,0,0,0-8-8H24v1h80A8,8,0,0,1,111.975,135.5Zm40-72c0-.168.025-.331.025-.5a16,16,0,0,0-16-16v1A15.989,15.989,0,0,1,151.975,63.5ZM104,159a24.119,24.119,0,0,1-23.974-23H80a24,24,0,0,0,48,0c0-.168-.009-.333-.013-.5A24.114,24.114,0,0,1,104,159Zm63.987-95.5A32.151,32.151,0,0,1,136,95H24v1H136a32.152,32.152,0,0,0,32-32C168,63.832,167.99,63.667,167.987,63.5Z"/></g><g class="b14ae175-7365-4a6e-aa7b-a4053d76797e"><path class="fa6617aa-9b62-4d78-bbd6-d935ab3532ea" d="M136,80H24v1H136a16,16,0,0,0,16-16c0-.169-.02-.332-.025-.5A15.989,15.989,0,0,1,136,80Zm0-48v1a32.151,32.151,0,0,1,31.987,31.5c0-.167.013-.332.013-.5A32.152,32.152,0,0,0,136,32Zm-32,80H24v1h80a24.114,24.114,0,0,1,23.987,23.5c0-.167.013-.332.013-.5A24.115,24.115,0,0,0,104,112Zm0,32a8,8,0,0,1-8-8H80c0,.335.012.668.026,1H96a8,8,0,0,0,16,0c0-.169-.015-.334-.025-.5A8,8,0,0,1,104,144Z"/></g><g class="ff89f66f-9344-4cbc-b989-a2bce421a99d"><circle class="ef398445-9ad6-4332-8da3-dc0da2e8f99e" r="192"/></g></g></svg>