<svg xmlns="http://www.w3.org/2000/svg" xmlns:xlink="http://www.w3.org/1999/xlink" width="192" height="192" viewBox="0 0 192 192"><defs><style>.ecd01ca7-d9d2-49b3-8d02-d21744c2d66e,.f2734a93-bfe3-4d60-b002-8bd2057817fc{fill:none;}.ecd01ca7-d9d2-49b3-8d02-d21744c2d66e{clip-path:url(#b7ef3a15-ed28-4dfc-9b60-d069606c66c0);}.bb735358-3b5d-4547-9907-0db07d3bb44f{fill:#eee;}.b1d417f1-11ef-41db-bf9c-460ddafacabc{opacity:0.1;}.fde7b453-2975-4aba-95e5-c0694ee6ff84{fill:#212121;}.be7eddd4-2f04-417a-b07d-55bd552e73f7{opacity:0.4;}.afc0d05f-6ef8-4382-9512-0e98175c54c9{fill:#fff;}.f422f37f-a8d8-44cb-b951-f5c58530d918{fill:#fafafa;}.ad563df5-97fd-4a9f-a0ae-36568045ca61{clip-path:url(#f18b15c6-5d32-4aff-87e8-3f8b487daa7a);}.b6011645-8d95-453e-bd3f-2e312e66b771{fill:url(#ae362b8e-56a7-440d-b5db-bf6fd4f4c199);}.b4d6818d-cbc8-4e97-b759-b69cb254a9b7{clip-path:url(#f444775f-6808-4870-80b8-6c6412129c01);}.bba37121-758f-4518-b397-bd07ff34d73e{fill:url(#f5bce7bb-fefa-4a79-a70e-45e8775f7a9e);}.fc720cf5-04d8-437c-aab5-b2d31e9963fa{clip-path:url(#f92719d7-8894-433a-a35c-f106890c4b28);}.f337ee8e-1cde-40f0-8423-7d9ef01b8b67{fill:url(#ade98367-5367-45ef-a006-d711d784bb66);}.bdf20a0e-3fd0-4654-994e-97f173a9ccc1{clip-path:url(#f1b9fec5-1f33-474f-a0a0-75c6defbe082);}.f201b776-4d93-49ac-82df-95c7ebaa7086{fill:url(#ea25f8c4-112f-471d-a889-19959fccd5ce);}</style><clipPath id="b7ef3a15-ed28-4dfc-9b60-d069606c66c0"><path class="f2734a93-bfe3-4d60-b002-8bd2057817fc" d="M392,400H312v16h80a8,8,0,1,1-8,8H368a24,24,0,1,0,24-24Z"/></clipPath><clipPath id="f18b15c6-5d32-4aff-87e8-3f8b487daa7a"><path class="f2734a93-bfe3-4d60-b002-8bd2057817fc" d="M154.817,64.11A60,60,0,0,0,42.788,48.286,48,48,0,0,0,0,96H0a48,48,0,0,0,48,48H152a40,40,0,0,0,40-40h0A39.994,39.994,0,0,0,154.817,64.11ZM72,152a8,8,0,1,0,8,8A8,8,0,0,0,72,152Zm24,8a8,8,0,1,0,8,8A8,8,0,0,0,96,160Zm24-8a8,8,0,1,0,8,8A8,8,0,0,0,120,152Z"/></clipPath><radialGradient id="ae362b8e-56a7-440d-b5db-bf6fd4f4c199" cx="8" cy="0" r="192" gradientUnits="userSpaceOnUse"><stop offset="0" stop-color="#fff" stop-opacity="0.1"/><stop offset="0.143" stop-color="#c3c3c3" stop-opacity="0.077"/><stop offset="0.609" stop-color="#323232" stop-opacity="0.02"/><stop offset="1" stop-opacity="0"/></radialGradient><clipPath id="f444775f-6808-4870-80b8-6c6412129c01"><path class="f2734a93-bfe3-4d60-b002-8bd2057817fc" d="M392,0a79.876,79.876,0,0,0-79.375,89.849A36,36,0,0,0,288,124h0a36,36,0,0,0,36,36h78a29.842,29.842,0,0,0,14.927-3.982A80,80,0,0,0,392,0ZM360,176a8,8,0,1,0,8,8A8,8,0,0,0,360,176Zm-24-8a8,8,0,1,0,8,8A8,8,0,0,0,336,168Zm48,0a8,8,0,1,0,8,8A8,8,0,0,0,384,168Z"/></clipPath><radialGradient id="f5bce7bb-fefa-4a79-a70e-45e8775f7a9e" cx="288" xlink:href="#ae362b8e-56a7-440d-b5db-bf6fd4f4c199"/><clipPath id="f92719d7-8894-433a-a35c-f106890c4b28"><circle class="f2734a93-bfe3-4d60-b002-8bd2057817fc" cx="96" cy="384" r="80"/></clipPath><radialGradient id="ade98367-5367-45ef-a006-d711d784bb66" cx="0" cy="288" xlink:href="#ae362b8e-56a7-440d-b5db-bf6fd4f4c199"/><clipPath id="f1b9fec5-1f33-474f-a0a0-75c6defbe082"><path class="ecd01ca7-d9d2-49b3-8d02-d21744c2d66e" d="M424,320v16a16,16,0,0,1,0,32H312v16H424a32,32,0,0,0,0-64Z"/></clipPath><radialGradient id="ea25f8c4-112f-471d-a889-19959fccd5ce" cx="288" cy="288" xlink:href="#ae362b8e-56a7-440d-b5db-bf6fd4f4c199"/></defs><g id="a90fd4d9-8c6c-40b9-8b96-4af9f29ecdfc" data-name="snow"><rect class="f2734a93-bfe3-4d60-b002-8bd2057817fc" width="192" height="192"/><path class="bb735358-3b5d-4547-9907-0db07d3bb44f" d="M154.817,64.11A60,60,0,0,0,42.788,48.286,48,48,0,0,0,0,96H0a48,48,0,0,0,48,48H152a40,40,0,0,0,40-40h0A39.994,39.994,0,0,0,154.817,64.11Z"/><g class="b1d417f1-11ef-41db-bf9c-460ddafacabc"><path class="fde7b453-2975-4aba-95e5-c0694ee6ff84" d="M152,143H48A47.994,47.994,0,0,1,.012,95.483C.01,95.656,0,95.827,0,96H0a48,48,0,0,0,48,48H152a40,40,0,0,0,40-40h0c0-.171-.01-.34-.012-.511A40,40,0,0,1,152,143Z"/></g><g class="be7eddd4-2f04-417a-b07d-55bd552e73f7"><path class="afc0d05f-6ef8-4382-9512-0e98175c54c9" d="M154.817,64.11A60,60,0,0,0,42.788,48.286,48,48,0,0,0,0,96H0c0,.162.011.321.012.483a48,48,0,0,1,42.776-47.2A60,60,0,0,1,154.817,65.11a39.989,39.989,0,0,1,37.171,39.379c0-.163.012-.325.012-.489h0A39.994,39.994,0,0,0,154.817,64.11Z"/></g><rect class="f422f37f-a8d8-44cb-b951-f5c58530d918" x="88" y="160" width="16" height="16" rx="8"/><rect class="f422f37f-a8d8-44cb-b951-f5c58530d918" x="64" y="152" width="16" height="16" rx="8"/><rect class="f422f37f-a8d8-44cb-b951-f5c58530d918" x="112" y="152" width="16" height="16" rx="8"/><g class="b1d417f1-11ef-41db-bf9c-460ddafacabc"><path class="fde7b453-2975-4aba-95e5-c0694ee6ff84" d="M72,167a8,8,0,0,1-7.975-7.5c-.01.166-.025.331-.025.5a8,8,0,0,0,16,0c0-.169-.015-.334-.025-.5A8,8,0,0,1,72,167Zm55.975-7.5a7.99,7.99,0,0,1-15.95,0c-.01.166-.025.331-.025.5a8,8,0,0,0,16,0C128,159.831,127.985,159.666,127.975,159.5ZM96,175a8,8,0,0,1-7.975-7.5c-.01.166-.025.331-.025.5a8,8,0,0,0,16,0c0-.169-.015-.334-.025-.5A8,8,0,0,1,96,175Z"/></g><g class="be7eddd4-2f04-417a-b07d-55bd552e73f7"><path class="afc0d05f-6ef8-4382-9512-0e98175c54c9" d="M72,152a8,8,0,0,0-8,8c0,.169.015.334.025.5a7.99,7.99,0,0,1,15.95,0c.01-.166.025-.331.025-.5A8,8,0,0,0,72,152Zm48,0a8,8,0,0,0-8,8c0,.169.015.334.025.5a7.99,7.99,0,0,1,15.95,0c.01-.166.025-.331.025-.5A8,8,0,0,0,120,152Zm-24,8a8,8,0,0,0-8,8c0,.169.015.334.025.5a7.99,7.99,0,0,1,15.95,0c.01-.166.025-.331.025-.5A8,8,0,0,0,96,160Z"/></g><g class="ad563df5-97fd-4a9f-a0ae-36568045ca61"><circle class="b6011645-8d95-453e-bd3f-2e312e66b771" cx="8" r="192"/></g></g><g id="f0e2337e-87ca-4e5a-a0fa-cd3f57dc30a8" data-name="snow-day"><g class="b4d6818d-cbc8-4e97-b759-b69cb254a9b7"><circle class="bba37121-758f-4518-b397-bd07ff34d73e" cx="288" r="192"/></g></g><g id="f007cc2e-1057-458e-84be-0a2ef8403fa0" data-name="unknown"><g class="fc720cf5-04d8-437c-aab5-b2d31e9963fa"><circle class="f337ee8e-1cde-40f0-8423-7d9ef01b8b67" cy="288" r="192"/></g></g><g id="a970d886-7db0-4e35-8168-7e41188b19d1" data-name="windy"><g class="bdf20a0e-3fd0-4654-994e-97f173a9ccc1"><circle class="f201b776-4d93-49ac-82df-95c7ebaa7086" cx="288" cy="288" r="192"/></g></g></svg>