<svg xmlns="http://www.w3.org/2000/svg" xmlns:xlink="http://www.w3.org/1999/xlink" width="192" height="192" viewBox="0 0 192 192"><defs><style>.a78eb87a-1520-42c1-81f7-807e38330d48{fill:none;}.e1ca4485-2756-447f-9a6f-7ed1e8776842{fill:#eee;}.b81da570-b280-4aee-9592-a244d70b8d99{opacity:0.1;}.edcc54bb-5b0a-4b72-8014-94fac208bb7c{fill:#212121;}.e9438cc6-97c2-4153-b587-3a69834666a3{opacity:0.4;}.a0427eba-fa05-4f93-b01a-0950ddb1faf8{fill:#fff;}.b983c6ae-6e30-4ac1-acae-674fcb2bdcaa{fill:#29b6f6;}.e6d0b265-4b47-48f7-a9b9-efb621ac1b8b{opacity:0.2;}.b291f7ce-6968-4784-81c3-ca6c13c503c9{fill:#263238;}.f01a2d85-5329-4e17-8ad5-f34b717a92fb{clip-path:url(#ea3d784d-d65b-4ccb-8fa5-fa113a5c8d93);}.f39fce3d-feef-4d54-bcba-8c0905f7f30a{fill:url(#e2d68f15-441f-45d9-8ced-eb935a72935f);}.ed997bde-a2f7-4e69-92cf-80ae6426fb50{clip-path:url(#b99f9a13-8439-4ddd-9314-5a47e9d9948e);}.bb93eff8-f424-4859-b7f4-ed95ad46b01d{fill:url(#bf8e6c36-8cc9-4d35-821a-2d62a4017f5b);}.a87121dd-dc6b-4b9d-820b-80bf2ec492f6{clip-path:url(#bd301d2f-5736-4503-9de6-50536639b4a4);}.b8d17a05-1b26-4e44-b357-e6d9d824e756{fill:url(#bdee96fe-4457-4aef-a36c-e24225b6242c);}.e6a13224-3447-49eb-8a2a-785ea493a164{clip-path:url(#b1c950ef-e1bc-474a-a191-cb924fbfd3ed);}.bac82064-e799-4a52-85e4-88db27cc2150{fill:url(#e4ca3de6-e727-4b28-9144-1587098b5ec3);}</style><clipPath id="ea3d784d-d65b-4ccb-8fa5-fa113a5c8d93"><path class="a78eb87a-1520-42c1-81f7-807e38330d48" d="M154.817,64.11A60,60,0,0,0,42.788,48.286,48,48,0,0,0,0,96H0a48,48,0,0,0,48,48H152a40,40,0,0,0,40-40h0A39.994,39.994,0,0,0,154.817,64.11ZM72,152a8,8,0,0,0-8,8v8a8,8,0,0,0,16,0v-8A8,8,0,0,0,72,152Zm48,0a8,8,0,0,0-8,8v8a8,8,0,0,0,16,0v-8A8,8,0,0,0,120,152Zm-24,0a8,8,0,0,0-8,8v8a8,8,0,0,0,16,0v-8A8,8,0,0,0,96,152Z"/></clipPath><radialGradient id="e2d68f15-441f-45d9-8ced-eb935a72935f" cx="8" cy="0" r="192" gradientUnits="userSpaceOnUse"><stop offset="0" stop-color="#fff" stop-opacity="0.1"/><stop offset="0.143" stop-color="#c3c3c3" stop-opacity="0.077"/><stop offset="0.609" stop-color="#323232" stop-opacity="0.02"/><stop offset="1" stop-opacity="0"/></radialGradient><clipPath id="b99f9a13-8439-4ddd-9314-5a47e9d9948e"><path class="a78eb87a-1520-42c1-81f7-807e38330d48" d="M392,0a79.876,79.876,0,0,0-79.375,89.849A36,36,0,0,0,288,124h0a36,36,0,0,0,36,36h78a29.842,29.842,0,0,0,14.927-3.982A80,80,0,0,0,392,0ZM360,168a8,8,0,0,0-8,8v8a8,8,0,0,0,16,0v-8A8,8,0,0,0,360,168Zm-24,0a8,8,0,0,0-8,8v8a8,8,0,0,0,16,0v-8A8,8,0,0,0,336,168Zm48,0a8,8,0,0,0-8,8v8a8,8,0,0,0,16,0v-8A8,8,0,0,0,384,168Z"/></clipPath><radialGradient id="bf8e6c36-8cc9-4d35-821a-2d62a4017f5b" cx="288" xlink:href="#e2d68f15-441f-45d9-8ced-eb935a72935f"/><clipPath id="bd301d2f-5736-4503-9de6-50536639b4a4"><path class="a78eb87a-1520-42c1-81f7-807e38330d48" d="M154.817,352.11A60,60,0,0,0,42.788,336.286,48,48,0,0,0,0,384H0a48,48,0,0,0,48,48H152a40,40,0,0,0,40-40h0A39.994,39.994,0,0,0,154.817,352.11ZM72,440a8,8,0,1,0,8,8A8,8,0,0,0,72,440Zm24,8a8,8,0,1,0,8,8A8,8,0,0,0,96,448Zm24-8a8,8,0,1,0,8,8A8,8,0,0,0,120,440Z"/></clipPath><radialGradient id="bdee96fe-4457-4aef-a36c-e24225b6242c" cy="288" xlink:href="#e2d68f15-441f-45d9-8ced-eb935a72935f"/><clipPath id="b1c950ef-e1bc-474a-a191-cb924fbfd3ed"><path class="a78eb87a-1520-42c1-81f7-807e38330d48" d="M392,288a79.876,79.876,0,0,0-79.375,89.849A36,36,0,0,0,288,412h0a36,36,0,0,0,36,36h78a29.842,29.842,0,0,0,14.927-3.982A80,80,0,0,0,392,288ZM360,464a8,8,0,1,0,8,8A8,8,0,0,0,360,464Zm-24-8a8,8,0,1,0,8,8A8,8,0,0,0,336,456Zm48,0a8,8,0,1,0,8,8A8,8,0,0,0,384,456Z"/></clipPath><radialGradient id="e4ca3de6-e727-4b28-9144-1587098b5ec3" cx="288" cy="288" xlink:href="#e2d68f15-441f-45d9-8ced-eb935a72935f"/></defs><g id="bbb6834d-a6fc-4a90-821e-f14c49f5f093" data-name="rain"><rect class="a78eb87a-1520-42c1-81f7-807e38330d48" width="192" height="192"/><path class="e1ca4485-2756-447f-9a6f-7ed1e8776842" d="M154.817,64.11A60,60,0,0,0,42.788,48.286,48,48,0,0,0,0,96H0a48,48,0,0,0,48,48H152a40,40,0,0,0,40-40h0A39.994,39.994,0,0,0,154.817,64.11Z"/><g class="b81da570-b280-4aee-9592-a244d70b8d99"><path class="edcc54bb-5b0a-4b72-8014-94fac208bb7c" d="M152,143H48A47.994,47.994,0,0,1,.012,95.483C.01,95.656,0,95.827,0,96H0a48,48,0,0,0,48,48H152a40,40,0,0,0,40-40h0c0-.171-.01-.34-.012-.511A40,40,0,0,1,152,143Z"/></g><g class="e9438cc6-97c2-4153-b587-3a69834666a3"><path class="a0427eba-fa05-4f93-b01a-0950ddb1faf8" d="M154.817,64.11A60,60,0,0,0,42.788,48.286,48,48,0,0,0,0,96H0c0,.162.011.321.012.483a48,48,0,0,1,42.776-47.2A60,60,0,0,1,154.817,65.11a39.989,39.989,0,0,1,37.171,39.379c0-.163.012-.325.012-.489h0A39.994,39.994,0,0,0,154.817,64.11Z"/></g><rect class="b983c6ae-6e30-4ac1-acae-674fcb2bdcaa" x="64" y="152" width="16" height="24" rx="8"/><rect class="b983c6ae-6e30-4ac1-acae-674fcb2bdcaa" x="88" y="152" width="16" height="24" rx="8"/><rect class="b983c6ae-6e30-4ac1-acae-674fcb2bdcaa" x="112" y="152" width="16" height="24" rx="8"/><g class="e6d0b265-4b47-48f7-a9b9-efb621ac1b8b"><path class="b291f7ce-6968-4784-81c3-ca6c13c503c9" d="M96,175a8,8,0,0,1-8-8v1a8,8,0,0,0,16,0v-1A8,8,0,0,1,96,175Zm-24,0a8,8,0,0,1-8-8v1a8,8,0,0,0,16,0v-1A8,8,0,0,1,72,175Zm48,0a8,8,0,0,1-8-8v1a8,8,0,0,0,16,0v-1A8,8,0,0,1,120,175Z"/></g><g class="e6d0b265-4b47-48f7-a9b9-efb621ac1b8b"><path class="a0427eba-fa05-4f93-b01a-0950ddb1faf8" d="M72,152a8,8,0,0,0-8,8v1a8,8,0,0,1,16,0v-1A8,8,0,0,0,72,152Zm24,0a8,8,0,0,0-8,8v1a8,8,0,0,1,16,0v-1A8,8,0,0,0,96,152Zm24,0a8,8,0,0,0-8,8v1a8,8,0,0,1,16,0v-1A8,8,0,0,0,120,152Z"/></g><g class="f01a2d85-5329-4e17-8ad5-f34b717a92fb"><circle class="f39fce3d-feef-4d54-bcba-8c0905f7f30a" cx="8" r="192"/></g></g><g id="ff6f7c86-222d-4358-8260-427de0e81524" data-name="rain-day"><g class="ed997bde-a2f7-4e69-92cf-80ae6426fb50"><circle class="bb93eff8-f424-4859-b7f4-ed95ad46b01d" cx="288" r="192"/></g></g><g id="b152f908-1ef2-4074-8881-597f603107c2" data-name="snow"><g class="a87121dd-dc6b-4b9d-820b-80bf2ec492f6"><circle class="b8d17a05-1b26-4e44-b357-e6d9d824e756" cx="8" cy="288" r="192"/></g></g><g id="ba0ec1d1-3974-4bc6-bdb8-0d1ee1025ec3" data-name="snow-day"><g class="e6a13224-3447-49eb-8a2a-785ea493a164"><circle class="bac82064-e799-4a52-85e4-88db27cc2150" cx="288" cy="288" r="192"/></g></g></svg>