<svg xmlns="http://www.w3.org/2000/svg" xmlns:xlink="http://www.w3.org/1999/xlink" width="192" height="192" viewBox="0 0 192 192"><defs><style>.ebc900ce-ec91-49f0-8ede-99bfd854f992{fill:none;}.f23a6628-2360-431a-b5fa-f378a8f291ee{fill:#eee;}.bc006eae-c45f-40f2-9762-1ebcee35aa5e{opacity:0.1;}.f846d6f5-0520-44b8-954b-01ceb1e4badf{fill:#212121;}.b3ba8909-cee7-40ee-b7ee-3afe8489dcb4{opacity:0.4;}.ed944b7b-9a3c-4b4c-9c85-3e4e9adcd752{fill:#fff;}.b777a475-ee92-4d23-895e-a5c535b22748{fill:#29b6f6;}.acbfd306-bcf1-4de9-be89-9111891b5569{opacity:0.2;}.aebfea4b-874b-4276-a39e-c9f5ef352ea5{fill:#263238;}.aa3f7cf2-7efa-4196-8faa-3fa9d66950ba{clip-path:url(#b5a11547-0a01-44ac-b247-18c2014f9c85);}.bac376dd-20b5-4cf8-9064-7d64ac3de1ef{fill:url(#fc9d3a56-03e4-425c-b865-0ec7bcf27595);}.b215e637-3114-49bc-af0b-48616c43309b{clip-path:url(#e3f44534-14ee-4808-b2b2-3e5173809f0c);}.efe80bcb-f73d-4a81-a128-ab327d4ae435{fill:url(#b7c7ce3e-7077-450d-91d3-e58a8a1f4510);}.bd6a3408-d5bd-4dbc-9857-b0edba5e4368{clip-path:url(#eed964a6-c1ba-45c1-9fce-cf5394e20aa1);}.e232969e-a549-4cd5-9355-23d7c477d558{fill:url(#bdd97589-6b83-4e5e-ac7b-9ac80210f447);}.ebe70f5a-15f9-4523-845b-164871efbdc7{clip-path:url(#a5db7c8a-a887-433a-9ebb-6302dcc66c5d);}.a5f75abf-978c-4bab-a9c5-0a14c24c1c9b{fill:url(#a2792344-cde7-4446-b14b-eb89d2d73349);}</style><clipPath id="b5a11547-0a01-44ac-b247-18c2014f9c85"><path class="ebc900ce-ec91-49f0-8ede-99bfd854f992" d="M154.817,64.11A60,60,0,0,0,42.788,48.286,48,48,0,0,0,0,96H0a48,48,0,0,0,48,48H152a40,40,0,0,0,40-40h0A39.994,39.994,0,0,0,154.817,64.11ZM72,152a8,8,0,0,0-8,8v8a8,8,0,0,0,16,0v-8A8,8,0,0,0,72,152Zm48,0a8,8,0,0,0-8,8v8a8,8,0,0,0,16,0v-8A8,8,0,0,0,120,152Zm-24,0a8,8,0,0,0-8,8v8a8,8,0,0,0,16,0v-8A8,8,0,0,0,96,152Z"/></clipPath><radialGradient id="fc9d3a56-03e4-425c-b865-0ec7bcf27595" cx="8" cy="0" r="192" gradientUnits="userSpaceOnUse"><stop offset="0" stop-color="#fff" stop-opacity="0.1"/><stop offset="0.143" stop-color="#c3c3c3" stop-opacity="0.077"/><stop offset="0.609" stop-color="#323232" stop-opacity="0.02"/><stop offset="1" stop-opacity="0"/></radialGradient><clipPath id="e3f44534-14ee-4808-b2b2-3e5173809f0c"><path class="ebc900ce-ec91-49f0-8ede-99bfd854f992" d="M392,0a79.876,79.876,0,0,0-79.375,89.849A36,36,0,0,0,288,124h0a36,36,0,0,0,36,36h78a29.842,29.842,0,0,0,14.927-3.982A80,80,0,0,0,392,0ZM360,168a8,8,0,0,0-8,8v8a8,8,0,0,0,16,0v-8A8,8,0,0,0,360,168Zm-24,0a8,8,0,0,0-8,8v8a8,8,0,0,0,16,0v-8A8,8,0,0,0,336,168Zm48,0a8,8,0,0,0-8,8v8a8,8,0,0,0,16,0v-8A8,8,0,0,0,384,168Z"/></clipPath><radialGradient id="b7c7ce3e-7077-450d-91d3-e58a8a1f4510" cx="288" xlink:href="#fc9d3a56-03e4-425c-b865-0ec7bcf27595"/><clipPath id="eed964a6-c1ba-45c1-9fce-cf5394e20aa1"><path class="ebc900ce-ec91-49f0-8ede-99bfd854f992" d="M154.817,352.11A60,60,0,0,0,42.788,336.286,48,48,0,0,0,0,384H0a48,48,0,0,0,48,48H152a40,40,0,0,0,40-40h0A39.994,39.994,0,0,0,154.817,352.11ZM72,440a8,8,0,1,0,8,8A8,8,0,0,0,72,440Zm24,8a8,8,0,1,0,8,8A8,8,0,0,0,96,448Zm24-8a8,8,0,1,0,8,8A8,8,0,0,0,120,440Z"/></clipPath><radialGradient id="bdd97589-6b83-4e5e-ac7b-9ac80210f447" cy="288" xlink:href="#fc9d3a56-03e4-425c-b865-0ec7bcf27595"/><clipPath id="a5db7c8a-a887-433a-9ebb-6302dcc66c5d"><path class="ebc900ce-ec91-49f0-8ede-99bfd854f992" d="M392,288a79.876,79.876,0,0,0-79.375,89.849A36,36,0,0,0,288,412h0a36,36,0,0,0,36,36h78a29.842,29.842,0,0,0,14.927-3.982A80,80,0,0,0,392,288ZM360,464a8,8,0,1,0,8,8A8,8,0,0,0,360,464Zm-24-8a8,8,0,1,0,8,8A8,8,0,0,0,336,456Zm48,0a8,8,0,1,0,8,8A8,8,0,0,0,384,456Z"/></clipPath><radialGradient id="a2792344-cde7-4446-b14b-eb89d2d73349" cx="288" cy="288" xlink:href="#fc9d3a56-03e4-425c-b865-0ec7bcf27595"/></defs><g id="ea5ff45b-95ea-49d9-8c8a-06e51c9bc646" data-name="rain"><rect class="ebc900ce-ec91-49f0-8ede-99bfd854f992" width="192" height="192"/><path class="f23a6628-2360-431a-b5fa-f378a8f291ee" d="M154.817,64.11A60,60,0,0,0,42.788,48.286,48,48,0,0,0,0,96H0a48,48,0,0,0,48,48H152a40,40,0,0,0,40-40h0A39.994,39.994,0,0,0,154.817,64.11Z"/><g class="bc006eae-c45f-40f2-9762-1ebcee35aa5e"><path class="f846d6f5-0520-44b8-954b-01ceb1e4badf" d="M152,143H48A47.994,47.994,0,0,1,.012,95.483C.01,95.656,0,95.827,0,96H0a48,48,0,0,0,48,48H152a40,40,0,0,0,40-40h0c0-.171-.01-.34-.012-.511A40,40,0,0,1,152,143Z"/></g><g class="b3ba8909-cee7-40ee-b7ee-3afe8489dcb4"><path class="ed944b7b-9a3c-4b4c-9c85-3e4e9adcd752" d="M154.817,64.11A60,60,0,0,0,42.788,48.286,48,48,0,0,0,0,96H0c0,.162.011.321.012.483a48,48,0,0,1,42.776-47.2A60,60,0,0,1,154.817,65.11a39.989,39.989,0,0,1,37.171,39.379c0-.163.012-.325.012-.489h0A39.994,39.994,0,0,0,154.817,64.11Z"/></g><rect class="b777a475-ee92-4d23-895e-a5c535b22748" x="64" y="152" width="16" height="24" rx="8"/><rect class="b777a475-ee92-4d23-895e-a5c535b22748" x="88" y="152" width="16" height="24" rx="8"/><rect class="b777a475-ee92-4d23-895e-a5c535b22748" x="112" y="152" width="16" height="24" rx="8"/><g class="acbfd306-bcf1-4de9-be89-9111891b5569"><path class="aebfea4b-874b-4276-a39e-c9f5ef352ea5" d="M96,175a8,8,0,0,1-8-8v1a8,8,0,0,0,16,0v-1A8,8,0,0,1,96,175Zm-24,0a8,8,0,0,1-8-8v1a8,8,0,0,0,16,0v-1A8,8,0,0,1,72,175Zm48,0a8,8,0,0,1-8-8v1a8,8,0,0,0,16,0v-1A8,8,0,0,1,120,175Z"/></g><g class="acbfd306-bcf1-4de9-be89-9111891b5569"><path class="ed944b7b-9a3c-4b4c-9c85-3e4e9adcd752" d="M72,152a8,8,0,0,0-8,8v1a8,8,0,0,1,16,0v-1A8,8,0,0,0,72,152Zm24,0a8,8,0,0,0-8,8v1a8,8,0,0,1,16,0v-1A8,8,0,0,0,96,152Zm24,0a8,8,0,0,0-8,8v1a8,8,0,0,1,16,0v-1A8,8,0,0,0,120,152Z"/></g><g class="aa3f7cf2-7efa-4196-8faa-3fa9d66950ba"><circle class="bac376dd-20b5-4cf8-9064-7d64ac3de1ef" cx="8" r="192"/></g></g><g id="ba4e9fb3-a5bb-44f4-8f9d-b45c4e416de3" data-name="rain-day"><g class="b215e637-3114-49bc-af0b-48616c43309b"><circle class="efe80bcb-f73d-4a81-a128-ab327d4ae435" cx="288" r="192"/></g></g><g id="b3b83163-fb02-4300-90b8-673b2adbeffe" data-name="snow"><g class="bd6a3408-d5bd-4dbc-9857-b0edba5e4368"><circle class="e232969e-a549-4cd5-9355-23d7c477d558" cx="8" cy="288" r="192"/></g></g><g id="b6ef7dbc-26a2-4b4c-946b-1779a32bdfb2" data-name="snow-day"><g class="ebe70f5a-15f9-4523-845b-164871efbdc7"><circle class="a5f75abf-978c-4bab-a9c5-0a14c24c1c9b" cx="288" cy="288" r="192"/></g></g></svg>