<svg xmlns="http://www.w3.org/2000/svg" xmlns:xlink="http://www.w3.org/1999/xlink" width="192" height="192" viewBox="0 0 192 192"><defs><style>.a7b6088e-9ec7-42f3-af60-efdb647a2262{fill:none;}.afb4aeb3-7cbe-4b6b-85d1-2daf0573cdca{fill:#fdd835;}.fd079293-241f-4335-a665-838696f97e6f{opacity:0.2;}.b905d537-e813-4f70-8fcc-0e34e08ddd0d{fill:#bf360c;}.f80e4835-5ac4-4ddf-a6e5-10e910bf7a1e{fill:#fff;}.fc823162-8af8-4082-a782-3b360d99edce{clip-path:url(#a92fe04b-6767-4bf1-ba2f-373c03e85a36);}.b1b02ce8-ceec-4921-99a4-17fb355a15ea{fill:url(#bba7cf0f-524f-4ba6-810e-34e90da9298a);}.a40b578e-be93-489e-892a-f155e1cf1b64{clip-path:url(#e17d82b3-a9bf-4bc5-a987-b0aacb776efc);}.a4394adf-2140-4ce6-b54a-02daedf588ac{fill:url(#b5615bff-63e5-41c7-8c35-209189656a47);}.fe836b5d-d35c-4b14-aa88-c85ba021d683{clip-path:url(#bb7fe3ef-3146-440a-8795-a2f002a2b2e3);}.ba4f8ed4-7fba-4a54-a5ff-927e7ea529e2{fill:url(#acd890af-4050-4e0f-b309-b79805db3ddd);}.aa95c3a6-7073-4411-902f-fc63981eb208{clip-path:url(#a72d20e0-de07-4b8a-8f59-605fd67363be);}.ab049c5f-fef7-46c3-872b-c9f0a39624f6{fill:url(#ee4e8712-868e-4606-b5b9-f08c91b830e1);}</style><clipPath id="a92fe04b-6767-4bf1-ba2f-373c03e85a36"><circle class="a7b6088e-9ec7-42f3-af60-efdb647a2262" cx="96" cy="96" r="80"/></clipPath><radialGradient id="bba7cf0f-524f-4ba6-810e-34e90da9298a" cx="0" cy="0" r="192" gradientUnits="userSpaceOnUse"><stop offset="0" stop-color="#fff" stop-opacity="0.1"/><stop offset="0.143" stop-color="#c3c3c3" stop-opacity="0.077"/><stop offset="0.609" stop-color="#323232" stop-opacity="0.02"/><stop offset="1" stop-opacity="0"/></radialGradient><clipPath id="e17d82b3-a9bf-4bc5-a987-b0aacb776efc"><path class="a7b6088e-9ec7-42f3-af60-efdb647a2262" d="M376.005,16.4A80,80,0,1,0,463.6,104,88,88,0,0,1,376.005,16.4Z"/></clipPath><radialGradient id="b5615bff-63e5-41c7-8c35-209189656a47" cx="288" xlink:href="#bba7cf0f-524f-4ba6-810e-34e90da9298a"/><clipPath id="bb7fe3ef-3146-440a-8795-a2f002a2b2e3"><path class="a7b6088e-9ec7-42f3-af60-efdb647a2262" d="M176,384A80,80,0,1,0,24.817,420.5,7.986,7.986,0,0,0,32,432a80.479,80.479,0,0,0,16,16,8,8,0,0,0,0,16h96a8,8,0,0,0,0-16,80.479,80.479,0,0,0,16-16,7.986,7.986,0,0,0,7.182-11.5A79.623,79.623,0,0,0,176,384Z"/></clipPath><radialGradient id="acd890af-4050-4e0f-b309-b79805db3ddd" cy="288" xlink:href="#bba7cf0f-524f-4ba6-810e-34e90da9298a"/><clipPath id="a72d20e0-de07-4b8a-8f59-605fd67363be"><path class="a7b6088e-9ec7-42f3-af60-efdb647a2262" d="M463.6,392a88,88,0,0,1-87.6-87.6,79.988,79.988,0,0,0-63.188,116.1A7.986,7.986,0,0,0,320,432a80.479,80.479,0,0,0,16,16,8,8,0,0,0,0,16h96a8,8,0,0,0,0-16h-.008a80.428,80.428,0,0,0,16-16H448a7.986,7.986,0,0,0,7.191-11.488A79.483,79.483,0,0,0,463.6,392Z"/></clipPath><radialGradient id="ee4e8712-868e-4606-b5b9-f08c91b830e1" cx="288" cy="288" xlink:href="#bba7cf0f-524f-4ba6-810e-34e90da9298a"/></defs><g id="b7bf93d5-1625-40a8-aa5f-3b8041838e7c" data-name="clear-day"><rect class="a7b6088e-9ec7-42f3-af60-efdb647a2262" width="192" height="192"/><circle class="afb4aeb3-7cbe-4b6b-85d1-2daf0573cdca" cx="96" cy="96" r="80"/><g class="fd079293-241f-4335-a665-838696f97e6f"><path class="b905d537-e813-4f70-8fcc-0e34e08ddd0d" d="M96,175A79.993,79.993,0,0,1,16.013,95.5c0,.167-.013.332-.013.5a80,80,0,0,0,160,0c0-.168-.012-.333-.013-.5A79.993,79.993,0,0,1,96,175Z"/></g><g class="fd079293-241f-4335-a665-838696f97e6f"><path class="f80e4835-5ac4-4ddf-a6e5-10e910bf7a1e" d="M96,17a79.993,79.993,0,0,1,79.987,79.5c0-.167.013-.332.013-.5A80,80,0,0,0,16,96c0,.168.012.333.013.5A79.993,79.993,0,0,1,96,17Z"/></g><g class="fc823162-8af8-4082-a782-3b360d99edce"><circle class="b1b02ce8-ceec-4921-99a4-17fb355a15ea" r="192"/></g></g><g id="f1d0c3c7-34ae-475e-a396-a4129d400e0f" data-name="clear-night"><g class="a40b578e-be93-489e-892a-f155e1cf1b64"><circle class="a4394adf-2140-4ce6-b54a-02daedf588ac" cx="288" r="192"/></g></g><g id="e893dbc2-51a8-487b-8b07-2d0f632e8cd8" data-name="fog-day"><g class="fe836b5d-d35c-4b14-aa88-c85ba021d683"><circle class="ba4f8ed4-7fba-4a54-a5ff-927e7ea529e2" cy="288" r="192"/></g></g><g id="b58b2ca7-0c2c-4c1b-acdc-0ec187be43d2" data-name="fog-night"><g class="aa95c3a6-7073-4411-902f-fc63981eb208"><circle class="ab049c5f-fef7-46c3-872b-c9f0a39624f6" cx="288" cy="288" r="192"/></g></g></svg>