<svg xmlns="http://www.w3.org/2000/svg" xmlns:xlink="http://www.w3.org/1999/xlink" width="192" height="192" viewBox="0 0 192 192"><defs><style>.afbb9ec2-19ab-4e51-ab44-4fb28bdecb43{fill:none;}.adb10df3-8d95-46df-8bcc-0215fc7a336c{fill:#eee;}.ad86c649-f449-428e-8a24-372e0db9a3b2{opacity:0.1;}.fff96c9a-7a81-494b-bb82-2bc7904893ae{fill:#212121;}.fe194baf-30e5-497f-9dd5-58a50298bef4{opacity:0.4;}.b4241269-db5a-47d6-8521-0bcb679ea872{fill:#fff;}.a7d76384-4b5b-4b8d-b4d9-f69d6f8a87d0{fill:#fafafa;}.bfcc9841-62f1-4498-b314-509569d0dffb{fill:#29b6f6;}.bed7af5a-7df8-4c55-8d71-f15d204b1f88{opacity:0.2;}.b0634bc8-10c8-42a3-8793-316d5726e298{fill:#263238;}.eae02e3d-dc98-40e9-a049-6de0191f36f6{clip-path:url(#bd27447e-37e6-4646-a8ff-57dd3384188f);}.aa089f60-e115-402c-8e10-5b27ed14f544{fill:url(#a050bb71-1b59-40c2-95b9-d85a9b1ad632);}.a9506d32-8394-4f0d-834f-e4998affc3b3{clip-path:url(#fe4e29ca-ad93-4e31-8583-b5a573b02e97);}.b25659ae-b762-405d-b77c-68bba860e9b8{fill:url(#ac813e09-c960-4893-93a5-1096d0574646);}.b72d01bd-d526-4f1f-b775-b755363455b4{clip-path:url(#e8b25688-2fb2-42b0-adf6-f63e0c99d73f);}.a41d47d7-ef3e-4859-9597-92f6cc5a6dbf{fill:url(#f36dc9f2-5d06-449e-a943-44a73d1ab6cd);}.b9bc381d-2ca4-4015-b48c-cb2b7461bb59{clip-path:url(#e80be32a-7dd7-4e53-8a4a-0a2da7dcb680);}.b790cd6e-977b-413d-8fa5-a8f085ec61ac{fill:url(#aa380f9c-95bf-49bf-b9c3-86b854cae763);}</style><clipPath id="bd27447e-37e6-4646-a8ff-57dd3384188f"><path class="afbb9ec2-19ab-4e51-ab44-4fb28bdecb43" d="M120,152a8,8,0,1,0,8,8A8,8,0,0,0,120,152Zm-48,0a8,8,0,1,0,8,8A8,8,0,0,0,72,152Zm24,0a8,8,0,0,0-8,8v8a8,8,0,0,0,16,0v-8A8,8,0,0,0,96,152Zm58.817-87.89A60,60,0,0,0,42.788,48.286,48,48,0,0,0,0,96H0a48,48,0,0,0,48,48H152a40,40,0,0,0,40-40h0A39.995,39.995,0,0,0,154.817,64.11Z"/></clipPath><radialGradient id="a050bb71-1b59-40c2-95b9-d85a9b1ad632" cx="8" cy="0" r="192" gradientUnits="userSpaceOnUse"><stop offset="0" stop-color="#fff" stop-opacity="0.1"/><stop offset="0.143" stop-color="#c3c3c3" stop-opacity="0.077"/><stop offset="0.609" stop-color="#323232" stop-opacity="0.02"/><stop offset="1" stop-opacity="0"/></radialGradient><clipPath id="fe4e29ca-ad93-4e31-8583-b5a573b02e97"><path class="afbb9ec2-19ab-4e51-ab44-4fb28bdecb43" d="M392,0a79.876,79.876,0,0,0-79.375,89.849A36,36,0,0,0,288,124h0a36,36,0,0,0,36,36h78a29.842,29.842,0,0,0,14.927-3.982A80,80,0,0,0,392,0ZM336,168a8,8,0,1,0,8,8A8,8,0,0,0,336,168Zm48,0a8,8,0,1,0,8,8A8,8,0,0,0,384,168Zm-24,0a8,8,0,0,0-8,8v8a8,8,0,0,0,16,0v-8A8,8,0,0,0,360,168Z"/></clipPath><radialGradient id="ac813e09-c960-4893-93a5-1096d0574646" cx="288" xlink:href="#a050bb71-1b59-40c2-95b9-d85a9b1ad632"/><clipPath id="e8b25688-2fb2-42b0-adf6-f63e0c99d73f"><path class="afbb9ec2-19ab-4e51-ab44-4fb28bdecb43" d="M154.817,352.11A60,60,0,0,0,42.788,336.286,48,48,0,0,0,0,384H0a48,48,0,0,0,45.382,47.926L40,440H56v32l26.667-40H152a40,40,0,0,0,40-40h0A39.995,39.995,0,0,0,154.817,352.11ZM120,440a8,8,0,0,0-8,8v8a8,8,0,0,0,16,0v-8A8,8,0,0,0,120,440Zm-24,0a8,8,0,0,0-8,8v8a8,8,0,0,0,16,0v-8A8,8,0,0,0,96,440Z"/></clipPath><radialGradient id="f36dc9f2-5d06-449e-a943-44a73d1ab6cd" cy="288" xlink:href="#a050bb71-1b59-40c2-95b9-d85a9b1ad632"/><clipPath id="e80be32a-7dd7-4e53-8a4a-0a2da7dcb680"><path class="afbb9ec2-19ab-4e51-ab44-4fb28bdecb43" d="M392,288a79.876,79.876,0,0,0-79.375,89.849A36,36,0,0,0,288,412h0a36.006,36.006,0,0,0,30.335,35.553L312,456h16v24l24-32h50a29.842,29.842,0,0,0,14.927-3.982A80,80,0,0,0,392,288ZM360,456a8,8,0,0,0-8,8v8a8,8,0,0,0,16,0v-8A8,8,0,0,0,360,456Zm24,0a8,8,0,0,0-8,8v8a8,8,0,0,0,16,0v-8A8,8,0,0,0,384,456Z"/></clipPath><radialGradient id="aa380f9c-95bf-49bf-b9c3-86b854cae763" cx="288" cy="288" xlink:href="#a050bb71-1b59-40c2-95b9-d85a9b1ad632"/></defs><g id="a8dd12bd-f986-4c6e-8df1-ba3254d70a33" data-name="sleet"><rect class="afbb9ec2-19ab-4e51-ab44-4fb28bdecb43" width="192" height="192"/><path class="adb10df3-8d95-46df-8bcc-0215fc7a336c" d="M154.817,64.11A60,60,0,0,0,42.788,48.286,48,48,0,0,0,0,96H0a48,48,0,0,0,48,48H152a40,40,0,0,0,40-40h0A39.995,39.995,0,0,0,154.817,64.11Z"/><g class="ad86c649-f449-428e-8a24-372e0db9a3b2"><path class="fff96c9a-7a81-494b-bb82-2bc7904893ae" d="M152,143H48A47.994,47.994,0,0,1,.012,95.483C.01,95.656,0,95.827,0,96H0a48,48,0,0,0,48,48H152a40,40,0,0,0,40-40h0c0-.171-.01-.34-.012-.511A40,40,0,0,1,152,143Z"/></g><g class="fe194baf-30e5-497f-9dd5-58a50298bef4"><path class="b4241269-db5a-47d6-8521-0bcb679ea872" d="M154.817,64.11A60,60,0,0,0,42.788,48.286,48,48,0,0,0,0,96H0c0,.162.011.321.012.483a48,48,0,0,1,42.776-47.2A60,60,0,0,1,154.817,65.11a39.989,39.989,0,0,1,37.171,39.379c0-.163.012-.325.012-.489h0A39.995,39.995,0,0,0,154.817,64.11Z"/></g><rect class="a7d76384-4b5b-4b8d-b4d9-f69d6f8a87d0" x="64" y="152" width="16" height="16" rx="8"/><g class="ad86c649-f449-428e-8a24-372e0db9a3b2"><path class="fff96c9a-7a81-494b-bb82-2bc7904893ae" d="M72,167a8,8,0,0,1-7.975-7.5c-.01.166-.025.331-.025.5a8,8,0,0,0,16,0c0-.169-.015-.334-.025-.5A8,8,0,0,1,72,167Z"/></g><g class="fe194baf-30e5-497f-9dd5-58a50298bef4"><path class="b4241269-db5a-47d6-8521-0bcb679ea872" d="M72,153a8,8,0,0,1,7.975,7.5c.01-.166.025-.331.025-.5a8,8,0,0,0-16,0c0,.169.015.334.025.5A8,8,0,0,1,72,153Z"/></g><rect class="bfcc9841-62f1-4498-b314-509569d0dffb" x="88" y="152" width="16" height="24" rx="8"/><g class="bed7af5a-7df8-4c55-8d71-f15d204b1f88"><path class="b0634bc8-10c8-42a3-8793-316d5726e298" d="M96,175a8,8,0,0,1-8-8v1a8,8,0,0,0,16,0v-1A8,8,0,0,1,96,175Z"/></g><g class="bed7af5a-7df8-4c55-8d71-f15d204b1f88"><path class="b4241269-db5a-47d6-8521-0bcb679ea872" d="M96,152a8,8,0,0,0-8,8v1a8,8,0,0,1,16,0v-1A8,8,0,0,0,96,152Z"/></g><rect class="a7d76384-4b5b-4b8d-b4d9-f69d6f8a87d0" x="112" y="152" width="16" height="16" rx="8"/><g class="ad86c649-f449-428e-8a24-372e0db9a3b2"><path class="fff96c9a-7a81-494b-bb82-2bc7904893ae" d="M120,167a8,8,0,0,1-7.975-7.5c-.01.166-.025.331-.025.5a8,8,0,0,0,16,0c0-.169-.015-.334-.025-.5A8,8,0,0,1,120,167Z"/></g><g class="fe194baf-30e5-497f-9dd5-58a50298bef4"><path class="b4241269-db5a-47d6-8521-0bcb679ea872" d="M120,153a8,8,0,0,1,7.975,7.5c.01-.166.025-.331.025-.5a8,8,0,0,0-16,0c0,.169.015.334.025.5A8,8,0,0,1,120,153Z"/></g><g class="eae02e3d-dc98-40e9-a049-6de0191f36f6"><circle class="aa089f60-e115-402c-8e10-5b27ed14f544" cx="8" r="192"/></g></g><g id="a582933b-abc3-4a28-8c4d-330d050b6b3a" data-name="sleet-day"><g class="a9506d32-8394-4f0d-834f-e4998affc3b3"><circle class="b25659ae-b762-405d-b77c-68bba860e9b8" cx="288" r="192"/></g></g><g id="a3314720-fbd2-4cba-bd95-66853520ec0e" data-name="storm"><g class="b72d01bd-d526-4f1f-b775-b755363455b4"><circle class="a41d47d7-ef3e-4859-9597-92f6cc5a6dbf" cx="8" cy="288" r="192"/></g></g><g id="b3dd8c04-767e-4bf2-b941-a68e3593cbbe" data-name="storm-day"><g class="b9bc381d-2ca4-4015-b48c-cb2b7461bb59"><circle class="b790cd6e-977b-413d-8fa5-a8f085ec61ac" cx="288" cy="288" r="192"/></g></g></svg>