<svg xmlns="http://www.w3.org/2000/svg" xmlns:xlink="http://www.w3.org/1999/xlink" width="192" height="192" viewBox="0 0 192 192"><defs><style>.a951dede-6b18-4d1f-8431-1eea0285aea2,.e71895b4-e7e0-4490-bc6b-57fde1cc76c6{fill:none;}.e71895b4-e7e0-4490-bc6b-57fde1cc76c6{clip-path:url(#a0849745-b69f-4258-9805-ffb940f098e6);}.b5210235-8454-49ab-82e9-e95d3f55b0ee{fill:#009688;}.a83cd933-2eb5-4c35-abd3-bc553f4486ee{opacity:0.2;}.e81c1317-27df-4d41-ac1d-a535ab362ec2{fill:#263238;}.b6c9f1ad-9472-467c-962b-a97b454db5c9{fill:#fff;}.a0f1947a-9781-46ad-906f-9d5be0e27d37{clip-path:url(#e438ffc8-34aa-482f-b0b5-589154d9f4a5);}.f56da7e9-178c-49b8-a51e-0fbecd42063d{fill:url(#aabc8337-7efa-48a9-812c-fa716993f782);}.b0491b6f-deb4-485a-8ab2-f45381e498c5{clip-path:url(#e1bb6a9f-1916-4fd5-ae99-3806b7a042bb);}.a74a04a2-5a88-4ff8-8b97-b2ea0775c6d5{fill:url(#b7087ab5-3101-4224-a662-d7aa6ff42490);}</style><clipPath id="a0849745-b69f-4258-9805-ffb940f098e6"><path class="a951dede-6b18-4d1f-8431-1eea0285aea2" d="M392,112H312v16h80a8,8,0,1,1-8,8H368a24,24,0,1,0,24-24Z"/></clipPath><clipPath id="e438ffc8-34aa-482f-b0b5-589154d9f4a5"><circle class="a951dede-6b18-4d1f-8431-1eea0285aea2" cx="96" cy="96" r="80"/></clipPath><radialGradient id="aabc8337-7efa-48a9-812c-fa716993f782" cx="0" cy="0" r="192" gradientUnits="userSpaceOnUse"><stop offset="0" stop-color="#fff" stop-opacity="0.1"/><stop offset="0.143" stop-color="#c3c3c3" stop-opacity="0.077"/><stop offset="0.609" stop-color="#323232" stop-opacity="0.02"/><stop offset="1" stop-opacity="0"/></radialGradient><clipPath id="e1bb6a9f-1916-4fd5-ae99-3806b7a042bb"><path class="e71895b4-e7e0-4490-bc6b-57fde1cc76c6" d="M424,32V48a16,16,0,0,1,0,32H312V96H424a32,32,0,0,0,0-64Z"/></clipPath><radialGradient id="b7087ab5-3101-4224-a662-d7aa6ff42490" cx="288" xlink:href="#aabc8337-7efa-48a9-812c-fa716993f782"/></defs><g id="a03d94a3-08c1-4159-85d9-958177c2f0cd" data-name="unknown"><rect class="a951dede-6b18-4d1f-8431-1eea0285aea2" width="192" height="192"/><circle class="b5210235-8454-49ab-82e9-e95d3f55b0ee" cx="96" cy="96" r="80"/><g class="a83cd933-2eb5-4c35-abd3-bc553f4486ee"><path class="e81c1317-27df-4d41-ac1d-a535ab362ec2" d="M96,175A79.993,79.993,0,0,1,16.013,95.5c0,.167-.013.332-.013.5a80,80,0,0,0,160,0c0-.168-.012-.333-.013-.5A79.993,79.993,0,0,1,96,175Z"/></g><g class="a83cd933-2eb5-4c35-abd3-bc553f4486ee"><path class="b6c9f1ad-9472-467c-962b-a97b454db5c9" d="M96,17a79.993,79.993,0,0,1,79.987,79.5c0-.167.013-.332.013-.5A80,80,0,0,0,16,96c0,.168.012.333.013.5A79.993,79.993,0,0,1,96,17Z"/></g><path class="b6c9f1ad-9472-467c-962b-a97b454db5c9" d="M88,144h16V128H88Zm8-96A32.152,32.152,0,0,0,64,80H80a16,16,0,0,1,32,0c0,16-24,16-24,40h16c0-16,24-16,24-40A32.152,32.152,0,0,0,96,48Z"/><g class="a0f1947a-9781-46ad-906f-9d5be0e27d37"><circle class="f56da7e9-178c-49b8-a51e-0fbecd42063d" r="192"/></g></g><g id="b8ba6be2-2cc5-4c0c-8b7f-50079bf810a6" data-name="windy"><g class="b0491b6f-deb4-485a-8ab2-f45381e498c5"><circle class="a74a04a2-5a88-4ff8-8b97-b2ea0775c6d5" cx="288" r="192"/></g></g></svg>