<svg xmlns="http://www.w3.org/2000/svg" xmlns:xlink="http://www.w3.org/1999/xlink" width="192" height="192" viewBox="0 0 192 192"><defs><style>.e44c3a2b-f95e-4a3b-9b3f-735809dd4853{fill:none;}.a96809b7-9e67-4e8d-86c3-d14b594576c0{fill:#7e57c2;}.b53f2f05-3f6f-4194-85f4-66a3208dda40{opacity:0.2;}.efebe049-8ed8-45af-a0d3-652c3b92279f{fill:#1a237e;}.e0cbd738-14ad-406b-8b2e-46c7e8350631{fill:#fff;}.a9ff3aa5-9f15-40b8-b1aa-644f5dffb579{clip-path:url(#bcf20e2c-0882-4513-a6d2-c188837fefff);}.ad8bd00a-e7dd-4fb4-a573-10ae2e2541c8{fill:url(#fddf4b1b-8d20-4165-93df-01f40bed50d8);}.e2993684-fe50-4759-ae8f-9317c3779703{clip-path:url(#f24fa2b5-5616-4dfd-89dd-7b377b1c326e);}.afee5418-fed0-4f27-88e6-e4aa9b192dcf{fill:url(#b5d6592f-1ca6-459a-aaae-361d0e860b14);}.b7d826a6-f09e-487a-9cca-b1a4103253cc{clip-path:url(#a8bfadf2-c92c-4cbe-b509-4f5cfef67c57);}.bc544121-bd8f-4c5f-8669-386b981438ab{fill:url(#aed8814b-31ca-46e3-adac-0101a9889b21);}.b6fc1b0d-10b2-458d-8638-f44e6a495833{clip-path:url(#e119ae3a-8221-4d0f-b580-1c8434d16615);}.f6dd30e5-41aa-449c-a995-b2fff83a3062{fill:url(#e6d31fa4-f65a-4114-a835-5b157f819258);}</style><clipPath id="bcf20e2c-0882-4513-a6d2-c188837fefff"><path class="e44c3a2b-f95e-4a3b-9b3f-735809dd4853" d="M88.005,16.4A80,80,0,1,0,175.6,104,88,88,0,0,1,88.005,16.4Z"/></clipPath><radialGradient id="fddf4b1b-8d20-4165-93df-01f40bed50d8" cx="0" cy="0" r="192" gradientUnits="userSpaceOnUse"><stop offset="0" stop-color="#fff" stop-opacity="0.1"/><stop offset="0.143" stop-color="#c3c3c3" stop-opacity="0.077"/><stop offset="0.609" stop-color="#323232" stop-opacity="0.02"/><stop offset="1" stop-opacity="0"/></radialGradient><clipPath id="f24fa2b5-5616-4dfd-89dd-7b377b1c326e"><path class="e44c3a2b-f95e-4a3b-9b3f-735809dd4853" d="M442.817,80.11A60,60,0,0,0,330.788,64.286,48,48,0,0,0,288,112h0a48,48,0,0,0,48,48H440a40,40,0,0,0,40-40h0A39.995,39.995,0,0,0,442.817,80.11Z"/></clipPath><radialGradient id="b5d6592f-1ca6-459a-aaae-361d0e860b14" cx="288" xlink:href="#fddf4b1b-8d20-4165-93df-01f40bed50d8"/><clipPath id="a8bfadf2-c92c-4cbe-b509-4f5cfef67c57"><path class="e44c3a2b-f95e-4a3b-9b3f-735809dd4853" d="M175.6,392a88,88,0,0,1-87.6-87.6A79.988,79.988,0,0,0,24.817,420.5,7.986,7.986,0,0,0,32,432a80.479,80.479,0,0,0,16,16,8,8,0,0,0,0,16h96a8,8,0,0,0,0-16h-.008a80.428,80.428,0,0,0,16-16H160a7.986,7.986,0,0,0,7.191-11.488A79.483,79.483,0,0,0,175.6,392Z"/></clipPath><radialGradient id="aed8814b-31ca-46e3-adac-0101a9889b21" cy="288" xlink:href="#fddf4b1b-8d20-4165-93df-01f40bed50d8"/><clipPath id="e119ae3a-8221-4d0f-b580-1c8434d16615"><path class="e44c3a2b-f95e-4a3b-9b3f-735809dd4853" d="M384,304a79.995,79.995,0,0,0-70.845,117.155A23.943,23.943,0,0,0,304,440h0a24,24,0,0,0,24,24h52c.451,0,.892-.038,1.335-.067.887.029,1.771.067,2.665.067a80,80,0,0,0,0-160Z"/></clipPath><radialGradient id="e6d31fa4-f65a-4114-a835-5b157f819258" cx="288" cy="288" xlink:href="#fddf4b1b-8d20-4165-93df-01f40bed50d8"/></defs><g id="b41dc605-51b6-49b9-8d93-2b292dca1b23" data-name="clear-night"><rect class="e44c3a2b-f95e-4a3b-9b3f-735809dd4853" width="192" height="192"/><path class="a96809b7-9e67-4e8d-86c3-d14b594576c0" d="M88.005,16.4A80,80,0,1,0,175.6,104,88,88,0,0,1,88.005,16.4Z"/><g class="b53f2f05-3f6f-4194-85f4-66a3208dda40"><path class="efebe049-8ed8-45af-a0d3-652c3b92279f" d="M96,175A79.994,79.994,0,0,1,16.012,95.484c0,.173-.012.343-.012.516a80,80,0,0,0,159.6,8l-.123,0A80,80,0,0,1,96,175Z"/></g><g class="b53f2f05-3f6f-4194-85f4-66a3208dda40"><path class="e0cbd738-14ad-406b-8b2e-46c7e8350631" d="M88.005,17.4a87.994,87.994,0,0,0,87.473,87.594c.037-.334.09-.663.123-1a88,88,0,0,1-87.6-87.6A80.007,80.007,0,0,0,16,96c0,.162.011.322.012.484A80,80,0,0,1,88.005,17.4Z"/></g><g class="a9ff3aa5-9f15-40b8-b1aa-644f5dffb579"><circle class="ad8bd00a-e7dd-4fb4-a573-10ae2e2541c8" r="192"/></g></g><g id="a435386a-421a-4ced-bcac-53a7c7db4479" data-name="cloudy"><g class="e2993684-fe50-4759-ae8f-9317c3779703"><circle class="afee5418-fed0-4f27-88e6-e4aa9b192dcf" cx="288" r="192"/></g></g><g id="b27232c0-8016-4fc6-8638-c9dd9ab8d046" data-name="fog-night"><g class="b7d826a6-f09e-487a-9cca-b1a4103253cc"><circle class="bc544121-bd8f-4c5f-8669-386b981438ab" cy="288" r="192"/></g></g><g id="b8e6c1ed-9ed3-4bce-8421-7882e119afd2" data-name="partly-cloudy-day"><g class="b6fc1b0d-10b2-458d-8638-f44e6a495833"><circle class="f6dd30e5-41aa-449c-a995-b2fff83a3062" cx="288" cy="288" r="192"/></g></g></svg>