<svg xmlns="http://www.w3.org/2000/svg" xmlns:xlink="http://www.w3.org/1999/xlink" width="192" height="192" viewBox="0 0 192 192"><defs><style>.ac2a3b66-3f00-44b8-ae97-116687c11638{fill:none;}.a2433b04-e791-4336-adc7-b79715c30a98{fill:#eee;}.a236f47b-a7b7-4f54-af56-e039175888e9{opacity:0.1;}.bae98e8a-b1ea-401b-be34-705cfd4107b9{fill:#212121;}.f688ca1c-7419-47b3-b862-8cbdde32fa73{opacity:0.4;}.abf8e685-f0d9-4b94-9c34-a70bee1532d3{fill:#fff;}.f8152cbb-78ce-4b67-9520-62624f50b6b6{fill:#29b6f6;}.f36735da-ff96-4b0d-a73a-a595f81b5bd6{opacity:0.2;}.fb2f0db7-f596-43a6-808f-080f41eda8d1{fill:#263238;}.ad4356fd-7e9e-4ef1-8332-4ffa7679e6f6{clip-path:url(#bcf40269-b007-4899-bc73-63efa8437c7f);}.fa074a13-45bf-4176-902d-31140e668e2a{fill:url(#ee44d07d-88c0-49b7-98dd-971caa66cddd);}.e46c07c7-0af6-487b-9102-9f63ead8b63a{clip-path:url(#b48169dd-4be4-48dc-8be6-d34e0ff99c16);}.aaba6525-acc2-4f15-bacc-a5901636b8c1{fill:url(#fec2ffce-b9d6-4572-9f51-95f175d84293);}.b54e2744-235e-4409-970b-871fd9f7a6ba{clip-path:url(#ad553557-75a2-4419-b5f2-84bef63cb78d);}.b5d95ff7-14a2-483e-b8c9-599d9d1ffbe1{fill:url(#b0b62b9d-6fd3-4128-b0cf-87ae58623ce4);}.fe3c4672-d5e9-4b4b-baec-9ae802c96d01{clip-path:url(#a125440f-e8aa-4429-81cd-7b7d4e9f9898);}.f9cae227-17ff-43f8-8a04-4054a77e0422{fill:url(#a44311fb-9066-48f5-ad0b-bfed9dd3ee68);}</style><clipPath id="bcf40269-b007-4899-bc73-63efa8437c7f"><path class="ac2a3b66-3f00-44b8-ae97-116687c11638" d="M154.817,64.11A60,60,0,0,0,42.788,48.286,48,48,0,0,0,0,96H0a48,48,0,0,0,48,48H152a40,40,0,0,0,40-40h0A39.994,39.994,0,0,0,154.817,64.11ZM72,152a8,8,0,0,0-8,8v8a8,8,0,0,0,16,0v-8A8,8,0,0,0,72,152Zm48,0a8,8,0,0,0-8,8v8a8,8,0,0,0,16,0v-8A8,8,0,0,0,120,152Zm-24,0a8,8,0,0,0-8,8v8a8,8,0,0,0,16,0v-8A8,8,0,0,0,96,152Z"/></clipPath><radialGradient id="ee44d07d-88c0-49b7-98dd-971caa66cddd" cx="8" cy="0" r="192" gradientUnits="userSpaceOnUse"><stop offset="0" stop-color="#fff" stop-opacity="0.1"/><stop offset="0.143" stop-color="#c3c3c3" stop-opacity="0.077"/><stop offset="0.609" stop-color="#323232" stop-opacity="0.02"/><stop offset="1" stop-opacity="0"/></radialGradient><clipPath id="b48169dd-4be4-48dc-8be6-d34e0ff99c16"><path class="ac2a3b66-3f00-44b8-ae97-116687c11638" d="M392,0a79.876,79.876,0,0,0-79.375,89.849A36,36,0,0,0,288,124h0a36,36,0,0,0,36,36h78a29.842,29.842,0,0,0,14.927-3.982A80,80,0,0,0,392,0ZM360,168a8,8,0,0,0-8,8v8a8,8,0,0,0,16,0v-8A8,8,0,0,0,360,168Zm-24,0a8,8,0,0,0-8,8v8a8,8,0,0,0,16,0v-8A8,8,0,0,0,336,168Zm48,0a8,8,0,0,0-8,8v8a8,8,0,0,0,16,0v-8A8,8,0,0,0,384,168Z"/></clipPath><radialGradient id="fec2ffce-b9d6-4572-9f51-95f175d84293" cx="288" xlink:href="#ee44d07d-88c0-49b7-98dd-971caa66cddd"/><clipPath id="ad553557-75a2-4419-b5f2-84bef63cb78d"><path class="ac2a3b66-3f00-44b8-ae97-116687c11638" d="M154.817,352.11A60,60,0,0,0,42.788,336.286,48,48,0,0,0,0,384H0a48,48,0,0,0,48,48H152a40,40,0,0,0,40-40h0A39.994,39.994,0,0,0,154.817,352.11ZM72,440a8,8,0,1,0,8,8A8,8,0,0,0,72,440Zm24,8a8,8,0,1,0,8,8A8,8,0,0,0,96,448Zm24-8a8,8,0,1,0,8,8A8,8,0,0,0,120,440Z"/></clipPath><radialGradient id="b0b62b9d-6fd3-4128-b0cf-87ae58623ce4" cy="288" xlink:href="#ee44d07d-88c0-49b7-98dd-971caa66cddd"/><clipPath id="a125440f-e8aa-4429-81cd-7b7d4e9f9898"><path class="ac2a3b66-3f00-44b8-ae97-116687c11638" d="M392,288a79.876,79.876,0,0,0-79.375,89.849A36,36,0,0,0,288,412h0a36,36,0,0,0,36,36h78a29.842,29.842,0,0,0,14.927-3.982A80,80,0,0,0,392,288ZM360,464a8,8,0,1,0,8,8A8,8,0,0,0,360,464Zm-24-8a8,8,0,1,0,8,8A8,8,0,0,0,336,456Zm48,0a8,8,0,1,0,8,8A8,8,0,0,0,384,456Z"/></clipPath><radialGradient id="a44311fb-9066-48f5-ad0b-bfed9dd3ee68" cx="288" cy="288" xlink:href="#ee44d07d-88c0-49b7-98dd-971caa66cddd"/></defs><g id="b48d246c-8ff9-44cf-bd49-ec7531ea5085" data-name="rain"><rect class="ac2a3b66-3f00-44b8-ae97-116687c11638" width="192" height="192"/><path class="a2433b04-e791-4336-adc7-b79715c30a98" d="M154.817,64.11A60,60,0,0,0,42.788,48.286,48,48,0,0,0,0,96H0a48,48,0,0,0,48,48H152a40,40,0,0,0,40-40h0A39.994,39.994,0,0,0,154.817,64.11Z"/><g class="a236f47b-a7b7-4f54-af56-e039175888e9"><path class="bae98e8a-b1ea-401b-be34-705cfd4107b9" d="M152,143H48A47.994,47.994,0,0,1,.012,95.483C.01,95.656,0,95.827,0,96H0a48,48,0,0,0,48,48H152a40,40,0,0,0,40-40h0c0-.171-.01-.34-.012-.511A40,40,0,0,1,152,143Z"/></g><g class="f688ca1c-7419-47b3-b862-8cbdde32fa73"><path class="abf8e685-f0d9-4b94-9c34-a70bee1532d3" d="M154.817,64.11A60,60,0,0,0,42.788,48.286,48,48,0,0,0,0,96H0c0,.162.011.321.012.483a48,48,0,0,1,42.776-47.2A60,60,0,0,1,154.817,65.11a39.989,39.989,0,0,1,37.171,39.379c0-.163.012-.325.012-.489h0A39.994,39.994,0,0,0,154.817,64.11Z"/></g><rect class="f8152cbb-78ce-4b67-9520-62624f50b6b6" x="64" y="152" width="16" height="24" rx="8"/><rect class="f8152cbb-78ce-4b67-9520-62624f50b6b6" x="88" y="152" width="16" height="24" rx="8"/><rect class="f8152cbb-78ce-4b67-9520-62624f50b6b6" x="112" y="152" width="16" height="24" rx="8"/><g class="f36735da-ff96-4b0d-a73a-a595f81b5bd6"><path class="fb2f0db7-f596-43a6-808f-080f41eda8d1" d="M96,175a8,8,0,0,1-8-8v1a8,8,0,0,0,16,0v-1A8,8,0,0,1,96,175Zm-24,0a8,8,0,0,1-8-8v1a8,8,0,0,0,16,0v-1A8,8,0,0,1,72,175Zm48,0a8,8,0,0,1-8-8v1a8,8,0,0,0,16,0v-1A8,8,0,0,1,120,175Z"/></g><g class="f36735da-ff96-4b0d-a73a-a595f81b5bd6"><path class="abf8e685-f0d9-4b94-9c34-a70bee1532d3" d="M72,152a8,8,0,0,0-8,8v1a8,8,0,0,1,16,0v-1A8,8,0,0,0,72,152Zm24,0a8,8,0,0,0-8,8v1a8,8,0,0,1,16,0v-1A8,8,0,0,0,96,152Zm24,0a8,8,0,0,0-8,8v1a8,8,0,0,1,16,0v-1A8,8,0,0,0,120,152Z"/></g><g class="ad4356fd-7e9e-4ef1-8332-4ffa7679e6f6"><circle class="fa074a13-45bf-4176-902d-31140e668e2a" cx="8" r="192"/></g></g><g id="f5cdd355-fffe-4c8e-9acd-e8cecc9cf3a0" data-name="rain-day"><g class="e46c07c7-0af6-487b-9102-9f63ead8b63a"><circle class="aaba6525-acc2-4f15-bacc-a5901636b8c1" cx="288" r="192"/></g></g><g id="ebef85e0-5084-46b6-b5a5-bd15e8b863bb" data-name="snow"><g class="b54e2744-235e-4409-970b-871fd9f7a6ba"><circle class="b5d95ff7-14a2-483e-b8c9-599d9d1ffbe1" cx="8" cy="288" r="192"/></g></g><g id="ac6ae01b-5b73-4559-aed4-1c4464d44765" data-name="snow-day"><g class="fe3c4672-d5e9-4b4b-baec-9ae802c96d01"><circle class="f9cae227-17ff-43f8-8a04-4054a77e0422" cx="288" cy="288" r="192"/></g></g></svg>