<svg xmlns="http://www.w3.org/2000/svg" xmlns:xlink="http://www.w3.org/1999/xlink" width="192" height="192" viewBox="0 0 192 192"><defs><style>.fc95b8b4-21c1-45db-a728-46bdcea9573e{fill:none;}.b5dd12c1-3d31-4ab8-bbca-4ba2ef91247f{fill:#eee;}.a37152e1-d0b7-44ef-8553-77cee1f7fb93{opacity:0.1;}.f2d69e43-f01e-400d-9966-3a2f2f5b3dfe{fill:#212121;}.bdf9ded9-76ca-4e78-a1bc-4226b0608c5d{opacity:0.4;}.bb2d3dc5-48c2-4be3-9308-9592a8a23256{fill:#fff;}.b5642e31-46bf-49fd-abb5-deaa2c631215{fill:#fafafa;}.ab8ab5a9-6225-4959-bdd3-707d106483c3{fill:#29b6f6;}.a459f34c-6891-4764-8f02-343a494a1693{opacity:0.2;}.f22d9f2c-edda-46ea-9639-65dd249f48ee{fill:#263238;}.a111feb7-cdb5-43a4-9e00-bc224d1b63cb{clip-path:url(#f2c2dbe2-1383-4c5b-bd57-fcc19df686eb);}.ae13ab21-581e-4834-8b7a-1568a8fa6c91{fill:url(#e25733c8-3745-4df3-bace-ea1f9b997081);}.b5e4fd4d-ba37-4185-bf4f-db82d53e39bf{clip-path:url(#fc9f69ad-945a-4b83-a38b-d5b237f322c4);}.b0bf0f1c-a7fb-41ae-b27a-b9df71e83253{fill:url(#a0e22506-e548-462b-b9ac-5448cf744d2d);}.af43194d-8ef2-4f07-8e1c-77d4d0e6d226{clip-path:url(#ee56b4fc-e300-4b7e-8772-c9ec3fbbbc37);}.be0c03b0-b8bf-44ba-b542-77e1bc176deb{fill:url(#a43fad25-088e-40d7-a6a3-42ea4022d791);}.a0918a46-4f86-4e70-be8c-6e9404c0849b{clip-path:url(#e6928441-b84b-4f31-b875-0b0300658e1e);}.ae5440ec-e557-4e9e-88b0-f8edc352e926{fill:url(#bb992f40-58a2-46d4-913b-6f3fb798326e);}</style><clipPath id="f2c2dbe2-1383-4c5b-bd57-fcc19df686eb"><path class="fc95b8b4-21c1-45db-a728-46bdcea9573e" d="M120,152a8,8,0,1,0,8,8A8,8,0,0,0,120,152Zm-48,0a8,8,0,1,0,8,8A8,8,0,0,0,72,152Zm24,0a8,8,0,0,0-8,8v8a8,8,0,0,0,16,0v-8A8,8,0,0,0,96,152Zm58.817-87.89A60,60,0,0,0,42.788,48.286,48,48,0,0,0,0,96H0a48,48,0,0,0,48,48H152a40,40,0,0,0,40-40h0A39.995,39.995,0,0,0,154.817,64.11Z"/></clipPath><radialGradient id="e25733c8-3745-4df3-bace-ea1f9b997081" cx="8" cy="0" r="192" gradientUnits="userSpaceOnUse"><stop offset="0" stop-color="#fff" stop-opacity="0.1"/><stop offset="0.143" stop-color="#c3c3c3" stop-opacity="0.077"/><stop offset="0.609" stop-color="#323232" stop-opacity="0.02"/><stop offset="1" stop-opacity="0"/></radialGradient><clipPath id="fc9f69ad-945a-4b83-a38b-d5b237f322c4"><path class="fc95b8b4-21c1-45db-a728-46bdcea9573e" d="M392,0a79.876,79.876,0,0,0-79.375,89.849A36,36,0,0,0,288,124h0a36,36,0,0,0,36,36h78a29.842,29.842,0,0,0,14.927-3.982A80,80,0,0,0,392,0ZM336,168a8,8,0,1,0,8,8A8,8,0,0,0,336,168Zm48,0a8,8,0,1,0,8,8A8,8,0,0,0,384,168Zm-24,0a8,8,0,0,0-8,8v8a8,8,0,0,0,16,0v-8A8,8,0,0,0,360,168Z"/></clipPath><radialGradient id="a0e22506-e548-462b-b9ac-5448cf744d2d" cx="288" xlink:href="#e25733c8-3745-4df3-bace-ea1f9b997081"/><clipPath id="ee56b4fc-e300-4b7e-8772-c9ec3fbbbc37"><path class="fc95b8b4-21c1-45db-a728-46bdcea9573e" d="M154.817,352.11A60,60,0,0,0,42.788,336.286,48,48,0,0,0,0,384H0a48,48,0,0,0,45.382,47.926L40,440H56v32l26.667-40H152a40,40,0,0,0,40-40h0A39.995,39.995,0,0,0,154.817,352.11ZM120,440a8,8,0,0,0-8,8v8a8,8,0,0,0,16,0v-8A8,8,0,0,0,120,440Zm-24,0a8,8,0,0,0-8,8v8a8,8,0,0,0,16,0v-8A8,8,0,0,0,96,440Z"/></clipPath><radialGradient id="a43fad25-088e-40d7-a6a3-42ea4022d791" cy="288" xlink:href="#e25733c8-3745-4df3-bace-ea1f9b997081"/><clipPath id="e6928441-b84b-4f31-b875-0b0300658e1e"><path class="fc95b8b4-21c1-45db-a728-46bdcea9573e" d="M392,288a79.876,79.876,0,0,0-79.375,89.849A36,36,0,0,0,288,412h0a36.006,36.006,0,0,0,30.335,35.553L312,456h16v24l24-32h50a29.842,29.842,0,0,0,14.927-3.982A80,80,0,0,0,392,288ZM360,456a8,8,0,0,0-8,8v8a8,8,0,0,0,16,0v-8A8,8,0,0,0,360,456Zm24,0a8,8,0,0,0-8,8v8a8,8,0,0,0,16,0v-8A8,8,0,0,0,384,456Z"/></clipPath><radialGradient id="bb992f40-58a2-46d4-913b-6f3fb798326e" cx="288" cy="288" xlink:href="#e25733c8-3745-4df3-bace-ea1f9b997081"/></defs><g id="b4469c56-71b9-4751-ad2c-e6f6d27b7c47" data-name="sleet"><rect class="fc95b8b4-21c1-45db-a728-46bdcea9573e" width="192" height="192"/><path class="b5dd12c1-3d31-4ab8-bbca-4ba2ef91247f" d="M154.817,64.11A60,60,0,0,0,42.788,48.286,48,48,0,0,0,0,96H0a48,48,0,0,0,48,48H152a40,40,0,0,0,40-40h0A39.995,39.995,0,0,0,154.817,64.11Z"/><g class="a37152e1-d0b7-44ef-8553-77cee1f7fb93"><path class="f2d69e43-f01e-400d-9966-3a2f2f5b3dfe" d="M152,143H48A47.994,47.994,0,0,1,.012,95.483C.01,95.656,0,95.827,0,96H0a48,48,0,0,0,48,48H152a40,40,0,0,0,40-40h0c0-.171-.01-.34-.012-.511A40,40,0,0,1,152,143Z"/></g><g class="bdf9ded9-76ca-4e78-a1bc-4226b0608c5d"><path class="bb2d3dc5-48c2-4be3-9308-9592a8a23256" d="M154.817,64.11A60,60,0,0,0,42.788,48.286,48,48,0,0,0,0,96H0c0,.162.011.321.012.483a48,48,0,0,1,42.776-47.2A60,60,0,0,1,154.817,65.11a39.989,39.989,0,0,1,37.171,39.379c0-.163.012-.325.012-.489h0A39.995,39.995,0,0,0,154.817,64.11Z"/></g><rect class="b5642e31-46bf-49fd-abb5-deaa2c631215" x="64" y="152" width="16" height="16" rx="8"/><g class="a37152e1-d0b7-44ef-8553-77cee1f7fb93"><path class="f2d69e43-f01e-400d-9966-3a2f2f5b3dfe" d="M72,167a8,8,0,0,1-7.975-7.5c-.01.166-.025.331-.025.5a8,8,0,0,0,16,0c0-.169-.015-.334-.025-.5A8,8,0,0,1,72,167Z"/></g><g class="bdf9ded9-76ca-4e78-a1bc-4226b0608c5d"><path class="bb2d3dc5-48c2-4be3-9308-9592a8a23256" d="M72,153a8,8,0,0,1,7.975,7.5c.01-.166.025-.331.025-.5a8,8,0,0,0-16,0c0,.169.015.334.025.5A8,8,0,0,1,72,153Z"/></g><rect class="ab8ab5a9-6225-4959-bdd3-707d106483c3" x="88" y="152" width="16" height="24" rx="8"/><g class="a459f34c-6891-4764-8f02-343a494a1693"><path class="f22d9f2c-edda-46ea-9639-65dd249f48ee" d="M96,175a8,8,0,0,1-8-8v1a8,8,0,0,0,16,0v-1A8,8,0,0,1,96,175Z"/></g><g class="a459f34c-6891-4764-8f02-343a494a1693"><path class="bb2d3dc5-48c2-4be3-9308-9592a8a23256" d="M96,152a8,8,0,0,0-8,8v1a8,8,0,0,1,16,0v-1A8,8,0,0,0,96,152Z"/></g><rect class="b5642e31-46bf-49fd-abb5-deaa2c631215" x="112" y="152" width="16" height="16" rx="8"/><g class="a37152e1-d0b7-44ef-8553-77cee1f7fb93"><path class="f2d69e43-f01e-400d-9966-3a2f2f5b3dfe" d="M120,167a8,8,0,0,1-7.975-7.5c-.01.166-.025.331-.025.5a8,8,0,0,0,16,0c0-.169-.015-.334-.025-.5A8,8,0,0,1,120,167Z"/></g><g class="bdf9ded9-76ca-4e78-a1bc-4226b0608c5d"><path class="bb2d3dc5-48c2-4be3-9308-9592a8a23256" d="M120,153a8,8,0,0,1,7.975,7.5c.01-.166.025-.331.025-.5a8,8,0,0,0-16,0c0,.169.015.334.025.5A8,8,0,0,1,120,153Z"/></g><g class="a111feb7-cdb5-43a4-9e00-bc224d1b63cb"><circle class="ae13ab21-581e-4834-8b7a-1568a8fa6c91" cx="8" r="192"/></g></g><g id="f60f0e26-d322-4ba9-934d-f1dd6dd4ffc8" data-name="sleet-day"><g class="b5e4fd4d-ba37-4185-bf4f-db82d53e39bf"><circle class="b0bf0f1c-a7fb-41ae-b27a-b9df71e83253" cx="288" r="192"/></g></g><g id="e0b861c0-cbe3-4478-8b40-bc585b8e0c10" data-name="storm"><g class="af43194d-8ef2-4f07-8e1c-77d4d0e6d226"><circle class="be0c03b0-b8bf-44ba-b542-77e1bc176deb" cx="8" cy="288" r="192"/></g></g><g id="b8cf3f41-9953-4277-afa5-b7e1c8113228" data-name="storm-day"><g class="a0918a46-4f86-4e70-be8c-6e9404c0849b"><circle class="ae5440ec-e557-4e9e-88b0-f8edc352e926" cx="288" cy="288" r="192"/></g></g></svg>