<svg xmlns="http://www.w3.org/2000/svg" xmlns:xlink="http://www.w3.org/1999/xlink" width="192" height="192" viewBox="0 0 192 192"><defs><style>.ac9d62d9-aa50-4e89-a1b9-86d38e565bb2,.bf72228d-0af2-4ad9-8876-0b2598c8bd19{fill:none;}.ac9d62d9-aa50-4e89-a1b9-86d38e565bb2{clip-path:url(#bbfb053b-5907-4411-9288-bf6a10bd6490);}.f148c1db-d192-4e2a-bbb4-8c572c17798d{fill:#eee;}.e88b4575-e5fe-4342-8d36-3cdb580b8883{opacity:0.1;}.b11bb52e-f2a0-48b6-84be-838003a1b233{fill:#212121;}.af7eee34-2cb5-4c96-bb8b-9fc4c3d7ef4c{opacity:0.4;}.b65ce02d-00f8-43d9-bf15-280610aa95ed{fill:#fff;}.f82212a7-3667-4935-b0f2-4e3b926c80fa{fill:#fafafa;}.a6c97f01-1ed2-4587-b585-daeac2b017c8{clip-path:url(#ab96d853-9442-492b-8b6e-4286f414d362);}.beabe3cd-11bb-45f4-b637-c6a0d50e3d40{fill:url(#b255743d-1bfd-4e28-9184-ace5287228f3);}.b4eb9c1f-a3b8-46ea-9bd7-3691df201188{clip-path:url(#eda23f6e-43e9-4d58-981a-b6b1965fc2e0);}.b9b4a452-fa30-4f44-848e-113e5f3dd42d{fill:url(#a1247d75-6ca3-4c56-afd5-ca7cb12982e0);}.b26e4ebf-aa40-442d-9b71-8706d17ec44f{clip-path:url(#eb3eb78a-8876-4c44-8d9a-ab95f3b2ccf3);}.b0b5d6ec-bd94-4b41-9260-f02602da90d2{fill:url(#e902f850-23a5-43ec-a5fa-d39744f30e79);}.a62a6146-3f1d-47bc-9fe8-62e7d0546d24{clip-path:url(#b6f602b4-b0ca-4cac-81b2-dd2ec099466c);}.a7dc0d22-15b1-4b4d-8b8f-7f12071615e7{fill:url(#f403ae52-5eb1-4743-af9e-a123513f9b0a);}</style><clipPath id="bbfb053b-5907-4411-9288-bf6a10bd6490"><path class="bf72228d-0af2-4ad9-8876-0b2598c8bd19" d="M392,400H312v16h80a8,8,0,1,1-8,8H368a24,24,0,1,0,24-24Z"/></clipPath><clipPath id="ab96d853-9442-492b-8b6e-4286f414d362"><path class="bf72228d-0af2-4ad9-8876-0b2598c8bd19" d="M154.817,64.11A60,60,0,0,0,42.788,48.286,48,48,0,0,0,0,96H0a48,48,0,0,0,48,48H152a40,40,0,0,0,40-40h0A39.994,39.994,0,0,0,154.817,64.11ZM72,152a8,8,0,1,0,8,8A8,8,0,0,0,72,152Zm24,8a8,8,0,1,0,8,8A8,8,0,0,0,96,160Zm24-8a8,8,0,1,0,8,8A8,8,0,0,0,120,152Z"/></clipPath><radialGradient id="b255743d-1bfd-4e28-9184-ace5287228f3" cx="8" cy="0" r="192" gradientUnits="userSpaceOnUse"><stop offset="0" stop-color="#fff" stop-opacity="0.1"/><stop offset="0.143" stop-color="#c3c3c3" stop-opacity="0.077"/><stop offset="0.609" stop-color="#323232" stop-opacity="0.02"/><stop offset="1" stop-opacity="0"/></radialGradient><clipPath id="eda23f6e-43e9-4d58-981a-b6b1965fc2e0"><path class="bf72228d-0af2-4ad9-8876-0b2598c8bd19" d="M392,0a79.876,79.876,0,0,0-79.375,89.849A36,36,0,0,0,288,124h0a36,36,0,0,0,36,36h78a29.842,29.842,0,0,0,14.927-3.982A80,80,0,0,0,392,0ZM360,176a8,8,0,1,0,8,8A8,8,0,0,0,360,176Zm-24-8a8,8,0,1,0,8,8A8,8,0,0,0,336,168Zm48,0a8,8,0,1,0,8,8A8,8,0,0,0,384,168Z"/></clipPath><radialGradient id="a1247d75-6ca3-4c56-afd5-ca7cb12982e0" cx="288" xlink:href="#b255743d-1bfd-4e28-9184-ace5287228f3"/><clipPath id="eb3eb78a-8876-4c44-8d9a-ab95f3b2ccf3"><circle class="bf72228d-0af2-4ad9-8876-0b2598c8bd19" cx="96" cy="384" r="80"/></clipPath><radialGradient id="e902f850-23a5-43ec-a5fa-d39744f30e79" cx="0" cy="288" xlink:href="#b255743d-1bfd-4e28-9184-ace5287228f3"/><clipPath id="b6f602b4-b0ca-4cac-81b2-dd2ec099466c"><path class="ac9d62d9-aa50-4e89-a1b9-86d38e565bb2" d="M424,320v16a16,16,0,0,1,0,32H312v16H424a32,32,0,0,0,0-64Z"/></clipPath><radialGradient id="f403ae52-5eb1-4743-af9e-a123513f9b0a" cx="288" cy="288" xlink:href="#b255743d-1bfd-4e28-9184-ace5287228f3"/></defs><g id="b2d34add-b4eb-4e78-af12-7c0c977cfbe2" data-name="snow"><rect class="bf72228d-0af2-4ad9-8876-0b2598c8bd19" width="192" height="192"/><path class="f148c1db-d192-4e2a-bbb4-8c572c17798d" d="M154.817,64.11A60,60,0,0,0,42.788,48.286,48,48,0,0,0,0,96H0a48,48,0,0,0,48,48H152a40,40,0,0,0,40-40h0A39.994,39.994,0,0,0,154.817,64.11Z"/><g class="e88b4575-e5fe-4342-8d36-3cdb580b8883"><path class="b11bb52e-f2a0-48b6-84be-838003a1b233" d="M152,143H48A47.994,47.994,0,0,1,.012,95.483C.01,95.656,0,95.827,0,96H0a48,48,0,0,0,48,48H152a40,40,0,0,0,40-40h0c0-.171-.01-.34-.012-.511A40,40,0,0,1,152,143Z"/></g><g class="af7eee34-2cb5-4c96-bb8b-9fc4c3d7ef4c"><path class="b65ce02d-00f8-43d9-bf15-280610aa95ed" d="M154.817,64.11A60,60,0,0,0,42.788,48.286,48,48,0,0,0,0,96H0c0,.162.011.321.012.483a48,48,0,0,1,42.776-47.2A60,60,0,0,1,154.817,65.11a39.989,39.989,0,0,1,37.171,39.379c0-.163.012-.325.012-.489h0A39.994,39.994,0,0,0,154.817,64.11Z"/></g><rect class="f82212a7-3667-4935-b0f2-4e3b926c80fa" x="88" y="160" width="16" height="16" rx="8"/><rect class="f82212a7-3667-4935-b0f2-4e3b926c80fa" x="64" y="152" width="16" height="16" rx="8"/><rect class="f82212a7-3667-4935-b0f2-4e3b926c80fa" x="112" y="152" width="16" height="16" rx="8"/><g class="e88b4575-e5fe-4342-8d36-3cdb580b8883"><path class="b11bb52e-f2a0-48b6-84be-838003a1b233" d="M72,167a8,8,0,0,1-7.975-7.5c-.01.166-.025.331-.025.5a8,8,0,0,0,16,0c0-.169-.015-.334-.025-.5A8,8,0,0,1,72,167Zm55.975-7.5a7.99,7.99,0,0,1-15.95,0c-.01.166-.025.331-.025.5a8,8,0,0,0,16,0C128,159.831,127.985,159.666,127.975,159.5ZM96,175a8,8,0,0,1-7.975-7.5c-.01.166-.025.331-.025.5a8,8,0,0,0,16,0c0-.169-.015-.334-.025-.5A8,8,0,0,1,96,175Z"/></g><g class="af7eee34-2cb5-4c96-bb8b-9fc4c3d7ef4c"><path class="b65ce02d-00f8-43d9-bf15-280610aa95ed" d="M72,152a8,8,0,0,0-8,8c0,.169.015.334.025.5a7.99,7.99,0,0,1,15.95,0c.01-.166.025-.331.025-.5A8,8,0,0,0,72,152Zm48,0a8,8,0,0,0-8,8c0,.169.015.334.025.5a7.99,7.99,0,0,1,15.95,0c.01-.166.025-.331.025-.5A8,8,0,0,0,120,152Zm-24,8a8,8,0,0,0-8,8c0,.169.015.334.025.5a7.99,7.99,0,0,1,15.95,0c.01-.166.025-.331.025-.5A8,8,0,0,0,96,160Z"/></g><g class="a6c97f01-1ed2-4587-b585-daeac2b017c8"><circle class="beabe3cd-11bb-45f4-b637-c6a0d50e3d40" cx="8" r="192"/></g></g><g id="e5daa5ae-fe43-41cc-9e0d-87149489b772" data-name="snow-day"><g class="b4eb9c1f-a3b8-46ea-9bd7-3691df201188"><circle class="b9b4a452-fa30-4f44-848e-113e5f3dd42d" cx="288" r="192"/></g></g><g id="bc4f2c3c-fe6b-48bf-bfac-a8f92f0893e4" data-name="unknown"><g class="b26e4ebf-aa40-442d-9b71-8706d17ec44f"><circle class="b0b5d6ec-bd94-4b41-9260-f02602da90d2" cy="288" r="192"/></g></g><g id="af05c7ef-0c53-4ca1-91dd-7c3506540681" data-name="windy"><g class="a62a6146-3f1d-47bc-9fe8-62e7d0546d24"><circle class="a7dc0d22-15b1-4b4d-8b8f-7f12071615e7" cx="288" cy="288" r="192"/></g></g></svg>