<svg xmlns="http://www.w3.org/2000/svg" xmlns:xlink="http://www.w3.org/1999/xlink" width="192" height="192" viewBox="0 0 192 192"><defs><style>.be4827d8-d9ad-47cf-8515-9c8fcddbe8be,.ecd771b1-ec08-4986-bab5-ce85511d0dee{fill:none;}.be4827d8-d9ad-47cf-8515-9c8fcddbe8be{clip-path:url(#a69b846b-36e9-4483-b571-2876ad6cf33c);}.a44f3ed2-3bd0-40db-b417-f4faba3b7416{fill:#009688;}.b8976f46-4219-4cda-bf2a-8d08e3de132c{opacity:0.2;}.bd8a1f96-b367-446e-8140-9ff2f20d7d59{fill:#263238;}.ee818757-34f4-4c56-99fb-e73a6eeb6518{fill:#fff;}.fb1f133d-c9be-42cd-aa7a-0234b8fd9f31{clip-path:url(#e786598d-346e-47bd-90b6-765ca3fc8cd2);}.a379caad-7f09-4de3-ac8e-7d99d92b922a{fill:url(#ea9e783b-82f2-4b6f-9575-71d8b07f4eda);}.bbad7fbd-62bf-40ee-a979-dd08afc3972a{clip-path:url(#a5c3b090-bd2a-4116-baeb-58732bc38141);}.f5435905-d8d9-4939-b10f-a6a3a3538100{fill:url(#e6b5b103-3240-4346-a708-942ce8016da4);}</style><clipPath id="a69b846b-36e9-4483-b571-2876ad6cf33c"><path class="ecd771b1-ec08-4986-bab5-ce85511d0dee" d="M392,112H312v16h80a8,8,0,1,1-8,8H368a24,24,0,1,0,24-24Z"/></clipPath><clipPath id="e786598d-346e-47bd-90b6-765ca3fc8cd2"><circle class="ecd771b1-ec08-4986-bab5-ce85511d0dee" cx="96" cy="96" r="80"/></clipPath><radialGradient id="ea9e783b-82f2-4b6f-9575-71d8b07f4eda" cx="0" cy="0" r="192" gradientUnits="userSpaceOnUse"><stop offset="0" stop-color="#fff" stop-opacity="0.1"/><stop offset="0.143" stop-color="#c3c3c3" stop-opacity="0.077"/><stop offset="0.609" stop-color="#323232" stop-opacity="0.02"/><stop offset="1" stop-opacity="0"/></radialGradient><clipPath id="a5c3b090-bd2a-4116-baeb-58732bc38141"><path class="be4827d8-d9ad-47cf-8515-9c8fcddbe8be" d="M424,32V48a16,16,0,0,1,0,32H312V96H424a32,32,0,0,0,0-64Z"/></clipPath><radialGradient id="e6b5b103-3240-4346-a708-942ce8016da4" cx="288" xlink:href="#ea9e783b-82f2-4b6f-9575-71d8b07f4eda"/></defs><g id="a3fbecb6-19da-4cb9-842b-e7625e7054a2" data-name="unknown"><rect class="ecd771b1-ec08-4986-bab5-ce85511d0dee" width="192" height="192"/><circle class="a44f3ed2-3bd0-40db-b417-f4faba3b7416" cx="96" cy="96" r="80"/><g class="b8976f46-4219-4cda-bf2a-8d08e3de132c"><path class="bd8a1f96-b367-446e-8140-9ff2f20d7d59" d="M96,175A79.993,79.993,0,0,1,16.013,95.5c0,.167-.013.332-.013.5a80,80,0,0,0,160,0c0-.168-.012-.333-.013-.5A79.993,79.993,0,0,1,96,175Z"/></g><g class="b8976f46-4219-4cda-bf2a-8d08e3de132c"><path class="ee818757-34f4-4c56-99fb-e73a6eeb6518" d="M96,17a79.993,79.993,0,0,1,79.987,79.5c0-.167.013-.332.013-.5A80,80,0,0,0,16,96c0,.168.012.333.013.5A79.993,79.993,0,0,1,96,17Z"/></g><path class="ee818757-34f4-4c56-99fb-e73a6eeb6518" d="M88,144h16V128H88Zm8-96A32.152,32.152,0,0,0,64,80H80a16,16,0,0,1,32,0c0,16-24,16-24,40h16c0-16,24-16,24-40A32.152,32.152,0,0,0,96,48Z"/><g class="fb1f133d-c9be-42cd-aa7a-0234b8fd9f31"><circle class="a379caad-7f09-4de3-ac8e-7d99d92b922a" r="192"/></g></g><g id="a4f058c2-74c0-4d76-8511-5368e19e6026" data-name="windy"><g class="bbad7fbd-62bf-40ee-a979-dd08afc3972a"><circle class="f5435905-d8d9-4939-b10f-a6a3a3538100" cx="288" r="192"/></g></g></svg>