<svg xmlns="http://www.w3.org/2000/svg" xmlns:xlink="http://www.w3.org/1999/xlink" width="192" height="192" viewBox="0 0 192 192"><defs><style>.b655419c-18fb-4edb-9e07-5dd6f1ad1af1,.bca7bd2a-d942-41d5-ac54-16f6820d9c59{fill:none;}.bca7bd2a-d942-41d5-ac54-16f6820d9c59{clip-path:url(#ee9426d8-2644-4847-97ed-c4bc391c7b6b);}.fbf38aae-f250-4106-9083-33ce7d7b3e9f{fill:#eee;}.a3323a1f-d6b2-4156-895d-83520a9d987c{opacity:0.1;}.bd65aa80-a561-45bf-962c-c1252a69033a{fill:#212121;}.a35bdd25-adb1-430f-bbc2-354dce2c70a7{opacity:0.4;}.b23a03a8-fce3-417e-91d2-db16e41a2ea5{fill:#fff;}.a3115fae-d2b3-47d9-87dc-824c8240f2aa{clip-path:url(#b849aa49-f491-4561-9c0a-a5fe7a6cbeb0);}.b3b94d8b-2848-438c-924b-ba0d438844a3{fill:url(#e7e37427-cfa7-49b5-9c8d-fbf118750645);}</style><clipPath id="ee9426d8-2644-4847-97ed-c4bc391c7b6b"><path class="b655419c-18fb-4edb-9e07-5dd6f1ad1af1" d="M104,112H24v16h80a8,8,0,1,1-8,8H80a24,24,0,1,0,24-24Z"/></clipPath><clipPath id="b849aa49-f491-4561-9c0a-a5fe7a6cbeb0"><path class="bca7bd2a-d942-41d5-ac54-16f6820d9c59" d="M136,32V48a16,16,0,0,1,0,32H24V96H136a32,32,0,0,0,0-64Z"/></clipPath><radialGradient id="e7e37427-cfa7-49b5-9c8d-fbf118750645" cx="0" cy="0" r="192" gradientUnits="userSpaceOnUse"><stop offset="0" stop-color="#fff" stop-opacity="0.1"/><stop offset="0.143" stop-color="#c3c3c3" stop-opacity="0.077"/><stop offset="0.609" stop-color="#323232" stop-opacity="0.02"/><stop offset="1" stop-opacity="0"/></radialGradient></defs><g id="b9f535d1-9f81-4d8d-9451-663319a545e3" data-name="windy"><rect class="b655419c-18fb-4edb-9e07-5dd6f1ad1af1" width="192" height="192"/><path class="fbf38aae-f250-4106-9083-33ce7d7b3e9f" d="M104,112H24v16h80a8,8,0,1,1-8,8H80a24,24,0,1,0,24-24Z"/><path class="fbf38aae-f250-4106-9083-33ce7d7b3e9f" d="M136,32V48a16,16,0,0,1,0,32H24V96H136a32,32,0,0,0,0-64Z"/><g class="a3323a1f-d6b2-4156-895d-83520a9d987c"><path class="bd65aa80-a561-45bf-962c-c1252a69033a" d="M111.975,135.5c.01-.166.025-.331.025-.5a8,8,0,0,0-8-8H24v1h80A8,8,0,0,1,111.975,135.5Zm40-72c0-.168.025-.331.025-.5a16,16,0,0,0-16-16v1A15.989,15.989,0,0,1,151.975,63.5ZM104,159a24.119,24.119,0,0,1-23.974-23H80a24,24,0,0,0,48,0c0-.168-.009-.333-.013-.5A24.114,24.114,0,0,1,104,159Zm63.987-95.5A32.151,32.151,0,0,1,136,95H24v1H136a32.152,32.152,0,0,0,32-32C168,63.832,167.99,63.667,167.987,63.5Z"/></g><g class="a35bdd25-adb1-430f-bbc2-354dce2c70a7"><path class="b23a03a8-fce3-417e-91d2-db16e41a2ea5" d="M136,80H24v1H136a16,16,0,0,0,16-16c0-.169-.02-.332-.025-.5A15.989,15.989,0,0,1,136,80Zm0-48v1a32.151,32.151,0,0,1,31.987,31.5c0-.167.013-.332.013-.5A32.152,32.152,0,0,0,136,32Zm-32,80H24v1h80a24.114,24.114,0,0,1,23.987,23.5c0-.167.013-.332.013-.5A24.115,24.115,0,0,0,104,112Zm0,32a8,8,0,0,1-8-8H80c0,.335.012.668.026,1H96a8,8,0,0,0,16,0c0-.169-.015-.334-.025-.5A8,8,0,0,1,104,144Z"/></g><g class="a3115fae-d2b3-47d9-87dc-824c8240f2aa"><circle class="b3b94d8b-2848-438c-924b-ba0d438844a3" r="192"/></g></g></svg>