<svg xmlns="http://www.w3.org/2000/svg" width="24" height="24" viewBox="0 0 24 24"><defs><style>.b04eeec9-f570-45d1-becc-6e498a2da36e{fill:none;}</style></defs><g id="a5084346-b4d7-4510-adc4-d6873f15cbd9" data-name="partly-cloudy-night"><rect class="b04eeec9-f570-45d1-becc-6e498a2da36e" width="24" height="24"/><path d="M11,2.05a9.993,9.993,0,0,0-7.851,14.6A2.965,2.965,0,0,0,2,19a3,3,0,0,0,3,3h6.5c.057,0,.111-.013.167-.017.112,0,.221.017.333.017a10,10,0,0,0,9.95-9A11,11,0,0,1,11,2.05ZM11.5,20H5a1,1,0,0,1,0-2H6.275a1.708,1.708,0,0,1-.025-.25A1.75,1.75,0,1,1,9.222,19H11.5a.5.5,0,0,1,0,1Zm2.477-.271c.007-.077.023-.151.023-.229a2.493,2.493,0,0,0-2.324-2.482A3.73,3.73,0,0,0,4.9,15.677,7.982,7.982,0,0,1,9.245,4.5,13.009,13.009,0,0,0,19.5,14.755,8,8,0,0,1,13.977,19.729Z"/></g></svg>